<?xml version="1.0" encoding="utf-8"?>
<!-- Generator: Adobe Illustrator 16.0.3, SVG Export Plug-In . SVG Version: 6.00 Build 0)  -->
<!DOCTYPE svg PUBLIC "-//W3C//DTD SVG 1.1//EN" "http://www.w3.org/Graphics/SVG/1.1/DTD/svg11.dtd">
<svg version="1.1" id="Layer_1" xmlns="http://www.w3.org/2000/svg" xmlns:xlink="http://www.w3.org/1999/xlink" x="0px" y="0px"
	 width="400px" height="400px" viewBox="0 0 400 400" enable-background="new 0 0 400 400" xml:space="preserve">
<path fill="#020202" d="M207.586,187.26c-11.184,0-21.752-2.291-31.731-5.84v101.032l31.731-31.73l31.73,31.73V181.419
	C229.336,184.969,218.771,187.26,207.586,187.26z"/>
<circle fill="#020202" cx="207.586" cy="92.067" r="63.461"/>
<g enable-background="new    ">
	<path fill="#010101" d="M136.206,334.154c1.279,0.609,2.406,1.494,3.381,2.65c2.132,2.682,3.198,6.701,3.198,12.063
		s-1.066,9.383-3.198,12.063c-2.255,2.682-5.728,4.021-10.418,4.021h-7.219h-2.924v-2.834v-58.76h10.144
		c4.69,0,8.163,1.342,10.418,4.021c2.132,2.682,3.198,6.701,3.198,12.063c0,5.301-1.066,9.291-3.198,11.971
		c-0.488,0.609-1.005,1.129-1.554,1.555S136.875,333.789,136.206,334.154z M121.95,332.691h7.219c3.777,0,6.488-1.035,8.133-3.107
		c1.705-2.07,2.559-5.451,2.559-10.143c0-4.752-0.822-8.148-2.467-10.189s-4.387-3.063-8.225-3.063h-7.219V332.691z
		 M129.169,362.117c3.838,0,6.58-1.02,8.225-3.061s2.467-5.438,2.467-10.189s-0.854-8.164-2.559-10.234
		c-1.645-2.072-4.356-3.107-8.133-3.107h-7.219v26.592H129.169z"/>
	<path fill="#010101" d="M170.566,336.896c2.742,2.619,4.112,6.244,4.112,10.873v17.09h-2.924v-17.09
		c0-3.715-1.005-6.594-3.016-8.635s-4.843-3.063-8.499-3.063h-1.371h-6.854v28.787h-2.833v-61.594h11.058
		c4.935,0,8.544,1.326,10.829,3.977c2.285,2.648,3.427,6.777,3.427,12.381c0,5.484-1.128,9.566-3.381,12.246
		c-0.975,1.158-2.193,2.102-3.655,2.834C168.616,335.25,169.652,335.982,170.566,336.896z M160.24,333.148
		c4.081,0,6.975-1.035,8.681-3.107c1.828-2.193,2.742-5.666,2.742-10.418c0-4.811-0.884-8.254-2.65-10.326
		c-1.768-2.07-4.692-3.107-8.772-3.107h-8.225v26.959h6.854H160.24z"/>
	<path fill="#010101" d="M193.96,364.951c-1.462,0-2.97-0.213-4.523-0.641c-1.554-0.426-2.97-1.248-4.25-2.467
		s-2.316-2.879-3.107-4.98c-0.792-2.102-1.188-4.857-1.188-8.27v-28.971c0-5.238,1.065-9.26,3.198-12.063
		c2.253-2.801,5.543-4.203,9.87-4.203c4.386,0,7.677,1.402,9.87,4.203c2.192,2.742,3.289,6.764,3.289,12.063v28.971
		c0,3.412-0.396,6.168-1.188,8.27c-0.793,2.102-1.828,3.762-3.107,4.98s-2.696,2.041-4.25,2.467
		C197.021,364.738,195.482,364.951,193.96,364.951z M193.96,306.189c-3.473,0-6.001,1.068-7.585,3.199
		c-1.768,2.254-2.65,5.666-2.65,10.234v28.971c0,4.629,0.883,8.072,2.65,10.326c1.645,2.133,4.172,3.197,7.585,3.197
		c3.35,0,5.909-1.064,7.677-3.197c1.705-2.133,2.559-5.574,2.559-10.326v-28.971c0-4.689-0.854-8.102-2.559-10.234
		C199.93,307.258,197.371,306.189,193.96,306.189z"/>
	<path fill="#010101" d="M216.256,364.951h-2.924v-61.594h2.468l21.201,52.729v-52.729h2.924v61.594h-2.376l-21.293-52.729V364.951z
		"/>
	<path fill="#010101" d="M275.837,362.117v2.834h-29.974v-2.834l26.228-55.928h-26.685v-2.832h29.975v2.65l-26.319,56.109H275.837z"
		/>
	<path fill="#010101" d="M286.529,306.189v26.502h19.282v2.834h-19.282v26.592h19.282v2.834h-22.115v-61.594h22.115v2.832H286.529z"
		/>
</g>
</svg>
