<?xml version="1.0" encoding="utf-8"?>
<!-- Generator: Adobe Illustrator 16.0.3, SVG Export Plug-In . SVG Version: 6.00 Build 0)  -->
<!DOCTYPE svg PUBLIC "-//W3C//DTD SVG 1.1//EN" "http://www.w3.org/Graphics/SVG/1.1/DTD/svg11.dtd">
<svg version="1.1" id="Layer_1" xmlns="http://www.w3.org/2000/svg" xmlns:xlink="http://www.w3.org/1999/xlink" x="0px" y="0px"
	 width="440px" height="440px" viewBox="0 0 440 440" enable-background="new 0 0 440 440" xml:space="preserve">
<rect x="64.437" y="64.437" transform="matrix(0.7071 -0.7071 0.7071 0.7071 -91.127 220)" opacity="0.8" width="311.127" height="311.127"/>
<g>
	<path fill="#FFFFFF" d="M89.317,243.412c-3.026,0-5.815-0.445-8.366-1.336c-2.552-0.89-4.761-2.209-6.63-3.96
		c-1.869-1.749-3.324-3.93-4.361-6.542c-1.039-2.609-1.558-5.606-1.558-8.988V180.4h3.649v41.918c0,2.848,0.43,5.355,1.291,7.521
		c0.859,2.166,2.047,3.99,3.56,5.473c1.513,1.484,3.337,2.611,5.474,3.383c2.136,0.771,4.45,1.156,6.942,1.156
		s4.791-0.385,6.897-1.156c2.105-0.771,3.945-1.898,5.518-3.383c1.571-1.482,2.788-3.307,3.649-5.473
		c0.859-2.166,1.291-4.674,1.291-7.521V180.4h3.738v42.186c0,3.382-0.534,6.379-1.602,8.988c-1.068,2.612-2.552,4.793-4.45,6.542
		c-1.899,1.751-4.139,3.07-6.72,3.96C95.058,242.967,92.284,243.412,89.317,243.412z"/>
	<path fill="#FFFFFF" d="M156.69,185.651c-0.416,0.476-0.787,0.95-1.113,1.424c-0.327,0.476-0.667,0.95-1.023,1.424
		c-0.534-0.474-1.188-0.993-1.958-1.557c-0.772-0.563-1.677-1.097-2.714-1.602c-1.039-0.503-2.196-0.919-3.471-1.246
		c-1.276-0.326-2.656-0.49-4.139-0.49c-2.077,0-3.887,0.342-5.429,1.024c-1.543,0.683-2.834,1.602-3.872,2.759
		c-1.039,1.157-1.811,2.492-2.314,4.005c-0.505,1.513-0.756,3.071-0.756,4.672c0,1.722,0.281,3.19,0.845,4.406
		c0.563,1.217,1.335,2.24,2.314,3.07c0.979,0.832,2.15,1.558,3.516,2.181c1.364,0.623,2.848,1.202,4.45,1.735
		c1.898,0.654,4.019,1.38,6.363,2.181c2.343,0.801,4.553,1.899,6.63,3.293c2.076,1.395,3.812,3.146,5.207,5.251
		c1.394,2.107,2.092,4.761,2.092,7.965c0,2.612-0.49,4.984-1.469,7.12c-0.979,2.137-2.314,3.961-4.005,5.474s-3.68,2.67-5.963,3.472
		c-2.285,0.801-4.703,1.201-7.253,1.201c-2.314,0-4.465-0.298-6.453-0.891c-1.989-0.592-3.753-1.335-5.295-2.225
		c-1.544-0.891-2.893-1.838-4.05-2.848c-1.157-1.009-2.062-1.898-2.714-2.67l2.492-2.492c0.83,0.831,1.78,1.69,2.848,2.58
		c1.068,0.891,2.239,1.707,3.516,2.448c1.275,0.742,2.684,1.351,4.228,1.824c1.542,0.476,3.204,0.712,4.984,0.712
		c2.017,0,3.945-0.312,5.785-0.935c1.838-0.622,3.471-1.513,4.895-2.67c1.424-1.157,2.565-2.565,3.426-4.228
		c0.859-1.66,1.291-3.561,1.291-5.695c0-2.67-0.594-4.865-1.78-6.586c-1.188-1.72-2.656-3.145-4.406-4.272
		c-1.75-1.126-3.664-2.047-5.74-2.759c-2.078-0.712-4.005-1.364-5.785-1.958c-1.128-0.356-2.447-0.83-3.96-1.424
		c-1.513-0.592-2.968-1.424-4.361-2.492c-1.395-1.068-2.612-2.417-3.649-4.049c-1.039-1.631-1.588-3.663-1.647-6.097
		c-0.119-1.958,0.103-3.93,0.668-5.918c0.563-1.987,1.498-3.767,2.803-5.34c1.305-1.571,2.996-2.862,5.073-3.872
		c2.076-1.008,4.597-1.513,7.565-1.513c2.254,0,4.553,0.386,6.897,1.157C151.602,181.973,154.078,183.457,156.69,185.651z"/>
	<path fill="#FFFFFF" d="M172.887,211.639c0-4.39,0.83-8.529,2.492-12.416c1.661-3.885,3.93-7.268,6.809-10.146
		c2.877-2.877,6.244-5.162,10.102-6.853c3.856-1.691,7.979-2.537,12.371-2.537c4.391,0,8.528,0.846,12.415,2.537
		c3.886,1.691,7.267,3.976,10.146,6.853c2.877,2.878,5.162,6.261,6.854,10.146c1.691,3.887,2.537,8.025,2.537,12.416
		c0,4.392-0.846,8.515-2.537,12.371c-1.691,3.857-3.977,7.225-6.854,10.102c-2.879,2.879-6.26,5.148-10.146,6.809
		c-3.887,1.662-8.024,2.492-12.415,2.492c-4.392,0-8.515-0.83-12.371-2.492c-3.857-1.66-7.224-3.93-10.102-6.809
		c-2.878-2.877-5.148-6.244-6.809-10.102C173.717,220.153,172.887,216.03,172.887,211.639z M176.625,211.728
		c0,3.916,0.726,7.581,2.181,10.991c1.453,3.413,3.456,6.379,6.007,8.9c2.551,2.522,5.518,4.525,8.9,6.008
		c3.381,1.483,7,2.225,10.858,2.225c3.856,0,7.505-0.741,10.947-2.225c3.44-1.482,6.453-3.5,9.033-6.053
		c2.582-2.55,4.613-5.531,6.098-8.943c1.482-3.412,2.225-7.076,2.225-10.992s-0.742-7.594-2.225-11.036
		c-1.484-3.44-3.502-6.452-6.053-9.033c-2.553-2.581-5.548-4.613-8.989-6.097c-3.442-1.482-7.091-2.225-10.947-2.225
		c-3.857,0-7.491,0.757-10.902,2.27c-3.413,1.513-6.394,3.56-8.945,6.141c-2.552,2.581-4.554,5.593-6.007,9.034
		C177.351,204.133,176.625,207.812,176.625,211.728z"/>
	<path fill="#FFFFFF" d="M251.029,177.552c5.457,7.062,10.887,14.106,16.285,21.137c5.398,7.031,10.828,14.078,16.287,21.138
		c5.459-7.06,10.889-14.106,16.287-21.138c5.398-7.031,10.828-14.076,16.287-21.137v65.147h-3.738v-39.693v-11.481
		c0.059-0.593,0.104-1.171,0.135-1.736c0.029-0.563,0.045-1.171,0.045-1.824c-4.689,6.527-9.479,12.92-14.375,19.179
		c-4.895,6.261-9.775,12.564-14.641,18.913c-4.094-5.34-8.129-10.605-12.104-15.797c-3.975-5.191-8.01-10.458-12.104-15.797
		l-3.738-4.806c-0.178-0.296-0.355-0.579-0.533-0.846s-0.357-0.548-0.535-0.845c0,0.653,0.014,1.261,0.045,1.824
		c0.029,0.565,0.074,1.143,0.133,1.736v51.174h-3.736V177.552z"/>
	<path fill="#FFFFFF" d="M376.963,235.936l2.047,3.026c-2.373,1.365-4.91,2.447-7.609,3.249c-2.701,0.801-5.563,1.201-8.588,1.201
		c-4.393,0-8.516-0.83-12.371-2.492c-3.857-1.66-7.225-3.93-10.102-6.809c-2.879-2.877-5.148-6.244-6.809-10.102
		c-1.662-3.856-2.492-7.979-2.492-12.371c0-4.39,0.83-8.529,2.492-12.416c1.66-3.885,3.93-7.268,6.809-10.146
		c2.877-2.877,6.244-5.162,10.102-6.853c3.855-1.691,7.979-2.537,12.371-2.537c3.025,0,5.887,0.387,8.588,1.157
		c2.699,0.772,5.266,1.869,7.699,3.293c-0.357,0.476-0.699,0.979-1.023,1.513c-0.328,0.534-0.668,1.039-1.023,1.513
		c-2.078-1.246-4.316-2.209-6.721-2.893c-2.402-0.681-4.91-1.023-7.52-1.023c-3.857,0-7.492,0.757-10.902,2.27
		c-3.414,1.513-6.395,3.56-8.945,6.141s-4.555,5.593-6.008,9.034c-1.455,3.441-2.18,7.12-2.18,11.036
		c0,3.858,0.725,7.492,2.18,10.903c1.453,3.412,3.457,6.394,6.008,8.943c2.551,2.553,5.502,4.57,8.855,6.053
		c3.352,1.483,6.957,2.225,10.814,2.225c2.67,0,5.191-0.34,7.564-1.023C372.572,238.146,374.826,237.182,376.963,235.936z"/>
</g>
<g>
	<path fill="#FFFFFF" d="M72.484,261.62c-0.51,0-0.98-0.075-1.41-0.226c-0.43-0.149-0.803-0.372-1.118-0.667
		s-0.56-0.662-0.735-1.103c-0.175-0.439-0.263-0.945-0.263-1.515V251h0.615v7.065c0,0.479,0.072,0.902,0.217,1.267
		c0.145,0.365,0.345,0.673,0.6,0.923s0.563,0.44,0.922,0.57c0.36,0.13,0.75,0.194,1.17,0.194c0.42,0,0.808-0.064,1.163-0.194
		s0.665-0.32,0.93-0.57c0.265-0.25,0.47-0.558,0.615-0.923c0.145-0.364,0.218-0.787,0.218-1.267V251h0.63v7.11
		c0,0.569-0.09,1.075-0.27,1.515c-0.18,0.44-0.43,0.808-0.75,1.103c-0.32,0.295-0.697,0.518-1.132,0.667
		C73.452,261.545,72.984,261.62,72.484,261.62z"/>
	<path fill="#FFFFFF" d="M88.024,251v10.98c-1.4-1.61-2.785-3.208-4.155-4.793s-2.75-3.183-4.14-4.793
		c-0.05-0.069-0.098-0.135-0.143-0.194c-0.045-0.061-0.093-0.125-0.143-0.195c0.01,0.08,0.018,0.16,0.022,0.24
		s0.013,0.16,0.022,0.24v9.015h-0.63v-10.98c1.4,1.631,2.785,3.243,4.155,4.838c1.37,1.596,2.75,3.202,4.14,4.822
		c0.05,0.07,0.098,0.136,0.143,0.195s0.092,0.125,0.143,0.195c-0.01-0.08-0.018-0.16-0.022-0.24c-0.005-0.08-0.013-0.16-0.022-0.24
		V251H88.024z"/>
	<path fill="#FFFFFF" d="M91.114,251h0.615v10.5h-0.615V251z"/>
	<path fill="#FFFFFF" d="M101.569,251v0.6h-3.84v9.9h-0.615v-9.9h-3.84V251H101.569z"/>
	<path fill="#FFFFFF" d="M102.844,261.5V251h6.225v0.6h-5.61v4.306h5.025v0.6h-5.025v4.396h5.82v0.6H102.844z"/>
	<path fill="#FFFFFF" d="M111.724,251h2.205c0.72,0,1.4,0.123,2.04,0.367c0.64,0.245,1.2,0.596,1.68,1.051s0.86,1.007,1.14,1.657
		c0.28,0.65,0.42,1.375,0.42,2.175c0,0.59-0.103,1.195-0.308,1.815s-0.538,1.185-0.998,1.694s-1.057,0.928-1.792,1.253
		c-0.735,0.325-1.632,0.487-2.692,0.487h-1.695V251z M112.339,251.6v9.285h1.305c0.83,0,1.555-0.132,2.175-0.397
		c0.62-0.265,1.135-0.612,1.545-1.042s0.718-0.923,0.923-1.478c0.205-0.556,0.307-1.128,0.307-1.718c0-0.71-0.123-1.353-0.367-1.928
		c-0.245-0.574-0.58-1.064-1.005-1.47c-0.425-0.405-0.92-0.715-1.485-0.93s-1.167-0.323-1.807-0.323H112.339z"/>
	<path fill="#FFFFFF" d="M131.344,251.885c-0.07,0.08-0.133,0.16-0.188,0.24c-0.055,0.08-0.112,0.16-0.172,0.24
		c-0.09-0.08-0.2-0.168-0.33-0.263s-0.283-0.185-0.458-0.271c-0.175-0.084-0.37-0.154-0.585-0.21
		c-0.215-0.055-0.448-0.082-0.698-0.082c-0.35,0-0.655,0.058-0.915,0.173c-0.26,0.114-0.478,0.27-0.652,0.465
		c-0.175,0.194-0.305,0.42-0.39,0.675s-0.127,0.518-0.127,0.787c0,0.29,0.047,0.538,0.143,0.743s0.225,0.377,0.39,0.518
		c0.165,0.14,0.362,0.262,0.592,0.367c0.23,0.104,0.48,0.202,0.75,0.292c0.32,0.11,0.678,0.233,1.073,0.368s0.767,0.32,1.117,0.555
		c0.35,0.235,0.643,0.53,0.878,0.885c0.235,0.355,0.352,0.803,0.352,1.343c0,0.44-0.082,0.84-0.247,1.2
		c-0.165,0.359-0.39,0.667-0.675,0.922c-0.285,0.256-0.62,0.45-1.005,0.586c-0.385,0.135-0.792,0.202-1.223,0.202
		c-0.39,0-0.752-0.05-1.087-0.15c-0.335-0.1-0.632-0.225-0.893-0.375c-0.26-0.149-0.487-0.31-0.683-0.479
		c-0.195-0.17-0.347-0.32-0.457-0.45l0.42-0.42c0.14,0.14,0.3,0.285,0.48,0.435c0.18,0.15,0.377,0.288,0.592,0.413
		s0.453,0.228,0.712,0.308c0.26,0.08,0.54,0.119,0.84,0.119c0.34,0,0.665-0.052,0.975-0.157c0.31-0.104,0.585-0.255,0.825-0.45
		c0.24-0.194,0.433-0.432,0.578-0.712c0.145-0.28,0.217-0.601,0.217-0.96c0-0.45-0.1-0.82-0.3-1.11c-0.2-0.29-0.448-0.53-0.743-0.72
		c-0.295-0.19-0.618-0.345-0.967-0.465c-0.35-0.12-0.675-0.23-0.975-0.33c-0.19-0.061-0.413-0.141-0.667-0.24s-0.5-0.24-0.735-0.42
		c-0.235-0.18-0.44-0.407-0.615-0.683c-0.175-0.274-0.268-0.617-0.277-1.027c-0.02-0.33,0.017-0.662,0.112-0.998
		c0.095-0.335,0.252-0.635,0.473-0.899c0.22-0.265,0.505-0.482,0.855-0.652s0.775-0.255,1.275-0.255c0.38,0,0.768,0.064,1.163,0.194
		S130.904,251.516,131.344,251.885z"/>
	<path fill="#FFFFFF" d="M141.438,251v0.6h-3.84v9.9h-0.615v-9.9h-3.84V251H141.438z"/>
	<path fill="#FFFFFF" d="M151.639,261.5h-0.63c-0.32-0.75-0.637-1.5-0.952-2.25s-0.633-1.5-0.953-2.25h-4.215
		c-0.32,0.75-0.638,1.5-0.953,2.25s-0.633,1.5-0.953,2.25h-0.645c0.78-1.84,1.555-3.67,2.325-5.49
		c0.77-1.819,1.545-3.649,2.325-5.49c0.78,1.841,1.555,3.671,2.325,5.49C150.083,257.83,150.858,259.66,151.639,261.5z
		 M147.124,252.335c-0.02-0.069-0.042-0.14-0.067-0.21c-0.025-0.07-0.048-0.14-0.068-0.21c-0.26,0.76-0.552,1.51-0.877,2.25
		c-0.325,0.74-0.647,1.485-0.967,2.235h3.705c-0.291-0.69-0.578-1.37-0.863-2.04C147.701,253.69,147.414,253.016,147.124,252.335z"
		/>
	<path fill="#FFFFFF" d="M160.833,251v0.6h-3.84v9.9h-0.615v-9.9h-3.84V251H160.833z"/>
	<path fill="#FFFFFF" d="M162.108,261.5V251h6.225v0.6h-5.61v4.306h5.025v0.6h-5.025v4.396h5.82v0.6H162.108z"/>
	<path fill="#FFFFFF" d="M176.328,251.885c-0.07,0.08-0.133,0.16-0.188,0.24c-0.055,0.08-0.112,0.16-0.172,0.24
		c-0.09-0.08-0.2-0.168-0.33-0.263s-0.283-0.185-0.458-0.271c-0.175-0.084-0.37-0.154-0.585-0.21
		c-0.215-0.055-0.448-0.082-0.698-0.082c-0.35,0-0.655,0.058-0.915,0.173c-0.26,0.114-0.478,0.27-0.652,0.465
		c-0.175,0.194-0.305,0.42-0.39,0.675s-0.127,0.518-0.127,0.787c0,0.29,0.047,0.538,0.143,0.743s0.225,0.377,0.39,0.518
		c0.165,0.14,0.362,0.262,0.592,0.367c0.23,0.104,0.48,0.202,0.75,0.292c0.32,0.11,0.678,0.233,1.073,0.368s0.767,0.32,1.117,0.555
		c0.35,0.235,0.643,0.53,0.878,0.885c0.235,0.355,0.352,0.803,0.352,1.343c0,0.44-0.082,0.84-0.247,1.2
		c-0.165,0.359-0.39,0.667-0.675,0.922c-0.285,0.256-0.62,0.45-1.005,0.586c-0.385,0.135-0.792,0.202-1.223,0.202
		c-0.39,0-0.752-0.05-1.087-0.15c-0.335-0.1-0.632-0.225-0.893-0.375c-0.26-0.149-0.487-0.31-0.683-0.479
		c-0.195-0.17-0.347-0.32-0.457-0.45l0.42-0.42c0.14,0.14,0.3,0.285,0.48,0.435c0.18,0.15,0.377,0.288,0.592,0.413
		s0.453,0.228,0.712,0.308c0.26,0.08,0.54,0.119,0.84,0.119c0.34,0,0.665-0.052,0.975-0.157c0.31-0.104,0.585-0.255,0.825-0.45
		c0.24-0.194,0.433-0.432,0.578-0.712c0.145-0.28,0.217-0.601,0.217-0.96c0-0.45-0.1-0.82-0.3-1.11c-0.2-0.29-0.448-0.53-0.743-0.72
		c-0.295-0.19-0.618-0.345-0.967-0.465c-0.35-0.12-0.675-0.23-0.975-0.33c-0.19-0.061-0.413-0.141-0.667-0.24s-0.5-0.24-0.735-0.42
		c-0.235-0.18-0.44-0.407-0.615-0.683c-0.175-0.274-0.268-0.617-0.277-1.027c-0.02-0.33,0.017-0.662,0.112-0.998
		c0.095-0.335,0.252-0.635,0.473-0.899c0.22-0.265,0.505-0.482,0.855-0.652s0.775-0.255,1.275-0.255c0.38,0,0.768,0.064,1.163,0.194
		S175.888,251.516,176.328,251.885z"/>
	<path fill="#FFFFFF" d="M183.558,256.265c0-0.739,0.14-1.438,0.42-2.092c0.28-0.655,0.662-1.226,1.147-1.71
		c0.485-0.485,1.052-0.87,1.703-1.155c0.65-0.285,1.345-0.428,2.085-0.428c0.74,0,1.438,0.143,2.092,0.428s1.225,0.67,1.71,1.155
		c0.485,0.484,0.87,1.055,1.155,1.71c0.285,0.654,0.427,1.353,0.427,2.092c0,0.74-0.143,1.436-0.427,2.085
		c-0.285,0.65-0.67,1.218-1.155,1.703s-1.055,0.867-1.71,1.147s-1.353,0.42-2.092,0.42c-0.74,0-1.435-0.14-2.085-0.42
		c-0.65-0.28-1.218-0.662-1.703-1.147c-0.485-0.485-0.868-1.053-1.147-1.703C183.698,257.7,183.558,257.005,183.558,256.265z
		 M184.188,256.28c0,0.66,0.122,1.277,0.368,1.853c0.245,0.575,0.582,1.075,1.012,1.5c0.43,0.425,0.93,0.763,1.5,1.012
		c0.57,0.251,1.18,0.375,1.83,0.375c0.65,0,1.265-0.124,1.845-0.375c0.58-0.249,1.087-0.59,1.522-1.02
		c0.435-0.43,0.777-0.933,1.027-1.508c0.25-0.574,0.375-1.192,0.375-1.853c0-0.659-0.125-1.279-0.375-1.859s-0.59-1.088-1.02-1.522
		c-0.43-0.436-0.935-0.777-1.515-1.027s-1.195-0.375-1.845-0.375c-0.65,0-1.263,0.127-1.838,0.382
		c-0.575,0.255-1.078,0.601-1.507,1.035c-0.43,0.435-0.768,0.942-1.012,1.522C184.31,255,184.188,255.62,184.188,256.28z"/>
	<path fill="#FFFFFF" d="M196.337,261.5V251h2.25c0.31,0,0.65,0.05,1.02,0.15c0.37,0.1,0.718,0.26,1.042,0.479
		c0.325,0.22,0.598,0.505,0.818,0.855c0.22,0.35,0.33,0.77,0.33,1.26c0,0.86-0.272,1.545-0.817,2.055s-1.333,0.766-2.362,0.766
		h-1.665v4.935H196.337z M196.953,255.95h1.56c0.52,0,0.952-0.07,1.297-0.21c0.345-0.141,0.62-0.32,0.825-0.54
		c0.205-0.22,0.347-0.458,0.427-0.713s0.12-0.502,0.12-0.742c0-0.28-0.067-0.55-0.203-0.811c-0.135-0.26-0.322-0.489-0.563-0.689
		c-0.24-0.2-0.522-0.357-0.848-0.473c-0.325-0.115-0.672-0.173-1.042-0.173h-1.575V255.95z"/>
	<path fill="#FFFFFF" d="M203.462,261.5V251h6.225v0.6h-5.609v4.306h5.025v0.6h-5.025v4.396h5.82v0.6H203.462z"/>
	<path fill="#FFFFFF" d="M221.867,251v10.98c-1.4-1.61-2.785-3.208-4.155-4.793s-2.75-3.183-4.14-4.793
		c-0.05-0.069-0.098-0.135-0.143-0.194c-0.045-0.061-0.093-0.125-0.143-0.195c0.01,0.08,0.018,0.16,0.022,0.24
		s0.013,0.16,0.022,0.24v9.015h-0.63v-10.98c1.4,1.631,2.785,3.243,4.155,4.838c1.37,1.596,2.75,3.202,4.14,4.822
		c0.049,0.07,0.098,0.136,0.143,0.195s0.092,0.125,0.143,0.195c-0.01-0.08-0.018-0.16-0.023-0.24c-0.004-0.08-0.012-0.16-0.021-0.24
		V251H221.867z"/>
	<path fill="#FFFFFF" d="M229.396,250.52c0.92,1.19,1.836,2.378,2.746,3.563c0.91,1.186,1.824,2.373,2.744,3.563
		c0.92-1.189,1.836-2.377,2.746-3.563c0.908-1.185,1.824-2.372,2.744-3.563v10.98h-0.631v-6.69v-1.935
		c0.01-0.1,0.018-0.197,0.023-0.293c0.004-0.095,0.008-0.197,0.008-0.307c-0.791,1.1-1.598,2.177-2.424,3.232
		c-0.824,1.055-1.646,2.117-2.467,3.188c-0.689-0.9-1.369-1.788-2.039-2.663s-1.352-1.763-2.041-2.662l-0.629-0.811
		c-0.031-0.05-0.061-0.097-0.09-0.142c-0.031-0.046-0.061-0.093-0.092-0.143c0,0.109,0.004,0.212,0.008,0.307
		c0.006,0.096,0.014,0.193,0.023,0.293v8.625h-0.631V250.52z"/>
	<path fill="#FFFFFF" d="M246.857,261.62c-0.512,0-0.98-0.075-1.41-0.226c-0.432-0.149-0.803-0.372-1.117-0.667
		c-0.316-0.295-0.561-0.662-0.736-1.103c-0.174-0.439-0.262-0.945-0.262-1.515V251h0.615v7.065c0,0.479,0.072,0.902,0.217,1.267
		c0.145,0.365,0.346,0.673,0.6,0.923c0.256,0.25,0.563,0.44,0.924,0.57c0.359,0.13,0.75,0.194,1.17,0.194s0.807-0.064,1.162-0.194
		c0.354-0.13,0.664-0.32,0.93-0.57s0.471-0.558,0.615-0.923c0.145-0.364,0.217-0.787,0.217-1.267V251h0.631v7.11
		c0,0.569-0.09,1.075-0.27,1.515c-0.182,0.44-0.432,0.808-0.75,1.103c-0.32,0.295-0.699,0.518-1.133,0.667
		C247.824,261.545,247.357,261.62,246.857,261.62z"/>
	<path fill="#FFFFFF" d="M258.213,251.885c-0.07,0.08-0.133,0.16-0.188,0.24c-0.057,0.08-0.113,0.16-0.174,0.24
		c-0.09-0.08-0.199-0.168-0.33-0.263c-0.129-0.095-0.281-0.185-0.457-0.271c-0.176-0.084-0.369-0.154-0.586-0.21
		c-0.215-0.055-0.447-0.082-0.697-0.082c-0.35,0-0.654,0.058-0.914,0.173c-0.26,0.114-0.479,0.27-0.652,0.465
		c-0.176,0.194-0.305,0.42-0.391,0.675c-0.084,0.255-0.127,0.518-0.127,0.787c0,0.29,0.047,0.538,0.143,0.743
		c0.094,0.205,0.225,0.377,0.389,0.518c0.166,0.14,0.363,0.262,0.594,0.367c0.23,0.104,0.48,0.202,0.75,0.292
		c0.32,0.11,0.678,0.233,1.072,0.368s0.768,0.32,1.117,0.555c0.35,0.235,0.643,0.53,0.877,0.885
		c0.236,0.355,0.354,0.803,0.354,1.343c0,0.44-0.082,0.84-0.248,1.2c-0.164,0.359-0.391,0.667-0.674,0.922
		c-0.285,0.256-0.621,0.45-1.006,0.586c-0.385,0.135-0.793,0.202-1.223,0.202c-0.391,0-0.752-0.05-1.088-0.15
		c-0.334-0.1-0.633-0.225-0.893-0.375c-0.26-0.149-0.486-0.31-0.682-0.479s-0.348-0.32-0.457-0.45l0.42-0.42
		c0.139,0.14,0.299,0.285,0.479,0.435c0.182,0.15,0.379,0.288,0.594,0.413s0.451,0.228,0.713,0.308
		c0.26,0.08,0.539,0.119,0.84,0.119c0.34,0,0.664-0.052,0.975-0.157c0.311-0.104,0.584-0.255,0.824-0.45
		c0.24-0.194,0.434-0.432,0.578-0.712s0.217-0.601,0.217-0.96c0-0.45-0.1-0.82-0.299-1.11c-0.201-0.29-0.447-0.53-0.742-0.72
		c-0.297-0.19-0.619-0.345-0.969-0.465s-0.674-0.23-0.975-0.33c-0.189-0.061-0.412-0.141-0.668-0.24c-0.254-0.1-0.5-0.24-0.734-0.42
		s-0.439-0.407-0.615-0.683c-0.176-0.274-0.268-0.617-0.277-1.027c-0.02-0.33,0.018-0.662,0.113-0.998
		c0.094-0.335,0.252-0.635,0.471-0.899c0.221-0.265,0.506-0.482,0.855-0.652s0.775-0.255,1.275-0.255
		c0.381,0,0.768,0.064,1.162,0.194S257.771,251.516,258.213,251.885z"/>
	<path fill="#FFFFFF" d="M261.572,251h0.615v10.5h-0.615V251z"/>
	<path fill="#FFFFFF" d="M272.402,260.36l0.344,0.51c-0.398,0.23-0.826,0.412-1.281,0.548c-0.455,0.135-0.938,0.202-1.447,0.202
		c-0.74,0-1.436-0.14-2.086-0.42s-1.217-0.662-1.703-1.147c-0.484-0.485-0.867-1.053-1.146-1.703
		c-0.279-0.649-0.42-1.345-0.42-2.085c0-0.739,0.141-1.438,0.42-2.092c0.279-0.655,0.662-1.226,1.146-1.71
		c0.486-0.485,1.053-0.87,1.703-1.155s1.346-0.428,2.086-0.428c0.51,0,0.992,0.065,1.447,0.195s0.887,0.314,1.297,0.555
		c-0.061,0.08-0.117,0.165-0.172,0.255s-0.113,0.176-0.174,0.255c-0.35-0.21-0.727-0.372-1.131-0.487
		c-0.406-0.114-0.828-0.172-1.268-0.172c-0.65,0-1.264,0.127-1.838,0.382c-0.576,0.255-1.078,0.601-1.508,1.035
		s-0.768,0.942-1.012,1.522c-0.246,0.58-0.369,1.2-0.369,1.86c0,0.649,0.123,1.263,0.369,1.837c0.244,0.575,0.582,1.078,1.012,1.508
		s0.928,0.771,1.492,1.02c0.564,0.251,1.172,0.375,1.822,0.375c0.451,0,0.875-0.057,1.275-0.172S272.041,260.57,272.402,260.36z"/>
	<path fill="#FFFFFF" d="M286.951,260.36l0.346,0.51c-0.4,0.23-0.828,0.412-1.283,0.548c-0.455,0.135-0.938,0.202-1.447,0.202
		c-0.74,0-1.436-0.14-2.084-0.42c-0.65-0.28-1.219-0.662-1.703-1.147s-0.867-1.053-1.148-1.703c-0.279-0.649-0.42-1.345-0.42-2.085
		c0-0.739,0.141-1.438,0.42-2.092c0.281-0.655,0.664-1.226,1.148-1.71c0.484-0.485,1.053-0.87,1.703-1.155
		c0.648-0.285,1.344-0.428,2.084-0.428c0.51,0,0.992,0.065,1.447,0.195s0.889,0.314,1.299,0.555
		c-0.061,0.08-0.119,0.165-0.174,0.255s-0.111,0.176-0.172,0.255c-0.35-0.21-0.729-0.372-1.133-0.487
		c-0.404-0.114-0.828-0.172-1.268-0.172c-0.65,0-1.262,0.127-1.838,0.382c-0.574,0.255-1.076,0.601-1.506,1.035
		c-0.432,0.435-0.768,0.942-1.014,1.522c-0.244,0.58-0.367,1.2-0.367,1.86c0,0.649,0.123,1.263,0.367,1.837
		c0.246,0.575,0.582,1.078,1.014,1.508c0.43,0.43,0.926,0.771,1.492,1.02c0.564,0.251,1.172,0.375,1.822,0.375
		c0.449,0,0.875-0.057,1.275-0.172C286.211,260.732,286.592,260.57,286.951,260.36z"/>
	<path fill="#FFFFFF" d="M289.262,256.265c0-0.739,0.141-1.438,0.42-2.092c0.279-0.655,0.662-1.226,1.146-1.71
		c0.486-0.485,1.053-0.87,1.703-1.155s1.346-0.428,2.086-0.428s1.438,0.143,2.092,0.428s1.225,0.67,1.711,1.155
		c0.484,0.484,0.869,1.055,1.154,1.71c0.285,0.654,0.428,1.353,0.428,2.092c0,0.74-0.143,1.436-0.428,2.085
		c-0.285,0.65-0.67,1.218-1.154,1.703c-0.486,0.485-1.057,0.867-1.711,1.147s-1.352,0.42-2.092,0.42s-1.436-0.14-2.086-0.42
		s-1.217-0.662-1.703-1.147c-0.484-0.485-0.867-1.053-1.146-1.703C289.402,257.7,289.262,257.005,289.262,256.265z M289.891,256.28
		c0,0.66,0.123,1.277,0.369,1.853c0.244,0.575,0.582,1.075,1.012,1.5s0.93,0.763,1.5,1.012c0.57,0.251,1.18,0.375,1.83,0.375
		s1.266-0.124,1.846-0.375c0.58-0.249,1.086-0.59,1.521-1.02s0.777-0.933,1.027-1.508c0.25-0.574,0.375-1.192,0.375-1.853
		c0-0.659-0.125-1.279-0.375-1.859s-0.59-1.088-1.02-1.522c-0.43-0.436-0.936-0.777-1.516-1.027s-1.195-0.375-1.844-0.375
		c-0.65,0-1.264,0.127-1.838,0.382c-0.576,0.255-1.078,0.601-1.508,1.035s-0.768,0.942-1.012,1.522
		C290.014,255,289.891,255.62,289.891,256.28z"/>
	<path fill="#FFFFFF" d="M302.432,250.52c0.92,1.19,1.834,2.378,2.744,3.563c0.91,1.186,1.826,2.373,2.746,3.563
		c0.92-1.189,1.834-2.377,2.744-3.563c0.91-1.185,1.824-2.372,2.746-3.563v10.98h-0.631v-6.69v-1.935
		c0.01-0.1,0.018-0.197,0.021-0.293c0.006-0.095,0.008-0.197,0.008-0.307c-0.789,1.1-1.598,2.177-2.422,3.232
		c-0.824,1.055-1.648,2.117-2.467,3.188c-0.691-0.9-1.371-1.788-2.041-2.663s-1.35-1.763-2.039-2.662l-0.631-0.811
		c-0.029-0.05-0.061-0.097-0.09-0.142c-0.029-0.046-0.061-0.093-0.09-0.143c0,0.109,0.002,0.212,0.008,0.307
		c0.004,0.096,0.012,0.193,0.021,0.293v8.625h-0.629V250.52z"/>
	<path fill="#FFFFFF" d="M316.096,261.5V251h2.25c0.311,0,0.65,0.05,1.02,0.15c0.371,0.1,0.719,0.26,1.043,0.479
		s0.598,0.505,0.818,0.855c0.219,0.35,0.33,0.77,0.33,1.26c0,0.86-0.273,1.545-0.818,2.055s-1.332,0.766-2.363,0.766h-1.664v4.935
		H316.096z M316.711,255.95h1.561c0.52,0,0.951-0.07,1.297-0.21c0.346-0.141,0.619-0.32,0.824-0.54s0.348-0.458,0.428-0.713
		s0.121-0.502,0.121-0.742c0-0.28-0.068-0.55-0.203-0.811c-0.135-0.26-0.322-0.489-0.563-0.689s-0.523-0.357-0.848-0.473
		s-0.672-0.173-1.043-0.173h-1.574V255.95z"/>
	<path fill="#FFFFFF" d="M323.221,261.5V251h6.225v0.6h-5.609v4.306h5.025v0.6h-5.025v4.396h5.82v0.6H323.221z"/>
	<path fill="#FFFFFF" d="M339.256,251v0.6h-3.84v9.9h-0.615v-9.9h-3.84V251H339.256z"/>
	<path fill="#FFFFFF" d="M340.816,251h0.615v10.5h-0.615V251z"/>
	<path fill="#FFFFFF" d="M351.271,251v0.6h-3.84v9.9h-0.615v-9.9h-3.84V251H351.271z"/>
	<path fill="#FFFFFF" d="M352.83,251h0.615v10.5h-0.615V251z"/>
	<path fill="#FFFFFF" d="M355.92,256.265c0-0.739,0.141-1.438,0.42-2.092c0.281-0.655,0.664-1.226,1.148-1.71
		c0.484-0.485,1.053-0.87,1.703-1.155c0.648-0.285,1.344-0.428,2.084-0.428s1.438,0.143,2.094,0.428
		c0.654,0.285,1.225,0.67,1.709,1.155c0.484,0.484,0.869,1.055,1.154,1.71c0.285,0.654,0.428,1.353,0.428,2.092
		c0,0.74-0.143,1.436-0.428,2.085c-0.285,0.65-0.67,1.218-1.154,1.703s-1.055,0.867-1.709,1.147c-0.656,0.28-1.354,0.42-2.094,0.42
		s-1.436-0.14-2.084-0.42c-0.65-0.28-1.219-0.662-1.703-1.147s-0.867-1.053-1.148-1.703
		C356.061,257.7,355.92,257.005,355.92,256.265z M356.551,256.28c0,0.66,0.123,1.277,0.367,1.853c0.246,0.575,0.582,1.075,1.014,1.5
		c0.43,0.425,0.93,0.763,1.5,1.012c0.568,0.251,1.18,0.375,1.828,0.375c0.65,0,1.266-0.124,1.846-0.375
		c0.58-0.249,1.088-0.59,1.523-1.02c0.434-0.43,0.777-0.933,1.027-1.508c0.25-0.574,0.375-1.192,0.375-1.853
		c0-0.659-0.125-1.279-0.375-1.859s-0.59-1.088-1.021-1.522c-0.43-0.436-0.934-0.777-1.514-1.027s-1.195-0.375-1.846-0.375
		s-1.262,0.127-1.838,0.382c-0.574,0.255-1.076,0.601-1.506,1.035c-0.432,0.435-0.768,0.942-1.014,1.522
		C356.674,255,356.551,255.62,356.551,256.28z"/>
	<path fill="#FFFFFF" d="M378.256,251v10.98c-1.4-1.61-2.785-3.208-4.156-4.793c-1.369-1.585-2.75-3.183-4.139-4.793
		c-0.051-0.069-0.098-0.135-0.143-0.194c-0.045-0.061-0.094-0.125-0.143-0.195c0.01,0.08,0.018,0.16,0.021,0.24
		c0.006,0.08,0.014,0.16,0.023,0.24v9.015h-0.631v-10.98c1.4,1.631,2.785,3.243,4.156,4.838c1.369,1.596,2.75,3.202,4.139,4.822
		c0.051,0.07,0.098,0.136,0.143,0.195s0.094,0.125,0.143,0.195c-0.01-0.08-0.018-0.16-0.021-0.24c-0.006-0.08-0.014-0.16-0.023-0.24
		V251H378.256z"/>
</g>
<text transform="matrix(1 0 0 1 83.2529 246.6992)" display="none" fill="#FFFFFF" font-family="'JosefinSans'" font-size="89">ENTER</text>
</svg>
