<?xml version="1.0" encoding="utf-8"?>
<!-- Generator: Adobe Illustrator 16.0.3, SVG Export Plug-In . SVG Version: 6.00 Build 0)  -->
<!DOCTYPE svg PUBLIC "-//W3C//DTD SVG 1.1//EN" "http://www.w3.org/Graphics/SVG/1.1/DTD/svg11.dtd">
<svg version="1.1" id="Layer_1" xmlns="http://www.w3.org/2000/svg" xmlns:xlink="http://www.w3.org/1999/xlink" x="0px" y="0px"
	 width="400px" height="400px" viewBox="0 0 400 400" enable-background="new 0 0 400 400" xml:space="preserve">
<path display="none" fill="#020202" d="M201.758,188.804c-11.007,0-21.406-2.254-31.226-5.748v99.424l31.226-31.225l31.225,31.225
	v-99.424C223.162,186.55,212.764,188.804,201.758,188.804z"/>
<circle display="none" fill="#020202" cx="201.758" cy="95.127" r="62.451"/>
<text transform="matrix(1 0 0 1 113.0767 363.668)" display="none" fill="#010101" font-family="'OstrichSans-Medium'" font-size="89.9297">NORMAL</text>
<path display="none" fill="#010101" d="M260.103,193.558l34.549,65.807l-36.77,2.957l-23.165,27.201l-30.512-48.166l-30.514,48.162
	l-24.626-27.566l-35.677-2.588l34.566-65.807c0.37-0.369,0.37-0.369,0.37-0.369c0.372,2.571,1.465,4.416,2.945,6.615
	c2.573,3.678,6.609,5.879,11.391,8.452c4.052,1.475,7.72,2.215,11.034,2.215c3.684,0,7.353-0.738,9.556-2.215
	c1.848,1.475,3.684,3.314,5.887,4.418c3.686,2.213,8.459,3.678,13.98,3.678c5.144,0,9.553-1.469,13.606-3.678
	c2.202-1.104,3.666-2.941,5.131-4.418c3.313,1.475,6.626,2.215,10.31,2.215c3.297,0,6.609-0.738,10.647-2.215
	c5.516-2.572,8.829-4.773,11.403-8.452c1.477-2.203,2.944-4.044,3.68-6.615c0.373,0.369,0.726,0.369,1.467,0.369
	C259.728,193.558,259.728,193.558,260.103,193.558z M290.985,115.974c0,3.676-0.741,6.618-2.205,8.823
	c-1.848,4.044-23.166,2.945-27.217,2.945h-0.72h0.72c3.686,1.842,23.534,8.459,23.903,12.505c0.74,2.938,0,5.88-1.476,9.556
	c-2.927,8.091-8.447,9.931-11.759,9.931c-2.205,0-18.384-9.561-19.125-10.293l-1.096-0.37l0.37,0.37
	c2.206,2.204,19.109,16.906,17.646,20.589c-0.739,2.938-2.204,5.514-4.776,8.089c-3.684,3.676-6.997,5.509-11.035,5.509
	c-2.204,0-15.812-15.812-18.019-18.014l-0.366-0.371v1.104c1.461,2.943,10.662,22.431,8.457,25.374
	c-1.835,2.204-4.051,4.415-7.719,5.515c-2.577,1.103-5.149,1.835-7.355,1.835c-4.791,0-12.494-20.591-14.716-24.268v-0.734v0.734
	c0,3.677,1.112,25.003-2.572,26.839c-2.205,1.843-5.519,2.573-8.814,2.573c-4.052,0-6.994-0.73-9.199-2.573
	c-3.667-1.835-2.573-23.162-2.573-26.839v-0.734l-0.369,0.734c-1.467,3.677-9.555,24.268-14.704,24.268
	c-1.834,0-4.408-0.732-7.35-1.835c-3.315-1.1-5.517-3.314-7.351-5.515c-2.573-2.943,6.613-22.43,8.092-25.374l0.724-1.104
	l-1.465,0.371c-2.205,2.205-15.441,18.014-17.646,18.014c-3.314,0-6.995-1.833-10.665-5.509c-2.574-2.575-4.421-5.153-4.79-8.089
	c-1.095-3.683,14.714-18.385,16.918-20.589l1.107-0.37l-1.479,0.37c-0.737,0.732-16.906,10.293-18.382,10.293
	c-4.037,0-8.817-1.84-12.499-9.931c-1.465-3.675-1.835-6.618-1.465-9.556c0.355-4.044,20.59-10.663,24.257-12.505h0.74h-0.74
	c-3.667,0-24.996,1.102-27.2-2.945c-1.849-2.205-2.218-5.147-2.218-8.823c0-3.675,0.369-6.982,2.218-9.19
	c2.205-3.308,23.533-2.205,27.2-2.205h0.74l-0.74-0.369c-3.667-1.467-23.902-8.454-24.257-12.871c-0.37-2.573,0-5.878,1.465-9.19
	c3.685-8.083,8.461-9.555,12.499-9.555c1.479,0,17.646,9.555,18.382,10.293l1.479,0.364l-1.107-1.102
	c-2.204-2.205-18.016-16.542-16.918-20.59c0.369-2.573,2.216-5.146,4.79-8.089c3.667-3.307,7.351-4.777,10.665-4.777
	c2.205,0,15.441,14.709,17.646,17.282l1.465,1.103l-0.724-1.471c-1.479-2.945-10.665-22.062-8.092-25.737
	c1.834-2.205,4.036-3.676,7.351-5.147c2.946-1.102,5.516-1.471,7.35-1.471c5.148,0,13.239,20.221,14.704,24.265l0.369,0.739v-0.741
	c0-4.044-1.094-25.368,2.573-27.571c2.205-1.471,5.146-2.213,9.199-2.213c3.296,0,6.609,0.743,8.814,2.213
	c3.685,2.204,2.572,23.524,2.572,27.571v0.738v-0.738c2.222-4.044,9.925-24.266,14.716-24.266c2.206,0,4.778,0.373,7.355,1.471
	c3.668,1.471,5.884,2.943,7.719,5.147c2.205,3.676-6.996,22.794-8.457,25.738v1.47l0.366-1.103
	c2.207-2.573,15.814-17.284,18.019-17.284c4.038,0,7.352,1.472,11.035,4.779c2.572,2.945,4.037,5.516,4.776,8.089
	c1.464,4.046-15.439,18.386-17.646,20.591l-0.37,1.102l1.096-0.365c0.736-0.737,16.92-10.293,19.125-10.293
	c3.316,0,8.832,1.471,11.759,9.556c1.476,3.314,2.22,6.617,1.476,9.19c-0.369,4.417-20.218,11.403-23.903,12.87l-0.72,0.37h0.72
	c4.055,0,25.369-1.103,27.217,2.203C290.244,108.992,290.985,112.299,290.985,115.974z M259.728,115.974
	c0-31.617-25.363-57.353-56.616-57.353c-31.626,0-57.73,25.736-57.73,57.353c0,31.252,26.106,56.99,57.73,56.99
	C234.364,172.964,259.728,147.226,259.728,115.974z M246.493,115.974c0-24.636-19.125-44.123-43.382-44.123
	c-24.642,0-44.491,19.485-44.491,44.123c0,24.271,19.85,43.759,44.491,43.759C227.368,159.732,246.493,140.244,246.493,115.974z"/>
<text transform="matrix(1 0 0 1 136.9736 363.959)" display="none" fill="#010101" font-family="'OstrichSans-Medium'" font-size="94.2452">GOLD</text>
<g>
	<path fill="none" d="M132.621,58.954h-23.448c1.413,31.033,12.562,54.164,23.417,57.448c-0.254-2.318-0.388-4.673-0.388-7.063
		c0-3.943,0.034-12.149,0.093-21.882C132.348,78.385,132.487,67.952,132.621,58.954z"/>
	<path fill="none" d="M265.103,87.459c0.067,9.735,0.099,17.947,0.099,21.881c0,2.288-0.127,4.549-0.36,6.775
		c10.582-4.193,21.203-26.933,22.579-57.162h-22.685C264.888,67.958,265.043,78.385,265.103,87.459z"/>
	<path fill="#010101" d="M302.795,51.711c-0.311-7.872-8.84-7.872-14.493-7.872H264.45c-0.068-4.067-0.131-6.572-0.131-6.572
		c-0.077-3.736-3.226-6.798-7.008-6.798H139.973c-3.766,0-6.92,3.062-6.982,6.801c0,0-0.047,2.504-0.127,6.571h-24.578
		c-5.654,0-14.205,0-14.497,7.885l-0.006,0.579c0,45.306,19.294,80.523,42.844,80.664c8.451,21.839,28.254,38.081,52.258,41.611
		c0.72,0.105,0.72,0.105,0.72,0.105c0.813,0.071,1.475,0.379,1.484,0.677c0,0,0,0,0,0.289c0,20.893-4.539,35.258-11.932,48.842
		h-0.019c-0.4,0.745-0.819,1.484-1.235,2.223c-7.89,13.826-18.58,25.467-30.552,26.699c-0.994,0.103-2.714,0.655-2.714,2.77
		c0,2.903,2.44,2.903,8.774,2.903h90.575c6.337,0,8.78,0,8.78-2.903c0-2.114-1.729-2.667-2.72-2.77
		c-11.973-1.232-22.656-12.876-30.549-26.699c-0.419-0.738-0.832-1.478-1.232-2.223h-0.007
		c-7.393-13.584-11.929-27.95-11.929-48.842c0-0.289,0-0.289,0-0.289c0-0.298,0.668-0.602,1.475-0.677c0,0,0,0,0.73-0.105
		c24.063-3.54,43.915-19.871,52.322-41.81c23.563-0.098,41.956-35.134,41.956-80.468L302.795,51.711z M132.59,116.401
		c-10.854-3.284-22.004-26.415-23.417-57.448h23.448c-0.134,8.998-0.273,19.432-0.326,28.506
		c-0.062,9.732-0.093,17.938-0.093,21.881C132.202,111.729,132.335,114.083,132.59,116.401z M264.841,116.116
		c0.233-2.226,0.36-4.487,0.36-6.775c0-3.934-0.034-12.146-0.099-21.881c-0.06-9.074-0.212-19.502-0.367-28.506h22.685
		C286.041,89.183,275.423,111.922,264.841,116.116z"/>
</g>
<g>
	<path fill="#010101" d="M73.148,365.891v-77.145h3.663v73.597h25.867v3.548H73.148z"/>
	<path fill="#010101" d="M109.087,365.891v-77.145h3.548v77.145H109.087z"/>
	<path fill="#010101" d="M123.28,292.295v33.192h24.15v3.548h-24.15v36.855h-3.548v-77.145h27.699v3.549H123.28z"/>
	<path fill="#010101" d="M158.876,292.295v33.192h24.15v3.548h-24.15v33.308h24.15v3.548h-27.699v-77.145h27.699v3.549H158.876z"/>
	<path fill="#010101" d="M229.952,292.295H211.41v73.481h-3.547v-73.481h-18.428v-3.663h40.517V292.295z"/>
	<path fill="#010101" d="M237.392,365.891v-77.145h3.548v77.145H237.392z"/>
	<path fill="#010101" d="M251.583,365.891h-3.549v-77.145h3.091l19.801,68.789l19.687-68.789h3.205v77.145h-3.662v-62.494
		L272.3,365.891h-2.747l-17.97-62.494V365.891z"/>
	<path fill="#010101" d="M306.063,292.295v33.192h24.15v3.548h-24.15v33.308h24.15v3.548h-27.698v-77.145h27.698v3.549H306.063z"/>
</g>
<path display="none" fill="#020202" d="M200.211,186.351c-11.185,0-21.751-2.291-31.731-5.84v101.033l31.731-31.73l31.73,31.73
	V180.51C221.961,184.06,211.396,186.351,200.211,186.351z"/>
<path display="none" fill="#020202" d="M200.211,27.697c-35.049,0-63.461,28.413-63.461,63.461s28.413,63.461,63.461,63.461
	c35.048,0,63.461-28.413,63.461-63.461S235.259,27.697,200.211,27.697z M200.211,122.889c-17.539,0-31.731-14.208-31.731-31.731
	s14.192-31.73,31.731-31.73c17.539,0,31.73,14.208,31.73,31.73S217.75,122.889,200.211,122.889z"/>
<g display="none">
	<path display="inline" fill="#010101" d="M113.843,364.043h-2.924v-61.592h2.468l21.201,52.729v-52.729h2.924v61.592h-2.376
		l-21.293-52.729V364.043z"/>
	<path display="inline" fill="#010101" d="M156.975,364.043c-1.462,0-2.97-0.213-4.523-0.639c-1.554-0.426-2.97-1.248-4.25-2.469
		c-1.279-1.217-2.316-2.877-3.107-4.98c-0.792-2.102-1.188-4.857-1.188-8.27v-28.969c0-5.238,1.065-9.26,3.198-12.063
		c2.253-2.803,5.543-4.203,9.87-4.203c4.386,0,7.676,1.4,9.87,4.203c2.193,2.74,3.29,6.762,3.29,12.063v28.969
		c0,3.412-0.397,6.168-1.188,8.27c-0.792,2.104-1.828,3.764-3.107,4.98c-1.279,1.221-2.696,2.043-4.25,2.469
		C160.037,363.83,158.497,364.043,156.975,364.043z M156.975,305.283c-3.473,0-6.001,1.066-7.585,3.199
		c-1.768,2.254-2.65,5.666-2.65,10.234v28.969c0,4.631,0.883,8.074,2.65,10.326c1.645,2.133,4.172,3.199,7.585,3.199
		c3.35,0,5.909-1.066,7.676-3.199c1.705-2.131,2.559-5.574,2.559-10.326v-28.969c0-4.691-0.854-8.102-2.559-10.234
		C162.945,306.35,160.386,305.283,156.975,305.283z"/>
	<path display="inline" fill="#010101" d="M197.914,335.988c2.742,2.621,4.112,6.246,4.112,10.875v17.088h-2.924v-17.088
		c0-3.715-1.005-6.594-3.016-8.637c-2.01-2.039-4.843-3.061-8.499-3.061h-1.371h-6.854v28.785h-2.833v-61.592h11.058
		c4.935,0,8.544,1.324,10.829,3.975c2.285,2.65,3.427,6.777,3.427,12.383c0,5.482-1.128,9.564-3.381,12.246
		c-0.975,1.158-2.193,2.102-3.655,2.832C195.964,334.344,197,335.074,197.914,335.988z M187.588,332.242
		c4.081,0,6.975-1.035,8.681-3.107c1.828-2.193,2.742-5.666,2.742-10.418c0-4.813-0.884-8.254-2.65-10.326
		c-1.768-2.07-4.692-3.107-8.772-3.107h-8.225v26.959h6.854H187.588z"/>
	<path display="inline" fill="#010101" d="M210.799,364.043h-2.833v-61.592h2.468l15.809,54.922l15.719-54.922h2.559v61.592h-2.924
		v-49.895l-14.256,49.895h-2.193l-14.348-49.895V364.043z"/>
	<path display="inline" fill="#010101" d="M254.389,364.043h-2.924l4.842-21.383v-0.275l9.322-39.934h2.285l14.072,61.592h-2.924
		l-4.203-18.824h-16.268L254.389,364.043z M266.725,310.219l-7.402,32.166h14.896L266.725,310.219z"/>
	<path display="inline" fill="#010101" d="M286.738,364.043v-61.592h2.924v58.76h20.652v2.832H286.738z"/>
</g>
<path display="none" fill="#010101" d="M268.656,91.119c-1.829-3.401-4.436-5.2-7.537-5.2c-0.457,0-0.92,0.037-1.394,0.112
	c1.925-0.737,3.349-1.985,4.21-3.728c0.914-1.833,1.192-4.124,0.844-6.812c-0.572-4.354-2.813-9.303-5.985-13.251
	c-3.365-4.188-7.268-6.585-10.706-6.585c-1.771,0-3.398,0.602-4.863,1.795c1.961-2.412,2.331-5.281,1.051-8.362
	c-1.354-3.268-4.536-6.651-8.735-9.259c-4.16-2.588-8.713-4.071-12.489-4.071c-2.173,0-4.012,0.485-5.471,1.435
	c-1.329,0.875-2.314,2.142-2.936,3.756c0.365-2.237-0.125-4.236-1.451-5.967c-2.59-3.371-8.356-5.468-15.051-5.468
	c-6.7,0-12.464,2.097-15.045,5.465c-1.33,1.732-1.818,3.73-1.456,5.967c-0.62-1.615-1.601-2.878-2.937-3.756
	c-1.453-0.953-3.295-1.436-5.471-1.436c-3.775,0-8.325,1.484-12.48,4.072c-4.199,2.621-7.389,5.992-8.74,9.262
	c-1.277,3.081-0.912,5.95,1.051,8.362c-1.469-1.194-3.094-1.795-4.857-1.795c-3.44,0-7.349,2.397-10.712,6.585
	c-3.174,3.948-5.412,8.901-5.989,13.251c-0.349,2.685-0.067,4.979,0.841,6.812c0.87,1.743,2.288,2.991,4.214,3.728
	c-0.477-0.075-0.939-0.112-1.389-0.112c-2.972,0-5.502,1.657-7.311,4.794c-3.642,6.298-3.642,17.345,0,23.638
	c1.809,3.139,4.339,4.799,7.311,4.793c0.449,0,0.912-0.037,1.389-0.111c-1.926,0.736-3.344,1.985-4.214,3.733
	c-0.908,1.833-1.192,4.118-0.841,6.809c0.577,4.354,2.815,9.303,5.989,13.251c3.363,4.183,7.263,6.58,10.712,6.58l0,0
	c1.763,0,3.389-0.602,4.857-1.793c-1.963,2.408-2.328,5.275-1.051,8.359c1.352,3.269,4.542,6.645,8.74,9.259
	c4.155,2.592,8.706,4.084,12.48,4.084c0.519,0,1.016-0.039,1.492-0.093l-32.251,104.908l37.318-6.785l18.687-60.572l8.627,73.199
	l30.021-24.605l-9.407-86.711c2.57-0.665,5.266-1.838,7.814-3.425c4.198-2.614,7.382-5.985,8.74-9.259
	c1.274-3.084,0.904-5.957-1.051-8.359c1.462,1.191,3.091,1.793,4.853,1.793c3.444,0,7.352-2.395,10.717-6.583
	c3.173-3.948,5.411-8.901,5.982-13.251c0.349-2.688,0.073-4.979-0.847-6.806c-0.86-1.748-2.279-2.997-4.21-3.733
	c0.474,0.075,0.942,0.111,1.389,0.111c0.006,0,0.006,0,0.006,0c3.104,0,5.713-1.801,7.542-5.206
	c1.618-3.008,2.497-7.065,2.497-11.409C271.156,98.179,270.266,94.127,268.656,91.119z"/>
<g display="none">
	<path display="inline" fill="#010101" d="M125.252,365.4c-4.818,0-8.432-1.537-10.841-4.617c-2.409-2.875-3.613-7.293-3.613-13.25
		v-1.506h3.112v1.506c0,3.348,0.367,5.99,1.104,7.93c0.735,1.943,1.656,3.414,2.76,4.418s2.324,1.656,3.664,1.957
		c1.337,0.301,2.609,0.451,3.814,0.451c3.614,0,6.407-1.254,8.382-3.764c1.973-2.51,2.961-6.006,2.961-10.49
		c0-2.408-0.419-4.432-1.255-6.072c-0.837-1.639-1.841-2.994-3.011-4.064c-1.171-1.07-2.393-1.908-3.664-2.51
		c-1.272-0.604-2.309-1.07-3.112-1.406l-1.707-0.703c-1.003-0.4-2.243-0.986-3.714-1.756c-1.473-0.768-2.895-1.84-4.266-3.211
		c-1.372-1.371-2.56-3.078-3.563-5.121c-1.003-2.039-1.505-4.531-1.505-7.477c0-5.086,1.17-9.268,3.513-12.549
		c2.676-3.613,6.324-5.42,10.941-5.42c4.751,0,8.397,1.574,10.941,4.719c2.409,3.012,3.613,7.428,3.613,13.25v1.605h-3.212v-1.605
		c0-5.086-0.971-8.867-2.911-11.344c-1.807-2.273-4.617-3.412-8.432-3.412c-3.613,0-6.391,1.371-8.331,4.115
		c-2.008,2.744-3.011,6.291-3.011,10.641c0,2.408,0.401,4.451,1.204,6.123c0.803,1.672,1.79,3.078,2.961,4.215
		c1.17,1.139,2.392,2.043,3.664,2.711c1.271,0.67,2.409,1.203,3.413,1.605l1.606,0.703c0.869,0.336,2.041,0.854,3.513,1.555
		c1.471,0.703,2.911,1.707,4.316,3.012s2.625,2.961,3.664,4.969c1.037,2.008,1.556,4.484,1.556,7.428
		c0,5.02-1.204,9.102-3.613,12.246C133.583,363.695,129.936,365.4,125.252,365.4z"/>
	<path display="inline" fill="#010101" d="M147.033,365.502v-67.654h3.112v67.654H147.033z"/>
	<path display="inline" fill="#010101" d="M156.066,365.502v-67.654h3.212v64.543h22.685v3.111H156.066z"/>
	<path display="inline" fill="#010101" d="M221.613,297.746L204.649,365.4h-2.409l-16.964-67.654h3.212l14.957,59.625l14.855-59.625
		H221.613z"/>
	<path display="inline" fill="#010101" d="M229.642,300.959v29.109h21.18v3.111h-21.18v29.211h21.18v3.111H226.53v-67.654h24.291
		v3.111H229.642z"/>
	<path display="inline" fill="#010101" d="M280.533,334.686c3.011,2.879,4.517,6.859,4.517,11.945v18.77h-3.212v-18.77
		c0-4.082-1.104-7.244-3.313-9.486c-2.208-2.24-5.32-3.363-9.335-3.363h-1.506h-7.528V365.4h-3.111v-67.654h12.146
		c5.42,0,9.385,1.455,11.895,4.367c2.51,2.91,3.765,7.445,3.765,13.602c0,6.021-1.239,10.506-3.715,13.449
		c-1.07,1.273-2.408,2.309-4.015,3.113C278.391,332.879,279.529,333.682,280.533,334.686z M269.19,330.57
		c4.482,0,7.661-1.137,9.536-3.414c2.007-2.408,3.011-6.223,3.011-11.441c0-5.287-0.971-9.068-2.911-11.344
		c-1.941-2.273-5.153-3.412-9.636-3.412h-9.034v29.611h7.528H269.19z"/>
</g>
</svg>
