<?xml version="1.0" encoding="utf-8"?>
<!-- Generator: Adobe Illustrator 16.0.3, SVG Export Plug-In . SVG Version: 6.00 Build 0)  -->
<!DOCTYPE svg PUBLIC "-//W3C//DTD SVG 1.1//EN" "http://www.w3.org/Graphics/SVG/1.1/DTD/svg11.dtd">
<svg version="1.1" id="Layer_1" xmlns="http://www.w3.org/2000/svg" xmlns:xlink="http://www.w3.org/1999/xlink" x="0px" y="0px"
	 width="100px" height="100px" viewBox="0 0 100 100" enable-background="new 0 0 100 100" xml:space="preserve">
<rect x="14.645" y="14.645" transform="matrix(0.7071 -0.7071 0.7071 0.7071 -20.7107 50)" fill="#2F2F2F" width="70.711" height="70.711"/>
<g>
	<path fill="#FFFFFF" d="M18.875,57.954c-0.742,0-1.425-0.104-2.048-0.315c-0.623-0.209-1.162-0.521-1.617-0.934
		c-0.455-0.413-0.812-0.928-1.071-1.544s-0.388-1.323-0.388-2.121v-9.954h1.302v9.891c0,0.603,0.095,1.135,0.284,1.597
		s0.451,0.851,0.788,1.165c0.336,0.315,0.738,0.557,1.208,0.725c0.469,0.168,0.983,0.252,1.543,0.252
		c0.546,0,1.053-0.084,1.522-0.252c0.469-0.168,0.875-0.409,1.218-0.725c0.343-0.314,0.609-0.703,0.798-1.165
		c0.189-0.462,0.284-0.994,0.284-1.597v-9.891h1.302v9.954c0,0.798-0.13,1.505-0.389,2.121c-0.259,0.616-0.62,1.131-1.082,1.544
		c-0.462,0.412-1.005,0.725-1.627,0.934C20.278,57.85,19.602,57.954,18.875,57.954z"/>
	<path fill="#FFFFFF" d="M34.918,44.43c-0.125,0.154-0.248,0.315-0.367,0.483s-0.242,0.329-0.367,0.483
		c-0.127-0.112-0.281-0.234-0.463-0.367c-0.182-0.133-0.391-0.255-0.629-0.368c-0.238-0.112-0.502-0.207-0.787-0.284
		c-0.287-0.077-0.6-0.115-0.936-0.115c-0.448,0-0.84,0.073-1.176,0.22s-0.613,0.34-0.83,0.578c-0.217,0.238-0.382,0.515-0.494,0.83
		c-0.112,0.315-0.168,0.647-0.168,0.998c0,0.378,0.066,0.697,0.2,0.956c0.133,0.259,0.311,0.479,0.535,0.661
		c0.224,0.182,0.486,0.336,0.788,0.462c0.301,0.126,0.619,0.245,0.955,0.357c0.448,0.154,0.945,0.339,1.492,0.556
		c0.545,0.217,1.053,0.498,1.521,0.84s0.861,0.767,1.176,1.271c0.316,0.504,0.473,1.127,0.473,1.869c0,0.63-0.115,1.197-0.346,1.701
		s-0.547,0.934-0.945,1.291s-0.865,0.63-1.396,0.818c-0.533,0.189-1.1,0.284-1.701,0.284c-0.546,0-1.057-0.073-1.533-0.221
		c-0.476-0.147-0.914-0.329-1.313-0.546c-0.399-0.217-0.75-0.455-1.05-0.714c-0.301-0.259-0.535-0.507-0.704-0.745l0.84-0.84
		c0.196,0.209,0.417,0.42,0.662,0.629c0.245,0.211,0.518,0.406,0.819,0.588c0.301,0.183,0.63,0.33,0.987,0.441
		c0.357,0.112,0.746,0.168,1.166,0.168c0.421,0,0.823-0.063,1.208-0.188s0.725-0.308,1.018-0.546
		c0.295-0.238,0.533-0.535,0.715-0.893s0.273-0.76,0.273-1.207c0-0.589-0.141-1.075-0.42-1.461
		c-0.281-0.385-0.623-0.699-1.029-0.944s-0.84-0.44-1.303-0.588c-0.462-0.147-0.882-0.291-1.26-0.431
		c-0.252-0.098-0.557-0.224-0.914-0.378c-0.357-0.154-0.697-0.364-1.019-0.63c-0.322-0.266-0.599-0.602-0.83-1.008
		c-0.231-0.406-0.354-0.91-0.367-1.512c-0.014-0.462,0.045-0.927,0.178-1.396c0.133-0.469,0.357-0.889,0.672-1.26
		c0.315-0.371,0.728-0.675,1.239-0.913c0.511-0.238,1.137-0.357,1.879-0.357c0.547,0,1.105,0.095,1.68,0.284
		S34.246,43.856,34.918,44.43z"/>
	<path fill="#FFFFFF" d="M38.677,50.457c0-1.036,0.196-2.012,0.588-2.929c0.393-0.917,0.928-1.715,1.606-2.394
		c0.68-0.679,1.474-1.218,2.384-1.617s1.883-0.599,2.919-0.599s2.013,0.2,2.93,0.599s1.715,0.938,2.394,1.617
		c0.68,0.679,1.219,1.477,1.617,2.394c0.399,0.917,0.599,1.894,0.599,2.929c0,1.036-0.199,2.01-0.599,2.919
		c-0.398,0.91-0.938,1.704-1.617,2.384c-0.679,0.68-1.477,1.215-2.394,1.606s-1.894,0.588-2.93,0.588s-2.009-0.196-2.919-0.588
		s-1.704-0.927-2.384-1.606c-0.679-0.68-1.214-1.474-1.606-2.384C38.873,52.467,38.677,51.493,38.677,50.457z M39.979,50.457
		c0,0.868,0.161,1.68,0.483,2.436s0.763,1.418,1.323,1.984c0.56,0.568,1.218,1.016,1.974,1.345s1.562,0.493,2.415,0.493
		s1.659-0.164,2.415-0.493s1.418-0.776,1.984-1.345c0.567-0.566,1.016-1.229,1.345-1.984c0.328-0.756,0.493-1.567,0.493-2.436
		c0-0.854-0.165-1.662-0.493-2.425c-0.329-0.763-0.777-1.431-1.345-2.005c-0.566-0.574-1.225-1.025-1.974-1.354
		s-1.551-0.494-2.404-0.494c-0.854,0-1.659,0.165-2.415,0.494s-1.414,0.78-1.975,1.354c-0.56,0.574-1.004,1.242-1.333,2.005
		S39.979,49.604,39.979,50.457z"/>
	<path fill="#FFFFFF" d="M57.114,42.414c1.288,1.667,2.569,3.329,3.844,4.988c1.273,1.659,2.555,3.321,3.843,4.987
		c1.288-1.666,2.568-3.328,3.843-4.987c1.273-1.659,2.555-3.321,3.843-4.988v15.372h-1.302v-9.618v-1.344
		c0-0.14,0.003-0.27,0.011-0.389c0.007-0.119,0.018-0.241,0.031-0.367c-1.008,1.442-2.062,2.856-3.16,4.242
		c-1.1,1.386-2.188,2.786-3.266,4.2c-0.952-1.246-1.897-2.48-2.835-3.706c-0.938-1.225-1.883-2.46-2.835-3.707l-0.441-0.567
		c-0.056-0.07-0.108-0.147-0.157-0.231s-0.102-0.161-0.157-0.231c0.014,0.126,0.024,0.249,0.031,0.367
		c0.007,0.119,0.011,0.249,0.011,0.389v10.962h-1.303V42.414z"/>
	<path fill="#FFFFFF" d="M86.599,55.854l0.714,1.051c-0.561,0.322-1.159,0.577-1.796,0.766c-0.637,0.189-1.313,0.284-2.026,0.284
		c-1.036,0-2.009-0.196-2.919-0.588s-1.704-0.927-2.384-1.606c-0.679-0.68-1.214-1.474-1.606-2.384
		c-0.392-0.909-0.588-1.883-0.588-2.919c0-1.036,0.196-2.012,0.588-2.929c0.393-0.917,0.928-1.715,1.606-2.394
		c0.68-0.679,1.474-1.218,2.384-1.617s1.883-0.599,2.919-0.599c0.714,0,1.39,0.091,2.026,0.273c0.637,0.182,1.242,0.441,1.816,0.777
		c-0.112,0.182-0.23,0.36-0.356,0.535c-0.126,0.175-0.252,0.354-0.378,0.536c-0.938-0.574-1.975-0.861-3.108-0.861
		c-0.854,0-1.655,0.165-2.404,0.494s-1.403,0.78-1.964,1.354c-0.56,0.574-1.004,1.242-1.333,2.005s-0.494,1.572-0.494,2.425
		c0,0.868,0.161,1.68,0.483,2.436s0.763,1.418,1.323,1.984c0.56,0.568,1.214,1.016,1.963,1.345s1.551,0.493,2.405,0.493
		c0.573,0,1.119-0.073,1.638-0.221C85.625,56.348,86.122,56.135,86.599,55.854z"/>
</g>
</svg>
