<?xml version="1.0" encoding="utf-8"?>
<!-- Generator: Adobe Illustrator 16.0.3, SVG Export Plug-In . SVG Version: 6.00 Build 0)  -->
<!DOCTYPE svg PUBLIC "-//W3C//DTD SVG 1.1//EN" "http://www.w3.org/Graphics/SVG/1.1/DTD/svg11.dtd">
<svg version="1.1" id="Layer_1" xmlns="http://www.w3.org/2000/svg" xmlns:xlink="http://www.w3.org/1999/xlink" x="0px" y="0px"
	 width="400px" height="400px" viewBox="0 0 400 400" enable-background="new 0 0 400 400" xml:space="preserve">
<path fill="#020202" d="M201.758,188.804c-11.007,0-21.406-2.254-31.226-5.748v99.424l31.226-31.226l31.225,31.226v-99.424
	C223.162,186.55,212.764,188.804,201.758,188.804z"/>
<circle display="none" fill="#020202" cx="201.758" cy="95.127" r="62.451"/>
<path display="none" fill="#010101" d="M260.104,193.558l34.549,65.807l-36.771,2.957l-23.165,27.201l-30.512-48.166l-30.514,48.162
	l-24.626-27.566l-35.677-2.588l34.566-65.807c0.37-0.369,0.37-0.369,0.37-0.369c0.372,2.571,1.465,4.416,2.945,6.615
	c2.573,3.679,6.609,5.88,11.391,8.452c4.052,1.475,7.72,2.215,11.034,2.215c3.684,0,7.353-0.738,9.556-2.215
	c1.848,1.475,3.684,3.314,5.887,4.418c3.686,2.213,8.459,3.678,13.98,3.678c5.145,0,9.553-1.469,13.605-3.678
	c2.202-1.104,3.666-2.941,5.131-4.418c3.313,1.475,6.627,2.215,10.311,2.215c3.297,0,6.609-0.738,10.646-2.215
	c5.517-2.572,8.83-4.773,11.403-8.452c1.478-2.203,2.944-4.044,3.681-6.615c0.373,0.369,0.726,0.369,1.467,0.369
	C259.729,193.558,259.729,193.558,260.104,193.558z M290.984,115.974c0,3.676-0.74,6.618-2.205,8.823
	c-1.848,4.044-23.165,2.945-27.217,2.945h-0.72h0.72c3.687,1.842,23.535,8.459,23.903,12.505c0.74,2.938,0,5.88-1.476,9.556
	c-2.928,8.091-8.447,9.931-11.76,9.931c-2.205,0-18.383-9.561-19.125-10.293l-1.096-0.37l0.37,0.37
	c2.206,2.204,19.108,16.906,17.646,20.589c-0.738,2.938-2.203,5.514-4.775,8.089c-3.684,3.676-6.997,5.509-11.035,5.509
	c-2.203,0-15.813-15.812-18.02-18.014l-0.365-0.371v1.104c1.461,2.943,10.662,22.431,8.457,25.374
	c-1.835,2.204-4.051,4.415-7.719,5.515c-2.577,1.103-5.149,1.835-7.355,1.835c-4.791,0-12.494-20.591-14.716-24.268v-0.734v0.734
	c0,3.677,1.112,25.003-2.572,26.839c-2.204,1.842-5.519,2.572-8.813,2.572c-4.052,0-6.994-0.73-9.199-2.572
	c-3.667-1.835-2.573-23.163-2.573-26.839v-0.734l-0.369,0.734c-1.467,3.677-9.555,24.268-14.704,24.268
	c-1.834,0-4.408-0.732-7.35-1.835c-3.315-1.1-5.517-3.314-7.351-5.515c-2.573-2.943,6.613-22.43,8.092-25.374l0.724-1.104
	l-1.465,0.371c-2.205,2.205-15.441,18.014-17.646,18.014c-3.314,0-6.995-1.833-10.665-5.509c-2.574-2.575-4.421-5.153-4.79-8.089
	c-1.095-3.683,14.714-18.385,16.918-20.589l1.107-0.37l-1.479,0.37c-0.737,0.732-16.906,10.293-18.382,10.293
	c-4.037,0-8.817-1.84-12.499-9.931c-1.465-3.675-1.835-6.618-1.465-9.556c0.355-4.044,20.59-10.663,24.257-12.505h0.74h-0.74
	c-3.667,0-24.996,1.102-27.2-2.945c-1.849-2.205-2.218-5.147-2.218-8.823c0-3.675,0.369-6.982,2.218-9.19
	c2.205-3.308,23.533-2.205,27.2-2.205h0.74l-0.74-0.369c-3.667-1.467-23.902-8.454-24.257-12.871c-0.37-2.573,0-5.878,1.465-9.19
	c3.685-8.083,8.461-9.555,12.499-9.555c1.479,0,17.646,9.555,18.382,10.293l1.479,0.364l-1.107-1.102
	c-2.204-2.205-18.016-16.542-16.918-20.59c0.369-2.573,2.216-5.146,4.79-8.089c3.667-3.307,7.351-4.777,10.665-4.777
	c2.205,0,15.441,14.709,17.646,17.282l1.465,1.103l-0.724-1.471c-1.479-2.945-10.665-22.062-8.092-25.737
	c1.834-2.205,4.036-3.676,7.351-5.147c2.946-1.102,5.516-1.471,7.35-1.471c5.148,0,13.239,20.221,14.704,24.265l0.369,0.739v-0.741
	c0-4.044-1.094-25.368,2.573-27.571c2.205-1.471,5.146-2.213,9.199-2.213c3.296,0,6.609,0.743,8.813,2.213
	c3.685,2.204,2.572,23.524,2.572,27.571v0.738v-0.738c2.222-4.044,9.925-24.266,14.716-24.266c2.206,0,4.778,0.373,7.355,1.471
	c3.668,1.471,5.884,2.943,7.719,5.147c2.205,3.676-6.996,22.794-8.457,25.738v1.47l0.365-1.103
	c2.207-2.573,15.814-17.284,18.02-17.284c4.038,0,7.352,1.472,11.035,4.779c2.572,2.945,4.037,5.516,4.775,8.089
	c1.465,4.046-15.438,18.386-17.646,20.591l-0.37,1.102l1.096-0.365c0.736-0.737,16.92-10.293,19.125-10.293
	c3.316,0,8.832,1.471,11.76,9.556c1.476,3.314,2.22,6.617,1.476,9.19c-0.368,4.417-20.218,11.403-23.903,12.87l-0.72,0.37h0.72
	c4.056,0,25.369-1.103,27.217,2.203C290.244,108.992,290.984,112.299,290.984,115.974z M259.729,115.974
	c0-31.617-25.363-57.353-56.617-57.353c-31.625,0-57.729,25.736-57.729,57.353c0,31.252,26.106,56.99,57.729,56.99
	C234.363,172.964,259.729,147.226,259.729,115.974z M246.493,115.974c0-24.636-19.125-44.123-43.382-44.123
	c-24.643,0-44.491,19.485-44.491,44.123c0,24.271,19.85,43.759,44.491,43.759C227.368,159.732,246.493,140.244,246.493,115.974z"/>
<g display="none">
	<path display="inline" fill="#010101" d="M151.487,363.959c-4.523,0-7.949-1.445-10.272-4.336c-2.2-2.889-3.299-7.035-3.299-12.439
		V317.12c0-5.468,1.099-9.582,3.299-12.347c2.324-2.891,5.749-4.336,10.272-4.336c4.524,0,7.917,1.445,10.179,4.336
		c2.262,2.765,3.393,6.879,3.393,12.347v1.508h-3.016v-1.508c0-3.078-0.346-5.529-1.037-7.353c-0.692-1.821-1.555-3.205-2.592-4.146
		c-1.037-0.942-2.168-1.556-3.393-1.838c-1.225-0.283-2.403-0.425-3.534-0.425c-1.131,0-2.325,0.142-3.581,0.425
		c-1.258,0.282-2.403,0.896-3.44,1.838c-1.037,0.94-1.901,2.324-2.592,4.146c-0.692,1.822-1.037,4.273-1.037,7.353v30.063
		c0,4.711,0.91,8.23,2.733,10.556c1.696,2.198,4.335,3.299,7.917,3.299c3.518,0,6.126-1.101,7.822-3.299
		c1.822-2.324,2.733-5.845,2.733-10.556v-8.295h-13.76v-3.016h16.775v11.311c0,5.465-1.131,9.611-3.393,12.439
		C159.404,362.514,156.011,363.959,151.487,363.959z"/>
	<path display="inline" fill="#010101" d="M184.566,363.959c-1.508,0-3.063-0.221-4.665-0.66s-3.063-1.287-4.382-2.545
		c-1.319-1.256-2.389-2.969-3.205-5.137c-0.817-2.168-1.225-5.01-1.225-8.529v-29.875c0-5.402,1.099-9.549,3.299-12.439
		c2.324-2.891,5.716-4.336,10.178-4.336c4.524,0,7.917,1.445,10.179,4.336c2.262,2.826,3.393,6.974,3.393,12.439v29.875
		c0,3.52-0.409,6.361-1.225,8.529c-0.817,2.168-1.885,3.881-3.204,5.137c-1.32,1.258-2.78,2.105-4.383,2.545
		C187.724,363.738,186.136,363.959,184.566,363.959z M184.566,303.359c-3.581,0-6.189,1.1-7.822,3.299
		c-1.823,2.324-2.733,5.842-2.733,10.555v29.875c0,4.775,0.91,8.326,2.733,10.65c1.696,2.199,4.303,3.299,7.822,3.299
		c3.455,0,6.094-1.1,7.917-3.299c1.758-2.199,2.639-5.748,2.639-10.65v-29.875c0-4.838-0.881-8.355-2.639-10.555
		C190.723,304.459,188.084,303.359,184.566,303.359z"/>
	<path display="inline" fill="#010101" d="M204.074,363.959v-63.521h3.016v60.601h21.301v2.922L204.074,363.959L204.074,363.959z"/>
	<path display="inline" fill="#010101" d="M243.468,363.959H232.63v-63.521h10.838c5.026,0,8.767,1.508,11.216,4.523
		c2.323,2.766,3.487,6.975,3.487,12.629v29.217c0,5.654-1.164,9.863-3.487,12.629C252.232,362.451,248.494,363.959,243.468,363.959z
		 M235.552,361.037h7.916c4.084,0,7.054-1.146,8.906-3.439s2.78-5.891,2.78-10.791V317.59c0-4.9-0.928-8.496-2.78-10.791
		c-1.854-2.293-4.822-3.439-8.906-3.439h-7.916V361.037z"/>
</g>
<g display="none">
	<path display="inline" fill="none" d="M132.621,58.954h-23.448c1.413,31.033,12.562,54.164,23.417,57.448
		c-0.254-2.318-0.388-4.673-0.388-7.063c0-3.943,0.034-12.149,0.093-21.882C132.348,78.385,132.487,67.952,132.621,58.954z"/>
	<path display="inline" fill="none" d="M265.104,87.459c0.066,9.735,0.099,17.947,0.099,21.881c0,2.288-0.127,4.549-0.36,6.775
		c10.582-4.193,21.203-26.933,22.579-57.162h-22.685C264.889,67.958,265.043,78.385,265.104,87.459z"/>
	<path display="inline" fill="#010101" d="M302.795,51.711c-0.311-7.872-8.84-7.872-14.493-7.872H264.45
		c-0.068-4.067-0.132-6.572-0.132-6.572c-0.076-3.736-3.226-6.798-7.008-6.798H139.973c-3.766,0-6.92,3.063-6.982,6.801
		c0,0-0.047,2.504-0.127,6.571h-24.578c-5.654,0-14.205,0-14.497,7.885l-0.006,0.579c0,45.306,19.294,80.523,42.844,80.664
		c8.451,21.839,28.254,38.081,52.258,41.611c0.72,0.105,0.72,0.105,0.72,0.105c0.813,0.071,1.475,0.379,1.484,0.677c0,0,0,0,0,0.289
		c0,20.893-4.539,35.258-11.932,48.842h-0.019c-0.4,0.745-0.819,1.483-1.235,2.223c-7.89,13.826-18.58,25.468-30.552,26.699
		c-0.994,0.103-2.714,0.655-2.714,2.771c0,2.902,2.44,2.902,8.774,2.902h90.575c6.337,0,8.779,0,8.779-2.902
		c0-2.115-1.729-2.668-2.72-2.771c-11.973-1.231-22.655-12.876-30.549-26.699c-0.419-0.737-0.832-1.478-1.231-2.223h-0.008
		c-7.393-13.584-11.929-27.95-11.929-48.842c0-0.289,0-0.289,0-0.289c0-0.298,0.668-0.602,1.476-0.677c0,0,0,0,0.729-0.105
		c24.063-3.54,43.915-19.871,52.321-41.81c23.563-0.098,41.957-35.134,41.957-80.468L302.795,51.711z M132.59,116.401
		c-10.854-3.284-22.004-26.415-23.417-57.448h23.448c-0.134,8.998-0.273,19.432-0.326,28.506
		c-0.062,9.732-0.093,17.938-0.093,21.881C132.202,111.729,132.335,114.083,132.59,116.401z M264.841,116.116
		c0.233-2.226,0.36-4.487,0.36-6.775c0-3.934-0.034-12.146-0.1-21.881c-0.06-9.074-0.211-19.502-0.367-28.506h22.686
		C286.041,89.183,275.423,111.922,264.841,116.116z"/>
</g>
<g display="none">
	<path display="inline" fill="#010101" d="M73.148,365.891v-77.145h3.663v73.597h25.867v3.548H73.148L73.148,365.891z"/>
	<path display="inline" fill="#010101" d="M109.087,365.891v-77.145h3.548v77.145H109.087z"/>
	<path display="inline" fill="#010101" d="M123.28,292.295v33.191h24.15v3.549h-24.15v36.855h-3.548v-77.146h27.699v3.549
		L123.28,292.295L123.28,292.295z"/>
	<path display="inline" fill="#010101" d="M158.876,292.295v33.191h24.15v3.549h-24.15v33.308h24.15v3.548h-27.699v-77.145h27.699
		v3.549H158.876L158.876,292.295z"/>
	<path display="inline" fill="#010101" d="M229.952,292.295H211.41v73.48h-3.547v-73.48h-18.428v-3.663h40.517V292.295
		L229.952,292.295z"/>
	<path display="inline" fill="#010101" d="M237.393,365.891v-77.145h3.547v77.145H237.393z"/>
	<path display="inline" fill="#010101" d="M251.583,365.891h-3.549v-77.145h3.091l19.801,68.789l19.688-68.789h3.205v77.145h-3.662
		v-62.494L272.3,365.891h-2.747l-17.97-62.494V365.891L251.583,365.891z"/>
	<path display="inline" fill="#010101" d="M306.063,292.295v33.191h24.15v3.549h-24.15v33.308h24.15v3.548h-27.697v-77.145h27.697
		v3.549H306.063L306.063,292.295z"/>
</g>
<path display="none" fill="#020202" d="M200.211,186.351c-11.185,0-21.751-2.291-31.731-5.84v101.033l31.731-31.729l31.73,31.729
	V180.51C221.961,184.06,211.396,186.351,200.211,186.351z"/>
<path fill="#020202" d="M200.211,27.697c-35.049,0-63.461,28.413-63.461,63.461c0,35.048,28.413,63.461,63.461,63.461
	s63.461-28.413,63.461-63.461C263.672,56.11,235.259,27.697,200.211,27.697z M200.211,122.889
	c-17.539,0-31.731-14.208-31.731-31.731c0-17.523,14.192-31.73,31.731-31.73s31.73,14.208,31.73,31.73
	C231.941,108.68,217.75,122.889,200.211,122.889z"/>
<g display="none">
	<path display="inline" fill="#010101" d="M113.843,364.043h-2.924v-61.592h2.468l21.201,52.729v-52.729h2.924v61.592h-2.376
		l-21.293-52.729V364.043L113.843,364.043z"/>
	<path display="inline" fill="#010101" d="M156.975,364.043c-1.462,0-2.97-0.213-4.523-0.639c-1.554-0.426-2.97-1.248-4.25-2.469
		c-1.279-1.218-2.316-2.877-3.107-4.98c-0.792-2.102-1.188-4.857-1.188-8.27v-28.97c0-5.237,1.065-9.26,3.198-12.063
		c2.253-2.803,5.543-4.202,9.87-4.202c4.386,0,7.676,1.399,9.87,4.202c2.193,2.74,3.29,6.763,3.29,12.063v28.97
		c0,3.412-0.397,6.168-1.188,8.27c-0.792,2.104-1.828,3.764-3.107,4.98c-1.279,1.221-2.696,2.043-4.25,2.469
		C160.037,363.83,158.497,364.043,156.975,364.043z M156.975,305.283c-3.473,0-6.001,1.066-7.585,3.199
		c-1.768,2.254-2.65,5.666-2.65,10.233v28.97c0,4.631,0.883,8.073,2.65,10.325c1.645,2.134,4.172,3.199,7.585,3.199
		c3.35,0,5.909-1.065,7.676-3.199c1.705-2.131,2.559-5.573,2.559-10.325v-28.97c0-4.69-0.854-8.102-2.559-10.233
		C162.945,306.35,160.386,305.283,156.975,305.283z"/>
	<path display="inline" fill="#010101" d="M197.914,335.988c2.742,2.621,4.111,6.246,4.111,10.875v17.088h-2.923v-17.088
		c0-3.715-1.005-6.594-3.016-8.637c-2.01-2.039-4.843-3.062-8.499-3.062h-1.371h-6.854v28.785h-2.833v-61.593h11.058
		c4.935,0,8.544,1.324,10.829,3.976c2.285,2.649,3.427,6.776,3.427,12.383c0,5.482-1.128,9.563-3.381,12.246
		c-0.975,1.158-2.193,2.103-3.655,2.832C195.964,334.344,197,335.074,197.914,335.988z M187.588,332.242
		c4.081,0,6.975-1.035,8.681-3.107c1.828-2.193,2.742-5.666,2.742-10.418c0-4.813-0.884-8.254-2.65-10.326
		c-1.768-2.07-4.692-3.106-8.772-3.106h-8.225v26.959h6.854L187.588,332.242L187.588,332.242z"/>
	<path display="inline" fill="#010101" d="M210.799,364.043h-2.833v-61.592h2.468l15.81,54.922l15.719-54.922h2.56v61.592h-2.924
		v-49.895l-14.257,49.895h-2.192L210.8,314.148L210.799,364.043L210.799,364.043z"/>
	<path display="inline" fill="#010101" d="M254.389,364.043h-2.924l4.842-21.383v-0.275l9.322-39.934h2.285l14.072,61.592h-2.924
		l-4.203-18.824h-16.269L254.389,364.043z M266.725,310.219l-7.401,32.166h14.896L266.725,310.219z"/>
	<path display="inline" fill="#010101" d="M286.738,364.043v-61.592h2.924v58.76h20.652v2.832H286.738z"/>
</g>
<path display="none" fill="#010101" d="M268.656,91.119c-1.829-3.401-4.436-5.2-7.537-5.2c-0.457,0-0.92,0.037-1.395,0.112
	c1.926-0.737,3.35-1.985,4.211-3.729c0.914-1.833,1.191-4.124,0.844-6.812c-0.572-4.354-2.813-9.303-5.985-13.251
	c-3.364-4.188-7.269-6.585-10.706-6.585c-1.771,0-3.398,0.602-4.863,1.795c1.961-2.412,2.332-5.281,1.051-8.362
	c-1.354-3.268-4.535-6.651-8.734-9.259c-4.16-2.588-8.713-4.071-12.489-4.071c-2.173,0-4.012,0.485-5.471,1.435
	c-1.329,0.875-2.313,2.142-2.937,3.756c0.365-2.237-0.125-4.236-1.451-5.967c-2.59-3.371-8.355-5.468-15.05-5.468
	c-6.7,0-12.464,2.097-15.045,5.465c-1.33,1.732-1.818,3.73-1.456,5.967c-0.62-1.615-1.601-2.878-2.937-3.756
	c-1.453-0.953-3.295-1.436-5.471-1.436c-3.775,0-8.325,1.484-12.48,4.072c-4.199,2.621-7.389,5.992-8.74,9.262
	c-1.277,3.081-0.912,5.95,1.051,8.362c-1.469-1.194-3.094-1.795-4.857-1.795c-3.44,0-7.349,2.396-10.712,6.585
	c-3.174,3.948-5.412,8.901-5.989,13.251c-0.349,2.685-0.067,4.979,0.841,6.812c0.87,1.743,2.288,2.991,4.214,3.728
	c-0.477-0.075-0.939-0.112-1.389-0.112c-2.972,0-5.502,1.657-7.311,4.794c-3.642,6.298-3.642,17.345,0,23.638
	c1.809,3.139,4.339,4.799,7.311,4.793c0.449,0,0.912-0.037,1.389-0.111c-1.926,0.736-3.344,1.985-4.214,3.733
	c-0.908,1.833-1.192,4.118-0.841,6.809c0.577,4.354,2.815,9.303,5.989,13.251c3.363,4.183,7.263,6.58,10.712,6.58l0,0
	c1.763,0,3.389-0.602,4.857-1.793c-1.963,2.408-2.328,5.275-1.051,8.359c1.352,3.269,4.542,6.645,8.74,9.259
	c4.155,2.592,8.706,4.084,12.48,4.084c0.519,0,1.016-0.039,1.492-0.093L142.475,274.13l37.318-6.784l18.687-60.572l8.627,73.199
	l30.021-24.605l-9.407-86.711c2.57-0.665,5.266-1.838,7.814-3.425c4.197-2.614,7.382-5.985,8.74-9.259
	c1.273-3.084,0.904-5.957-1.051-8.359c1.461,1.191,3.09,1.793,4.853,1.793c3.444,0,7.353-2.395,10.717-6.583
	c3.173-3.948,5.411-8.901,5.981-13.251c0.35-2.688,0.074-4.979-0.846-6.806c-0.861-1.748-2.279-2.997-4.211-3.733
	c0.475,0.075,0.942,0.111,1.389,0.111c0.007,0,0.007,0,0.007,0c3.104,0,5.713-1.801,7.542-5.206
	c1.617-3.008,2.497-7.065,2.497-11.409C271.156,98.179,270.266,94.127,268.656,91.119z"/>
<g display="none">
	<path display="inline" fill="#010101" d="M125.252,365.4c-4.818,0-8.432-1.537-10.841-4.617c-2.409-2.875-3.613-7.293-3.613-13.25
		v-1.506h3.112v1.506c0,3.348,0.367,5.99,1.104,7.93c0.735,1.943,1.656,3.414,2.76,4.418s2.324,1.656,3.664,1.957
		c1.337,0.301,2.609,0.451,3.814,0.451c3.614,0,6.407-1.254,8.382-3.764c1.973-2.51,2.961-6.006,2.961-10.49
		c0-2.408-0.419-4.432-1.255-6.072c-0.837-1.639-1.841-2.994-3.011-4.064c-1.171-1.069-2.393-1.907-3.664-2.51
		c-1.272-0.604-2.309-1.07-3.112-1.406l-1.707-0.703c-1.003-0.399-2.243-0.985-3.714-1.756c-1.473-0.768-2.895-1.84-4.266-3.211
		c-1.372-1.371-2.56-3.078-3.563-5.121c-1.003-2.039-1.505-4.53-1.505-7.477c0-5.086,1.17-9.268,3.513-12.549
		c2.676-3.613,6.324-5.42,10.941-5.42c4.751,0,8.397,1.574,10.941,4.719c2.409,3.012,3.613,7.428,3.613,13.25v1.605h-3.212v-1.605
		c0-5.086-0.971-8.867-2.911-11.344c-1.807-2.273-4.617-3.412-8.432-3.412c-3.613,0-6.391,1.371-8.331,4.115
		c-2.008,2.744-3.011,6.291-3.011,10.641c0,2.408,0.401,4.451,1.204,6.123c0.803,1.672,1.79,3.078,2.961,4.215
		c1.17,1.139,2.392,2.043,3.664,2.711c1.271,0.67,2.409,1.203,3.413,1.605l1.606,0.703c0.869,0.336,2.041,0.854,3.513,1.555
		c1.471,0.703,2.911,1.707,4.316,3.012c1.405,1.305,2.625,2.961,3.664,4.969c1.037,2.008,1.556,4.484,1.556,7.429
		c0,5.02-1.204,9.102-3.613,12.245C133.583,363.695,129.936,365.4,125.252,365.4z"/>
	<path display="inline" fill="#010101" d="M147.033,365.502v-67.654h3.112v67.654H147.033z"/>
	<path display="inline" fill="#010101" d="M156.066,365.502v-67.654h3.212v64.543h22.685v3.111H156.066z"/>
	<path display="inline" fill="#010101" d="M221.613,297.746L204.648,365.4h-2.408l-16.964-67.654h3.212l14.958,59.625l14.854-59.625
		H221.613z"/>
	<path display="inline" fill="#010101" d="M229.643,300.959v29.109h21.18v3.111h-21.18v29.211h21.18v3.11h-24.293v-67.653h24.291
		v3.11L229.643,300.959L229.643,300.959z"/>
	<path display="inline" fill="#010101" d="M280.533,334.686c3.011,2.879,4.517,6.859,4.517,11.945v18.77h-3.212v-18.77
		c0-4.082-1.104-7.244-3.313-9.486c-2.209-2.239-5.32-3.362-9.336-3.362h-1.506h-7.527V365.4h-3.111v-67.654h12.146
		c5.42,0,9.385,1.455,11.895,4.367c2.51,2.91,3.766,7.445,3.766,13.602c0,6.021-1.24,10.506-3.715,13.449
		c-1.07,1.273-2.408,2.309-4.016,3.113C278.391,332.879,279.529,333.682,280.533,334.686z M269.189,330.57
		c4.482,0,7.662-1.137,9.537-3.414c2.006-2.408,3.01-6.223,3.01-11.441c0-5.287-0.971-9.068-2.91-11.344
		c-1.941-2.273-5.153-3.412-9.637-3.412h-9.033v29.611h7.527H269.189z"/>
</g>
<g>
	<path d="M140.302,368.061h-9.321v-59.287h9.321c4.322,0,7.538,1.407,9.645,4.222c1.998,2.581,2.999,6.51,2.999,11.787v27.269
		c0,5.278-1,9.208-2.999,11.787C147.839,366.653,144.624,368.061,140.302,368.061z M133.494,365.334h6.808
		c3.512,0,6.065-1.069,7.659-3.211c1.593-2.14,2.391-5.498,2.391-10.072v-27.269c0-4.574-0.798-7.931-2.391-10.071
		c-1.594-2.141-4.147-3.211-7.659-3.211h-6.808V365.334z"/>
	<path d="M170.614,368.061c-1.297,0-2.634-0.205-4.012-0.616c-1.378-0.409-2.634-1.201-3.769-2.375
		c-1.134-1.172-2.054-2.771-2.755-4.794c-0.703-2.022-1.054-4.676-1.054-7.96v-27.885c0-5.043,0.945-8.913,2.837-11.611
		c1.998-2.696,4.916-4.046,8.753-4.046c3.89,0,6.808,1.35,8.753,4.046c1.945,2.639,2.917,6.51,2.917,11.611v27.885
		c0,3.284-0.352,5.938-1.054,7.96c-0.703,2.023-1.621,3.622-2.755,4.794c-1.135,1.174-2.391,1.966-3.769,2.375
		C173.329,367.855,171.963,368.061,170.614,368.061z M170.614,311.5c-3.08,0-5.323,1.026-6.728,3.079
		c-1.568,2.17-2.35,5.453-2.35,9.852v27.885c0,4.457,0.782,7.771,2.35,9.939c1.459,2.054,3.701,3.079,6.728,3.079
		c2.971,0,5.24-1.025,6.808-3.079c1.512-2.052,2.269-5.365,2.269-9.939v-27.885c0-4.515-0.757-7.799-2.269-9.852
		C175.908,312.526,173.639,311.5,170.614,311.5z"/>
	<path d="M190.39,368.061h-2.594v-59.287h2.188l18.804,50.755v-50.755h2.594v59.287h-2.107l-18.885-50.755V368.061z"/>
	<path d="M228.644,368.061c-1.297,0-2.634-0.205-4.012-0.616c-1.378-0.409-2.634-1.201-3.769-2.375
		c-1.135-1.172-2.055-2.771-2.756-4.794c-0.703-2.022-1.054-4.676-1.054-7.96v-27.885c0-5.043,0.944-8.913,2.837-11.611
		c1.998-2.696,4.916-4.046,8.753-4.046c3.891,0,6.809,1.35,8.754,4.046c1.945,2.639,2.918,6.51,2.918,11.611v27.885
		c0,3.284-0.353,5.938-1.054,7.96c-0.703,2.023-1.621,3.622-2.756,4.794c-1.135,1.174-2.392,1.966-3.769,2.375
		C231.359,367.855,229.994,368.061,228.644,368.061z M228.644,311.5c-3.08,0-5.322,1.026-6.727,3.079
		c-1.568,2.17-2.351,5.453-2.351,9.852v27.885c0,4.457,0.782,7.771,2.351,9.939c1.459,2.054,3.7,3.079,6.727,3.079
		c2.972,0,5.24-1.025,6.809-3.079c1.512-2.052,2.27-5.365,2.27-9.939v-27.885c0-4.515-0.758-7.799-2.27-9.852
		C233.938,312.526,231.669,311.5,228.644,311.5z"/>
	<path d="M264.953,341.056c2.432,2.522,3.647,6.012,3.647,10.468v16.449h-2.594v-16.449c0-3.576-0.892-6.348-2.675-8.313
		c-1.783-1.964-4.296-2.947-7.538-2.947h-1.216H248.5v27.709h-2.513v-59.287h9.807c4.377,0,7.578,1.275,9.604,3.826
		s3.04,6.524,3.04,11.919c0,5.277-1.001,9.207-2.999,11.787c-0.865,1.114-1.945,2.023-3.242,2.727
		C263.223,339.473,264.143,340.176,264.953,341.056z M255.794,337.449c3.62,0,6.187-0.996,7.7-2.991
		c1.621-2.11,2.432-5.453,2.432-10.027c0-4.632-0.784-7.945-2.351-9.94c-1.568-1.992-4.161-2.99-7.781-2.99H248.5v25.949h6.078
		H255.794z"/>
</g>
</svg>
