<?xml version="1.0" encoding="utf-8"?>
<!-- Generator: Adobe Illustrator 16.0.3, SVG Export Plug-In . SVG Version: 6.00 Build 0)  -->
<!DOCTYPE svg PUBLIC "-//W3C//DTD SVG 1.1//EN" "http://www.w3.org/Graphics/SVG/1.1/DTD/svg11.dtd">
<svg version="1.1" id="Layer_1" xmlns="http://www.w3.org/2000/svg" xmlns:xlink="http://www.w3.org/1999/xlink" x="0px" y="0px"
	 width="800px" height="800px" viewBox="0 0 800 800" enable-background="new 0 0 800 800" xml:space="preserve">
<g id="Layer_1_1_">
	<g>
		<path fill="#FFFFFF" stroke="#000000" stroke-width="3" stroke-miterlimit="10" d="M196,425.96c0-7.999,0-15.998,0-23.997
			c5.966-0.355,11.929-0.828,17.901-1.045c6.885-0.25,12.854-2.482,16.731-8.327c6.094-9.188,7.375-19.511,3.357-29.526
			c-2.543-6.341-1.399-12.223-1.877-18.987c2.326,0,4.113-0.003,5.9,0c15.153,0.029,30.314,0.31,45.456-0.1
			c3.445-0.093,7.89-1.639,10.054-4.111c9.646-11.014,18.407-22.706,22.475-37.21c1.673-5.967,4.625-10.267,12.061-10.869
			c11.571-0.938,23.021-3.316,34.571-4.621c3.57-0.403,6.046-1.393,8.432-4.167c20.851-24.233,41.891-48.299,62.813-72.467
			c30.722-35.488,61.394-71.02,92.087-106.534c1,0,1.999,0,2.999,0c0.595,0.262,1.174,0.702,1.787,0.759
			c15.411,1.433,30.828,2.79,46.237,4.235c15.734,1.477,31.47,2.996,47.188,4.621c1.461,0.151,2.83,1.2,4.242,1.832
			c-0.736,1.234-1.283,2.645-2.239,3.676c-10.759,11.606-21.588,23.147-32.381,34.721c-5.875,6.3-11.717,12.631-17.75,19.138
			c1.852,1.566,3.324,2.87,4.857,4.102c19.624,15.766,41.804,26.59,66.073,32.788c14.622,3.734,29.623,5.963,44.4,9.12
			c13.314,2.845,20.754,11.477,19.451,23.066c-0.465,4.131-2.358,8.315-4.423,12.017c-8.5,15.248-19.732,28.47-32.081,40.656
			c-14.823,14.628-30.282,28.68-48.533,38.969c-8.158,4.599-17.245,7.549-26.369,11.444c2.705,0.258,5.136,0.669,7.569,0.694
			c39.646,0.407,79.293,0.765,118.938,1.133c0,12.332,0,24.663,0,36.995c-0.313,10.969-0.616,21.938-0.942,32.906
			c-0.039,1.322-0.003,3.738-0.332,3.797c-4.887,0.876-3.355,5.213-4.516,8.649c-8.622,0-17.2,0-25.715,0
			c-1.061,3.813-2.058,7.403-3.088,11.113c-1.406,0.188-2.715,0.345-4.019,0.529c-11.088,1.6-20.48,10.545-21.204,20.768
			c-2.133,30.152-4.108,60.316-6.05,90.482c-0.47,7.283-0.295,7.294-7.589,7.966c3.905,2.299,4.108,5.023,0.701,8.102
			c-1.094,0.984-2.754,2.152-2.832,3.324c-0.444,6.74-5.019,5.927-9.358,5.354c-7.199-0.947-9.159-5.771-4.929-11.596
			c1.212-1.667,2.104-3.565,3.81-6.511c-5.137,1.247-5.021-1.437-4.98-4.104c0.104-6.966,0.564-13.953,0.2-20.896
			c-1.22-23.278-3.101-46.529-3.979-69.82c-0.412-10.895-8.048-23.222-20.277-25.86c-2.973-0.644-4.289-1.804-4.292-4.882
			c-0.003-3.289-1.823-3.839-4.641-2.546c-1.946,0.894-3.961,1.802-6.04,2.203c-2.729,0.523-5.554,0.56-8.874,0.854
			c-1.395,5.793-2.724,11.325-4.169,17.351c-10.487,0.469-21.565,0.962-33.137,1.477c1.291,7.58-2.572,9.445-8.902,10.729
			c-11.73,2.383-21.634,8.33-25.864,20.324c-1.929,5.469-2.691,11.473-3.19,17.299c-2.388,27.866-4.542,55.755-6.653,83.646
			c-0.21,2.771,0.584,5.602,0.616,8.408c0.098,7.581,0.032,15.163,0.032,22.595c-4.329,0.616-7.279,1.036-10.229,1.456
			c-0.013,0.165-0.021,0.33-0.029,0.495c1.534,0.279,3.067,0.562,4.664,0.854c0.429,3.892,0.438,6.979-3.132,9.438
			c-1.669,1.146-2.813,3.75-3.23,5.883c-0.915,4.67-3.904,5.905-7.944,5.589c-2.291-0.179-4.616-0.725-6.785-1.5
			c-5.227-1.864-7.182-7.386-4.38-12.105c1.841-3.104,3.829-6.122,6.034-9.632c-6.103,0.16-6.678-3.645-6.582-7.916
			c0.218-9.944,1.104-19.931,0.554-29.832c-1.615-28.925-3.88-57.812-5.711-86.725c-0.438-6.913-4.943-11.335-8.529-17.253
			c-0.711,1.821-1.127,2.723-1.419,3.662c-9.021,29.034-18.214,58.016-26.948,87.137c-3.574,11.917-6.088,24.149-9.252,36.195
			c-0.442,1.686-1.729,4.37-2.817,4.468c-7.052,0.634-14.18,1.149-21.234,0.792c-7.382-0.371-14.717-1.725-22.063-2.747
			c-1.537-0.214-3.056-0.754-4.513-1.32c-1.306-0.51-2.479-1.736-3.771-1.832c-7.547-0.547-15.107-0.849-22.662-1.271
			c-0.179-0.01-0.325-0.495-1.07-1.705c6.589-1.097,12.787-2.128,19.458-3.236c0-2.576,0.265-5.065-0.051-7.479
			c-0.875-6.694,3.205-11.878,9.224-12.049c0-34.621,0-69.229,0-104.026c-8.293-0.854-15.836-1.638-23.536-2.434
			c-0.263-4.053-0.505-7.781-0.745-11.491c-4.235-0.409-7.929-0.513-11.512-1.189c-2.895-0.547-5.603-2.262-8.495-2.604
			c-4.671-0.563-10.292-2.089-13.943-0.192c-5.829,3.026-9.938,8.93-10.368,16.114c-1.979,33.19-3.855,66.388-5.676,99.588
			c-0.406,7.412-0.235,7.416-7.371,8.901c-0.23,0.048-0.381,0.48-0.563,0.741c3.234,1.547,3.76,4.684,1.577,7.175
			c-1.754,2.001-3.464,4.263-4.388,6.712c-1.086,2.879-2.72,5.142-5.649,4.423c-3.649-0.896-7.548-2.311-10.26-4.715
			c-1.032-0.916,0.651-5.308,1.609-7.927c0.789-2.153,2.334-4.033,4.157-7.052c-6.061,0.374-6.092-3.019-6.029-6.325
			c0.146-7.629,0.976-15.289,0.501-22.873c-1.602-25.59-3.78-51.141-5.467-76.725c-0.666-10.087-5.845-16.923-14.58-20.792
			c-5.065-2.243-10.867-2.829-16.341-4.145c-0.951-0.229-2.655-0.165-2.776-0.59c-1.807-6.34-7.196-3.981-11.152-4.497
			c-7.733-1.011-15.534-1.487-22.562-2.118C198.371,434.218,197.185,430.089,196,425.96z M421.678,586.084
			c0.525-0.145,1.051-0.29,1.576-0.435c0.214-0.438,0.49-0.854,0.632-1.313c11.147-36.153,22.232-72.325,33.511-108.438
			c0.99-3.177-0.03-4.636-2.459-6.011c-7.639-4.325-15.901-6.12-25.118-6.425c0,2.991,0,5.732,0,8.527
			c-3.23,0.559-5.979,1.034-8.724,1.51c2.834,2.149,6.572,2.827,3.95,7.438c-4.44-0.612-5.954,1.105-5.899,5.786
			c0.367,30.953,0.379,61.909,0.65,92.863C419.816,581.761,421.023,583.92,421.678,586.084z M388.727,575.557
			c1.177-0.973,2.218-1.395,2.382-2.039c1.422-5.601,3.723-11.224,3.815-16.874c0.407-24.124,0.045-48.261,0.221-72.392
			c0.034-4.609-1.547-5.97-6.418-4.83C388.727,511.102,388.727,542.828,388.727,575.557z M412.52,580.324
			c5.142,0.824,5.382-1.666,5.359-4.922c-0.162-27.128-0.207-54.256-0.301-81.387c-0.004-1.188-0.137-2.376-0.21-3.563
			c-0.607,0.005-1.216,0.01-1.823,0.014C410.727,520.186,414.339,550.252,412.52,580.324z M397.867,482.329
			c-0.175-0.021-0.353-0.043-0.525-0.063c0,22.41,0,44.819,0,67.229c0.175-0.002,0.354-0.003,0.525-0.004
			C397.867,527.104,397.867,504.717,397.867,482.329z M397.333,579.533c0.233-0.025,0.466-0.05,0.7-0.074c0-6.502,0-13.004,0-19.506
			c-0.233,0.016-0.466,0.029-0.7,0.045C397.333,566.51,397.333,573.021,397.333,579.533z"/>
	</g>
	<line fill="none" stroke="#000000" stroke-width="5" stroke-miterlimit="10" x1="397.009" y1="536" x2="397" y2="560"/>
	<line fill="none" stroke="#000000" stroke-miterlimit="10" x1="202.75" y1="419.75" x2="408.25" y2="432.75"/>
	<line fill="none" stroke="#000000" stroke-miterlimit="10" x1="202.75" y1="401.529" x2="202.75" y2="426.506"/>
	<line fill="none" stroke="#000000" stroke-miterlimit="10" x1="408.25" y1="412.584" x2="408.25" y2="443.111"/>
	<line fill="none" stroke="#000000" stroke-miterlimit="10" x1="419.25" y1="444" x2="196" y2="425.96"/>
	<line fill="none" stroke="#000000" stroke-miterlimit="10" x1="419.25" y1="412.584" x2="419.25" y2="459.25"/>
	<line fill="none" stroke="#000000" stroke-miterlimit="10" x1="419.25" y1="459.25" x2="199.725" y2="438.936"/>
	<line fill="none" stroke="#000000" stroke-miterlimit="10" x1="418.635" y1="459.193" x2="548.5" y2="452.125"/>
	<line fill="none" stroke="#000000" stroke-miterlimit="10" x1="605" y1="429.75" x2="724.656" y2="420.668"/>
	<line fill="none" stroke="#000000" stroke-miterlimit="10" x1="585.752" y1="438.936" x2="419.25" y2="444"/>
	<line fill="none" stroke="#000000" stroke-miterlimit="10" x1="419.25" y1="436.875" x2="587.5" y2="432.75"/>
	<line fill="none" stroke="#000000" stroke-miterlimit="10" x1="419.25" y1="413" x2="445.334" y2="411.5"/>
	<path fill="none" stroke="#000000" stroke-miterlimit="10" d="M462.67,375.166c0,20.083-7.754,36.334-17.336,36.334"/>
	<path fill="none" stroke="#000000" stroke-miterlimit="10" d="M462.67,376.167c0-7.427-1.642-13.437-3.67-13.437"/>
	<path fill="none" stroke="#000000" stroke-miterlimit="10" d="M452.867,375.166c0,19.662-7.754,35.572-17.336,35.572"/>
	<path fill="none" stroke="#000000" stroke-miterlimit="10" d="M452.867,376.167c0-7.264-1.791-13.14-4.004-13.14"/>
	<line fill="none" stroke="#000000" stroke-miterlimit="10" x1="436.336" y1="410.697" x2="407.916" y2="413"/>
	<path fill="none" stroke="#000000" stroke-miterlimit="10" d="M242.493,365.138c0,19.36-8.571,35.029-19.16,35.029"/>
	<path fill="none" stroke="#000000" stroke-miterlimit="10" d="M242.578,366.807c0-5.559-2.16-10.057-4.828-10.057"/>
	<line fill="none" stroke="#000000" stroke-miterlimit="10" x1="448.863" y1="363.027" x2="449.5" y2="363.027"/>
	<line fill="none" stroke="#000000" stroke-miterlimit="10" x1="237.75" y1="344.667" x2="237.75" y2="357.167"/>
	<line fill="none" stroke="#000000" stroke-miterlimit="10" x1="237.75" y1="356.75" x2="448.979" y2="358.333"/>
	<line fill="none" stroke="#000000" stroke-miterlimit="10" x1="448.863" y1="363.027" x2="241.648" y2="360.887"/>
	<line fill="none" stroke="#000000" stroke-miterlimit="10" x1="448.863" y1="343.625" x2="448.863" y2="363.027"/>
	<line fill="none" stroke="#000000" stroke-miterlimit="10" x1="459" y1="363.148" x2="459" y2="343.625"/>
	<line fill="none" stroke="#000000" stroke-miterlimit="10" x1="459.803" y1="343.625" x2="448.398" y2="343.625"/>
	<line fill="none" stroke="#000000" stroke-miterlimit="10" x1="237.75" y1="347.333" x2="448.863" y2="348"/>
	<line fill="none" stroke="#000000" stroke-miterlimit="10" x1="459" y1="343.625" x2="596.5" y2="345.625"/>
	<line fill="none" stroke="#000000" stroke-miterlimit="10" x1="605.75" y1="345.625" x2="605.783" y2="429.69"/>
	<line fill="none" stroke="#000000" stroke-miterlimit="10" x1="595" y1="345.625" x2="595" y2="432.75"/>
	<path fill="none" stroke="#000000" stroke-miterlimit="10" d="M444.857,289.471c-0.17-3.355-35.742-4.281-79.533-2.07"/>
	<path fill="none" stroke="#000000" stroke-miterlimit="10" d="M434.182,308.544c-7.039,17.722-8.684,33.673-3.675,35.662"/>
	<path fill="none" stroke="#000000" stroke-miterlimit="10" d="M434.182,308.544c4.09-9.835,8.261-17.437,9.318-16.996"/>
	<line fill="none" stroke="#000000" stroke-miterlimit="10" x1="430" y1="344.206" x2="429.5" y2="347.667"/>
	<path fill="none" stroke="#000000" stroke-miterlimit="10" d="M437.216,309.185c-6.896,17.368-8.43,33.032-3.423,35.021"/>
	<line fill="none" stroke="#000000" stroke-miterlimit="10" x1="433.287" y1="344.206" x2="432.787" y2="347.667"/>
	<path fill="none" stroke="#000000" stroke-miterlimit="10" d="M436.65,310.776c4.09-9.835,8.257-17.437,9.315-16.996"/>
	<g>
		<polygon points="568.53,345.405 500.333,167 569.464,345.045 		"/>
	</g>
	<line fill="none" stroke="#000000" stroke-miterlimit="10" x1="551.667" y1="344.973" x2="542.333" y2="317"/>
	<line fill="none" stroke="#000000" stroke-miterlimit="10" x1="542.363" y1="317.308" x2="542.916" y2="310.287"/>
	<g>
		<polygon points="542.525,310.934 496.333,169.667 543.475,310.619 		"/>
	</g>
	<path fill="none" stroke="#000000" stroke-miterlimit="10" d="M444.655,289.029c0.341,1.01-0.371,2.161-1.593,2.573"/>
	<path fill="none" stroke="#000000" stroke-miterlimit="10" d="M444.81,289.391c1.258,2.015,1.466,4.147,0.471,4.766"/>
	<line fill="none" stroke="#000000" stroke-miterlimit="10" x1="215.263" y1="411.167" x2="215.263" y2="416.417"/>
	<line fill="none" stroke="#000000" stroke-miterlimit="10" x1="215.263" y1="416.742" x2="405" y2="428.834"/>
	<line fill="none" stroke="#000000" stroke-miterlimit="10" x1="405" y1="429.25" x2="405" y2="420.917"/>
	<line fill="none" stroke="#000000" stroke-miterlimit="10" x1="405.5" y1="420.917" x2="215.263" y2="411.674"/>
	<line fill="none" stroke="#000000" stroke-miterlimit="10" x1="280.5" y1="467.833" x2="282.167" y2="575.833"/>
	<line fill="none" stroke="#000000" stroke-miterlimit="10" x1="280" y1="575.859" x2="291.647" y2="577.613"/>
	<path fill="none" stroke="#000000" stroke-miterlimit="10" d="M280.5,468.604c0-10.923-14.461-19.761-32.333-19.761"/>
	<line fill="none" stroke="#000000" stroke-miterlimit="10" x1="486.002" y1="484.863" x2="487.945" y2="615.529"/>
	<path fill="none" stroke="#000000" stroke-miterlimit="10" d="M486.002,484.863c0-10.61-17.594-19.196-39.336-19.196"/>
	<line fill="none" stroke="#000000" stroke-miterlimit="10" x1="482.63" y1="615.126" x2="495.689" y2="616.37"/>
	<line fill="none" stroke="#000000" stroke-miterlimit="10" x1="646.667" y1="558.334" x2="646.667" y2="456.833"/>
	<path fill="none" stroke="#000000" stroke-miterlimit="10" d="M646.667,456.833c0-9.212,10.585-16.666,23.667-16.666"/>
	<line fill="none" stroke="#000000" stroke-miterlimit="10" x1="670.334" y1="440.167" x2="691.341" y2="440.434"/>
	<line fill="none" stroke="#000000" stroke-miterlimit="10" x1="641.334" y1="557.5" x2="650.334" y2="559.167"/>
	<line fill="none" stroke="#000000" stroke-miterlimit="10" x1="380.25" y1="477.25" x2="380.25" y2="576.961"/>
	<line fill="none" stroke="#000000" stroke-miterlimit="10" x1="380.25" y1="477.25" x2="391.25" y2="478.25"/>
	<line fill="none" stroke="#000000" stroke-miterlimit="10" x1="428.75" y1="471.75" x2="405" y2="474.25"/>
	<line fill="none" stroke="#000000" stroke-miterlimit="10" x1="373.294" y1="469.905" x2="405" y2="474.149"/>
	<line fill="none" stroke="#000000" stroke-miterlimit="10" x1="405" y1="474.25" x2="403.75" y2="581.222"/>
	<line fill="none" stroke="#000000" stroke-miterlimit="10" x1="373.022" y1="575.856" x2="387.478" y2="578.188"/>
	<line fill="none" stroke="#000000" stroke-miterlimit="10" x1="396.506" y1="580.646" x2="414.125" y2="581.513"/>
	<line fill="none" stroke="#000000" stroke-miterlimit="10" x1="364.125" y1="582.313" x2="404.125" y2="591.813"/>
	<line fill="none" stroke="#000000" stroke-miterlimit="10" x1="424.125" y1="586.313" x2="403.75" y2="591.813"/>
	<line fill="none" stroke="#000000" stroke-miterlimit="10" x1="404.125" y1="591.813" x2="404.125" y2="607.188"/>
	<line fill="none" stroke="#000000" stroke-miterlimit="10" x1="405" y1="420.917" x2="407.916" y2="420.668"/>
	<line fill="none" stroke="#000000" stroke-miterlimit="10" x1="405" y1="428.834" x2="407.916" y2="428.5"/>
	<line fill="none" stroke="#000000" stroke-miterlimit="10" x1="215.625" y1="411.674" x2="242.493" y2="408.5"/>
	<line fill="none" stroke="#000000" stroke-miterlimit="10" x1="242.493" y1="408.5" x2="407.916" y2="415.917"/>
	<line fill="none" stroke="#000000" stroke-miterlimit="10" x1="242.578" y1="366.807" x2="242.493" y2="408.5"/>
	<line fill="none" stroke="#000000" stroke-miterlimit="10" x1="202.75" y1="419.75" x2="215.263" y2="416.742"/>
	<g>
		<path d="M318.457,393.098c-0.068,0.134-0.15,0.266-0.246,0.396c-0.096,0.129-0.213,0.235-0.351,0.319
			c-0.142,0.085-0.282,0.145-0.435,0.181c-0.146,0.035-0.292,0.083-0.431,0.144c-0.194,0.074-0.396,0.13-0.601,0.168
			c-0.203,0.038-0.41,0.047-0.617,0.024s-0.41-0.07-0.608-0.144c-0.198-0.073-0.375-0.181-0.531-0.321
			c-0.153-0.14-0.28-0.304-0.382-0.491c-0.099-0.187-0.169-0.381-0.211-0.582c-0.042-0.209-0.06-0.416-0.054-0.62
			s0.032-0.405,0.077-0.604c0.046-0.215,0.101-0.413,0.16-0.596c0.019-0.048,0.033-0.095,0.054-0.143
			c0.018-0.048,0.034-0.095,0.052-0.143c0.025-0.048,0.051-0.093,0.076-0.136c0.023-0.044,0.051-0.089,0.076-0.136
			c0.101-0.182,0.213-0.353,0.333-0.513c0.121-0.161,0.251-0.315,0.392-0.464c0.281-0.296,0.592-0.559,0.938-0.789
			c0.343-0.23,0.72-0.384,1.129-0.46c0.021-0.007,0.046,0,0.063,0.021c0.021,0.02,0.029,0.038,0.028,0.055
			c-0.001,0.04-0.026,0.066-0.074,0.082c-0.402,0.076-0.771,0.233-1.112,0.472c-0.339,0.239-0.646,0.506-0.93,0.802
			c-0.14,0.156-0.269,0.316-0.385,0.481c-0.117,0.165-0.222,0.338-0.315,0.519c-0.093,0.182-0.168,0.37-0.226,0.564
			c-0.058,0.194-0.105,0.392-0.146,0.59c-0.027,0.199-0.037,0.401-0.026,0.605c0.011,0.205,0.044,0.399,0.103,0.585
			c0.062,0.194,0.147,0.372,0.27,0.536s0.262,0.296,0.427,0.396c0.172,0.117,0.354,0.196,0.552,0.237
			c0.194,0.042,0.395,0.058,0.592,0.048c0.208-0.011,0.408-0.046,0.601-0.108c0.188-0.063,0.378-0.14,0.563-0.23
			c0.125-0.164,0.273-0.305,0.444-0.42c0.099-0.077,0.205-0.142,0.316-0.195c0.112-0.053,0.217-0.125,0.308-0.219
			c0.032-0.03,0.065-0.033,0.102-0.009C318.464,393.025,318.474,393.058,318.457,393.098z M329.285,379.278
			c-0.809,1.586-1.479,3.111-2.019,4.576c-0.231,0.626-0.446,1.268-0.644,1.927c-0.195,0.658-0.347,1.299-0.457,1.92
			s-0.165,1.209-0.165,1.766c0,0.556,0.085,1.045,0.258,1.466c-0.1-0.139-0.297-0.309-0.592-0.509
			c-0.294-0.201-0.656-0.407-1.087-0.62c-0.43-0.212-0.914-0.42-1.452-0.623c-0.539-0.204-1.1-0.379-1.684-0.523
			s-1.18-0.248-1.78-0.309c-0.604-0.062-1.188-0.057-1.753,0.016c-0.566,0.071-1.101,0.219-1.599,0.44
			c-0.498,0.222-0.938,0.544-1.317,0.964c0.311-0.486,0.673-0.879,1.09-1.175c0.417-0.296,0.861-0.52,1.334-0.67
			c0.474-0.15,0.965-0.24,1.479-0.27c0.513-0.029,1.021-0.017,1.521,0.037c0.502,0.055,0.993,0.139,1.469,0.253
			c0.479,0.113,0.914,0.232,1.313,0.356c0.396,0.122,0.748,0.246,1.052,0.371c0.305,0.125,0.536,0.222,0.694,0.29l-0.015-0.012
			c0.031-0.231,0.07-0.49,0.119-0.777c0.047-0.246,0.103-0.537,0.157-0.872c0.058-0.334,0.132-0.704,0.224-1.11
			c-0.263,0.273-0.573,0.494-0.937,0.664s-0.781,0.248-1.261,0.234c-0.543-0.016-0.959-0.126-1.245-0.33
			c-0.287-0.204-0.464-0.487-0.534-0.85c-0.07-0.363-0.035-0.796,0.104-1.3c0.141-0.504,0.358-1.068,0.66-1.691
			c0.305-0.623,0.684-1.295,1.141-2.015c0.457-0.72,0.973-1.475,1.548-2.267l0.883,0.577c-0.944,1.382-1.679,2.613-2.207,3.694
			c-0.222,0.467-0.409,0.921-0.562,1.365c-0.153,0.443-0.236,0.841-0.25,1.193c-0.018,0.352,0.062,0.638,0.227,0.858
			c0.165,0.22,0.457,0.338,0.873,0.35c0.367,0.011,0.697-0.108,0.989-0.356c0.291-0.248,0.545-0.556,0.764-0.926
			c0.128-0.54,0.276-1.109,0.445-1.704c0.169-0.596,0.358-1.192,0.571-1.79c0.216-0.599,0.447-1.184,0.705-1.757
			c0.258-0.572,0.54-1.111,0.853-1.614L329.285,379.278z M317.969,388.342c0.019,0,0.088-0.021,0.217-0.06
			c0.133-0.041,0.271-0.09,0.427-0.15l0.604-0.223c0.545-0.04,1.155,0.046,1.829,0.257c0.285,0.097,0.604,0.221,0.949,0.375
			c0.348,0.154,0.721,0.355,1.118,0.603c0.396,0.248,0.814,0.544,1.259,0.889c0.442,0.345,0.905,0.757,1.387,1.234
			c-0.692-0.596-1.374-1.084-2.035-1.463c-0.66-0.379-1.278-0.678-1.856-0.894c-0.578-0.217-1.108-0.368-1.589-0.454
			c-0.481-0.086-0.896-0.139-1.238-0.156c-0.343-0.018-0.61-0.016-0.798,0.008C318.051,388.33,317.961,388.342,317.969,388.342z
			 M324.957,378.674c-0.008,0-0.038,0.044-0.088,0.13c-0.05,0.087-0.11,0.196-0.178,0.331c-0.068,0.135-0.145,0.278-0.226,0.432
			c-0.081,0.154-0.151,0.294-0.222,0.42c-0.068,0.126-0.123,0.23-0.165,0.313s-0.063,0.12-0.063,0.112
			c0-0.008-0.075,0.06-0.231,0.203c-0.156,0.144-0.351,0.347-0.576,0.608c-0.228,0.261-0.473,0.574-0.735,0.938
			c-0.263,0.364-0.502,0.758-0.718,1.181c-0.216,0.421-0.389,0.865-0.519,1.329c-0.129,0.465-0.18,0.934-0.146,1.406
			c-0.067-0.354-0.064-0.729,0.009-1.128c0.075-0.397,0.197-0.805,0.365-1.22s0.372-0.828,0.612-1.237
			c0.24-0.409,0.489-0.8,0.748-1.173c0.258-0.373,0.517-0.722,0.771-1.047c0.261-0.324,0.488-0.604,0.69-0.838
			s0.366-0.42,0.49-0.557C324.907,378.743,324.965,378.675,324.957,378.674z"/>
		<path d="M329.587,380.021c0.063-0.111,0.146-0.217,0.262-0.317c0.116-0.1,0.252-0.157,0.413-0.169
			c0.152-0.011,0.294,0.012,0.424,0.066c0.134,0.057,0.258,0.105,0.375,0.149c0.332,0.146,0.615,0.352,0.854,0.618
			c0.237,0.268,0.435,0.555,0.594,0.864c0.075,0.162,0.143,0.323,0.196,0.485c0.056,0.162,0.096,0.335,0.124,0.52
			c0.019,0.169,0.02,0.345,0.003,0.528c-0.02,0.184-0.081,0.354-0.189,0.511c-0.1,0.158-0.246,0.266-0.438,0.324
			c-0.089,0.029-0.178,0.051-0.27,0.063c-0.089,0.014-0.181,0.012-0.273-0.008c-0.199-0.029-0.363-0.102-0.492-0.218
			s-0.247-0.255-0.354-0.419c-0.226-0.278-0.42-0.39-0.584-0.335c-0.165,0.056-0.322,0.249-0.475,0.581
			c-0.147,0.332-0.305,0.787-0.466,1.367c-0.161,0.579-0.34,1.259-0.539,2.037l1.843-3.14c0.008-0.024,0.021-0.05,0.027-0.077
			c0.008-0.028,0.017-0.058,0.023-0.09l1.082,0.799c-0.066,0.143-0.151,0.331-0.257,0.563c-0.103,0.233-0.202,0.486-0.297,0.76
			c-0.096,0.273-0.182,0.553-0.258,0.839c-0.077,0.286-0.126,0.553-0.149,0.801c-0.021,0.247-0.016,0.459,0.024,0.636
			c0.039,0.178,0.127,0.292,0.266,0.344c0.141,0.053,0.333,0.03,0.584-0.066c0.25-0.098,0.577-0.296,0.979-0.597
			c-0.551,0.528-1.042,0.887-1.471,1.074c-0.433,0.188-0.769,0.188-1.012,0.001c-0.24-0.187-0.373-0.573-0.392-1.157
			c-0.021-0.585,0.113-1.39,0.397-2.414l-1.66,3.11l-0.022-0.073c0,0.017-0.003,0.026-0.007,0.03
			c-0.004,0.004-0.006,0.01-0.006,0.018l-1.035-0.75c0.327-1.64,0.688-2.941,1.085-3.906c0.164-0.412,0.346-0.771,0.546-1.077
			c0.201-0.306,0.411-0.5,0.629-0.582s0.449-0.021,0.691,0.182s0.495,0.608,0.757,1.217l-0.013,0.035
			c0.101,0.099,0.209,0.187,0.319,0.262c0.114,0.075,0.235,0.11,0.364,0.106c0.168,0.005,0.325-0.031,0.471-0.107
			c0.146-0.075,0.253-0.192,0.322-0.351c0.068-0.149,0.104-0.312,0.104-0.482c0-0.172-0.02-0.343-0.054-0.513
			c-0.068-0.33-0.195-0.649-0.381-0.959c-0.084-0.154-0.177-0.299-0.282-0.435c-0.104-0.135-0.223-0.26-0.354-0.376
			c-0.133-0.115-0.273-0.218-0.423-0.306c-0.15-0.089-0.311-0.147-0.478-0.176c-0.163,0.066-0.317,0.114-0.473,0.142
			c-0.088,0.022-0.181,0.04-0.277,0.053c-0.097,0.013-0.188,0.051-0.276,0.112c-0.033,0.022-0.063,0.02-0.093-0.009
			C329.576,380.082,329.571,380.052,329.587,380.021z M327.422,387.281c-0.008-0.001-0.003-0.101,0.016-0.301
			c0.02-0.199,0.053-0.461,0.103-0.783c0.05-0.322,0.116-0.685,0.199-1.087c0.083-0.401,0.187-0.807,0.311-1.215
			c0.124-0.409,0.271-0.797,0.441-1.164c0.17-0.367,0.372-0.68,0.603-0.938c-0.142,0.212-0.27,0.446-0.386,0.704
			c-0.115,0.256-0.219,0.523-0.311,0.801c-0.095,0.277-0.175,0.56-0.241,0.845c-0.068,0.287-0.126,0.562-0.174,0.824
			c-0.114,0.621-0.196,1.263-0.247,1.926c-0.053,0.078-0.099,0.146-0.14,0.2c-0.042,0.047-0.079,0.09-0.109,0.129
			C327.452,387.262,327.431,387.281,327.422,387.281z M330.129,385.413c-0.013,0.168-0.031,0.359-0.053,0.575
			c-0.145,0.508-0.229,0.966-0.255,1.373c-0.017,0.176-0.016,0.348,0.003,0.517c0.015,0.168,0.051,0.321,0.104,0.459
			c0.059,0.138,0.141,0.254,0.248,0.35c0.109,0.095,0.248,0.152,0.416,0.174c-0.313,0.047-0.542-0.02-0.684-0.2
			c-0.146-0.18-0.232-0.42-0.271-0.722c-0.032-0.301-0.026-0.631,0.02-0.99c0.046-0.358,0.104-0.695,0.179-1.009
			s0.146-0.576,0.215-0.786c0.069-0.21,0.108-0.315,0.116-0.314L330.129,385.413z"/>
		<path d="M338.839,382.698c-0.1,0.126-0.213,0.319-0.341,0.584c-0.127,0.265-0.254,0.569-0.38,0.914
			c-0.126,0.345-0.245,0.707-0.356,1.088c-0.108,0.381-0.194,0.751-0.26,1.109c-0.062,0.358-0.093,0.686-0.094,0.981
			c-0.001,0.296,0.049,0.529,0.146,0.7c0.102,0.171,0.255,0.264,0.468,0.278s0.49-0.086,0.844-0.301
			c-0.559,0.408-1.022,0.636-1.4,0.681s-0.656-0.083-0.835-0.385c-0.179-0.301-0.252-0.774-0.217-1.423
			c0.034-0.646,0.188-1.459,0.466-2.436l-1.75,3.239l-0.001,0.036l-0.316,0.556l-0.802-0.911c0.007-0.232,0.03-0.483,0.069-0.755
			c0.031-0.231,0.075-0.504,0.132-0.818s0.134-0.65,0.232-1.008l-2.021,3.375l-0.813-0.899c0.043-0.655,0.138-1.313,0.282-1.973
			c0.064-0.278,0.144-0.572,0.23-0.882s0.195-0.618,0.321-0.927c0.124-0.309,0.269-0.615,0.434-0.918
			c0.165-0.304,0.354-0.593,0.563-0.866l1.032,0.762c-0.24,0.369-0.475,0.771-0.692,1.205c-0.188,0.378-0.373,0.813-0.562,1.304
			c-0.187,0.491-0.317,1.016-0.397,1.573l2.398-3.772c0.095-0.165,0.188-0.328,0.284-0.49c0.097-0.161,0.204-0.32,0.32-0.478
			l1.046,0.764c-0.242,0.353-0.47,0.738-0.683,1.156c-0.188,0.354-0.367,0.77-0.548,1.245c-0.178,0.475-0.313,0.987-0.407,1.536
			l2.431-4.407c0.026-0.088,0.057-0.167,0.091-0.238L338.839,382.698z M331.696,387.296c-0.008,0.007-0.017-0.071-0.021-0.235
			c-0.003-0.164,0.001-0.386,0.017-0.666c0.012-0.279,0.039-0.603,0.082-0.97c0.042-0.367,0.104-0.749,0.192-1.146
			c0.087-0.398,0.201-0.799,0.341-1.203c0.143-0.404,0.314-0.783,0.524-1.138c-0.232,0.578-0.404,1.144-0.516,1.696
			c-0.112,0.553-0.19,1.045-0.234,1.476c-0.047,0.511-0.061,0.995-0.042,1.451l-0.154,0.355c-0.043,0.088-0.083,0.171-0.122,0.249
			C331.728,387.244,331.704,387.288,331.696,387.296z M336.688,385.313c0-0.032,0.008,0.004,0.018,0.108
			c0.009,0.104,0.02,0.225,0.032,0.361c0.011,0.16,0.023,0.345,0.044,0.554c-0.138,0.532-0.213,1.002-0.233,1.409
			c-0.005,0.176,0,0.347,0.019,0.511c0.015,0.165,0.053,0.309,0.111,0.43c0.063,0.121,0.146,0.216,0.256,0.283
			c0.11,0.067,0.254,0.092,0.433,0.072c-0.322,0.095-0.564,0.07-0.727-0.074c-0.157-0.146-0.264-0.352-0.313-0.621
			c-0.048-0.27-0.06-0.576-0.027-0.919c0.03-0.344,0.073-0.669,0.13-0.976c0.06-0.306,0.114-0.566,0.172-0.781
			C336.657,385.457,336.688,385.337,336.688,385.313z"/>
		<path d="M340.299,380.327c0.063-0.11,0.146-0.216,0.262-0.316c0.116-0.1,0.255-0.157,0.413-0.169
			c0.152-0.011,0.294,0.011,0.427,0.066c0.131,0.057,0.255,0.105,0.375,0.149c0.332,0.146,0.612,0.352,0.852,0.618
			c0.237,0.268,0.435,0.555,0.594,0.864c0.075,0.162,0.143,0.323,0.196,0.485c0.056,0.161,0.096,0.335,0.124,0.52
			c0.019,0.169,0.02,0.345,0.003,0.528c-0.018,0.184-0.081,0.354-0.188,0.511c-0.101,0.157-0.245,0.266-0.438,0.324
			c-0.089,0.028-0.178,0.051-0.267,0.063c-0.092,0.014-0.184,0.011-0.276-0.008c-0.199-0.029-0.363-0.103-0.492-0.218
			c-0.129-0.116-0.247-0.255-0.354-0.419c-0.227-0.278-0.419-0.39-0.584-0.335c-0.166,0.056-0.323,0.249-0.476,0.581
			c-0.147,0.332-0.305,0.787-0.466,1.367c-0.161,0.579-0.34,1.259-0.539,2.037l1.843-3.14c0.008-0.024,0.021-0.05,0.027-0.078
			c0.008-0.027,0.017-0.058,0.026-0.089l1.082,0.799c-0.069,0.143-0.154,0.33-0.26,0.563c-0.103,0.233-0.199,0.486-0.297,0.76
			c-0.096,0.273-0.182,0.553-0.258,0.839s-0.126,0.553-0.149,0.8c-0.021,0.248-0.016,0.46,0.024,0.637
			c0.038,0.177,0.127,0.292,0.266,0.344c0.141,0.053,0.333,0.03,0.584-0.067c0.25-0.097,0.577-0.295,0.979-0.596
			c-0.551,0.528-1.042,0.887-1.471,1.074c-0.433,0.188-0.769,0.188-1.012,0.001c-0.239-0.187-0.373-0.573-0.392-1.157
			c-0.021-0.585,0.113-1.39,0.399-2.414l-1.662,3.11l-0.022-0.073c0,0.016-0.003,0.025-0.007,0.03
			c-0.004,0.004-0.006,0.01-0.006,0.018l-1.035-0.75c0.327-1.64,0.688-2.941,1.085-3.906c0.164-0.412,0.346-0.771,0.546-1.077
			c0.201-0.307,0.411-0.501,0.629-0.582c0.218-0.082,0.449-0.021,0.691,0.182c0.242,0.203,0.495,0.608,0.757,1.216l-0.013,0.036
			c0.101,0.099,0.209,0.186,0.319,0.262c0.114,0.075,0.235,0.11,0.364,0.106c0.168,0.004,0.325-0.031,0.471-0.107
			c0.146-0.075,0.253-0.192,0.322-0.351c0.068-0.15,0.104-0.312,0.104-0.482c0-0.173-0.02-0.344-0.054-0.513
			c-0.068-0.33-0.195-0.649-0.381-0.959c-0.084-0.154-0.177-0.299-0.282-0.435c-0.104-0.135-0.223-0.26-0.354-0.376
			c-0.133-0.115-0.273-0.218-0.423-0.306c-0.15-0.089-0.311-0.147-0.478-0.177c-0.163,0.067-0.317,0.115-0.473,0.143
			c-0.088,0.022-0.181,0.039-0.277,0.053c-0.097,0.013-0.188,0.051-0.276,0.112c-0.033,0.022-0.063,0.02-0.092-0.009
			C340.288,380.39,340.282,380.358,340.299,380.327z M338.134,387.588c-0.008,0-0.003-0.1,0.018-0.3
			c0.018-0.199,0.051-0.461,0.101-0.783c0.05-0.322,0.116-0.685,0.199-1.087c0.083-0.401,0.187-0.807,0.311-1.216
			c0.124-0.408,0.271-0.796,0.441-1.164c0.171-0.366,0.372-0.679,0.603-0.937c-0.142,0.212-0.27,0.446-0.386,0.704
			c-0.115,0.256-0.219,0.523-0.311,0.801c-0.095,0.277-0.174,0.559-0.241,0.845c-0.069,0.286-0.126,0.562-0.174,0.823
			c-0.114,0.621-0.196,1.264-0.247,1.927c-0.05,0.078-0.099,0.145-0.14,0.2c-0.042,0.047-0.076,0.09-0.109,0.129
			C338.163,387.569,338.142,387.589,338.134,387.588z M340.841,385.721c-0.013,0.168-0.031,0.359-0.053,0.575
			c-0.142,0.508-0.229,0.966-0.255,1.373c-0.017,0.176-0.016,0.348,0.003,0.516c0.015,0.169,0.051,0.322,0.104,0.46
			c0.059,0.138,0.141,0.254,0.248,0.35c0.109,0.095,0.248,0.152,0.416,0.173c-0.313,0.048-0.542-0.02-0.684-0.199
			c-0.146-0.18-0.232-0.421-0.271-0.722c-0.033-0.302-0.027-0.631,0.019-0.99c0.046-0.358,0.104-0.695,0.179-1.009
			s0.146-0.577,0.215-0.787c0.069-0.209,0.108-0.314,0.116-0.314L340.841,385.721z"/>
	</g>
	<line fill="none" stroke="#000000" stroke-miterlimit="10" x1="376.989" y1="286.877" x2="528.75" y2="113.5"/>
	<line fill="none" stroke="#000000" stroke-miterlimit="10" x1="528.25" y1="113.5" x2="624.25" y2="119.75"/>
	<path fill="#FFFFFF" stroke="#000000" stroke-width="3" stroke-miterlimit="10" d="M177.173,617.875"/>
	<path fill="none" stroke="#000000" stroke-miterlimit="10" d="M183.666,602.167"/>
	<path fill="none" stroke="#000000" stroke-miterlimit="10" d="M157.333,602.167"/>
	<path fill="none" stroke="#000000" stroke-miterlimit="10" d="M155.979,579.625"/>
	<path fill="none" stroke="#000000" stroke-miterlimit="10" d="M90.333,562.501"/>
	<path fill="none" stroke="#000000" stroke-miterlimit="10" d="M92.908,529.619"/>
	<path fill="none" stroke="#000000" stroke-miterlimit="10" d="M241.999,597.167"/>
	<path fill="#1896D5" d="M173.911,519.122c-0.145,0.076-0.289,0.153-0.435,0.229c0.7,6.059,1.237,12.14,2.144,18.162
		c0.924,6.149,2.766,12.206,3.181,18.375c0.437,6.49-0.271,13.068-0.618,19.604c-0.163,3.095-0.261,6.278-1.081,9.229
		c-1.131,4.067-2.9,7.955-4.434,11.906c-0.374,0.965-0.825,1.914-1.36,2.797c-4.085,6.731-8.189,13.452-12.306,20.164
		c-4.243,6.918,10.326,12.912,5.483,12.148c0.202,0.03,0.415,0.016,0.616,0.057c9.036,1.855,17.859-0.117,26.677-1.647
		c5.727-0.993,10.708-3.695,14.774-7.934c4.029-4.198,3.47-7.935-1.571-10.812c-0.887-0.508-1.919-0.742-2.847-1.184
		c-2.879-1.361-5.828-2.604-8.584-4.188c-2.955-1.702-4.008-5.872-2.695-9.429c1.079-2.926,3.583-4.3,7.276-3.694
		c2.413,0.394,4.802,1.024,7.149,1.728c5.315,1.589,7.37,0.501,8.916-4.872c1.374-4.781,2.796-9.552,4.144-14.341
		c0.73-2.599,2.332-4.039,5.01-4.344c3.274-0.372,6.535-0.86,9.811-1.232c2.513-0.286,4.741-0.708,5.5-3.786
		c0.331-1.339,1.404-2.521,2.254-3.692c5.187-7.155,11.201-13.838,12.569-23.271c-0.356-0.107-0.914-0.389-1.494-0.45
		c-8.383-0.923-16.75-2.214-25.157-2.606c-10.38-0.489-20.815,0.127-31.05-2.341c-7.449-1.796-14.417-4.422-19.239-10.91
		C175.648,521.573,174.788,520.342,173.911,519.122z"/>
</g>
<g id="Layer_2">
	<g>
		<path fill="#FFFFFF" stroke="#000000" stroke-width="3" stroke-miterlimit="10" d="M204.277,602.475
			c0.551-2.006,0.653-8.632,2.721-16.5c0.711-2.706,4.305-3.04,7.334-3.792c9.208-2.286,27.607-4.161,36.975-5.684
			c7.111-1.156,7.562-0.924,7.937,6.484c1.639,32.28,3.315,64.563,4.893,96.848c0.189,3.871,1.039,7.463,5.445,7.469
			c4.471,0.006,5.295-3.668,5.391-7.51c0.397-15.992,0.573-29.787,1.496-47.957c0.919-18.106,1.53-36.15,3.53-59.483
			c0.201-4.615,1.695-5.029,2-10c0.039-0.627,4.01,0.168,4-0.5c-0.007-0.499-0.005-2.675,0-3.75
			c0.005-0.894-1.994-1.716-1.982-2.017c-0.129-0.843-0.224-1.695-0.24-2.566c-0.014-0.707-0.518-4.854-0.067-2.697
			c-0.214-1.124-0.447-2.246-0.787-3.343c-0.185-0.595-1.334-3.25-1.079-2.854c-0.198-0.385-0.378-0.778-0.587-1.157
			c-0.79-1.382-1.587-2.761-2.494-4.068c-0.279-0.389-0.486-0.681-0.64-0.896c-1.618-1.846-3.316-3.621-5.209-5.191
			c-0.248-0.204-0.453-0.378-0.625-0.521c-0.215-0.14-0.477-0.313-0.811-0.535c-0.919-0.63-1.85-1.241-2.793-1.834
			c-2.351-1.45-4.706-2.896-7.236-4.021c-0.35-0.154-0.629-0.278-0.856-0.384c-0.205-0.085-0.443-0.184-0.731-0.303
			c-2.013-0.841-4.021-1.689-6.026-2.551c-2.465-1.108-4.796-2.311-7.035-3.826c-0.626-0.425-1.218-0.884-1.791-1.359
			c-3.632-0.668-7.204-1.522-10.858-2.508c-1.71-0.459-3.425-0.948-5.165-1.285c-0.799-0.142-1.316-0.233-1.569-0.289
			c-2.161-0.231-4.322-0.456-6.486-0.654c-3.168-0.294-6.344-0.56-9.499-0.97c-2.229-0.287-4.457-0.586-6.685-0.893
			c-0.229-0.026-0.491-0.061-0.796-0.097c-6.668-0.771-13.335-1.521-19.971-2.541c-0.38-0.062-0.748-0.135-1.111-0.218
			c-0.399,0.024-0.797,0.059-1.201,0.059h-23.232c-3.653,0.781-7.447,1.274-9.722,1.566c-10.902,1.396-21.889,2.336-32.678,4.343
			c-7.78,1.443-15.308,4.275-22.928,6.557c-0.931,0.279-0.348,3.162-1.749,5.443c-0.821,1.339-3.668,0.495-3.775,1.7
			c-0.131,1.476-0.019,3.344,0.914,4.229c0.312,0.296,5.728,2.788,5.837,3.558c1.028,7.236,1.502,8.146,1.497,9.217
			c-0.031,7.141,0,0,0,0c-0.159,35.157-0.193,60.478-0.277,95.638c-0.006,2.438-0.609,5.353,3.277,5.442
			c3.308,0.079,5.241-1.239,5.562-4.875c0.803-9.123,2.026-18.212,2.743-27.341c1.461-18.603,2.739-37.218,3.995-55.832
			c0.238-3.53,1.437-5.105,5-3.427c16.514,7.806,33.014,15.638,49.527,23.441c1.294,0.609-0.805-0.323,3.204,1.294
			c0.621,0.25,2.186,1.251,3.805,2.653c0.691,0.602,1.599,4.234,1.667,5.334c0.645,10.393,1.426,18.523,1.015,20.469"/>
		<path fill="#FFFFFF" stroke="#000000" stroke-width="3" stroke-miterlimit="10" d="M201.248,585.975"/>
		<path fill="#FFFFFF" stroke="#000000" stroke-width="3" stroke-miterlimit="10" d="M175.248,605.975
			c0.215,7.306,3.552,55.573,3.75,62.876c0.345,12.692,0.847,21.136,1.025,32.107c0.067,4.146,3.058,5.844,6.919,4.393
			c3.016-1.133,4.168-3.188,4.34-6.483c0.949-18.115,11.667-78.298,12.995-96.393"/>
	</g>
	<line fill="none" stroke="#000000" stroke-miterlimit="10" x1="190.665" y1="570.013" x2="90.342" y2="527.648"/>
	<line fill="none" stroke="#000000" stroke-miterlimit="10" x1="189.636" y1="570.013" x2="283.884" y2="555.053"/>
	<line fill="none" stroke="#000000" stroke-miterlimit="10" x1="190.665" y1="577.35" x2="185.039" y2="705.817"/>
	<line fill="none" stroke="#000000" stroke-miterlimit="10" x1="91.356" y1="533.85" x2="188.748" y2="577.35"/>
	<line fill="none" stroke="#000000" stroke-miterlimit="10" x1="188.748" y1="577.35" x2="281.998" y2="562.35"/>
	<line fill="none" stroke="#000000" stroke-miterlimit="10" x1="188.748" y1="573.475" x2="285.998" y2="557.35"/>
	<line fill="none" stroke="#000000" stroke-miterlimit="10" x1="87.536" y1="528.725" x2="188.748" y2="573.475"/>
	<line fill="none" stroke="#000000" stroke-miterlimit="10" x1="258.275" y1="566.166" x2="260.332" y2="589.521"/>
	<line fill="none" stroke="#000000" stroke-miterlimit="10" x1="111.886" y1="543.447" x2="109.968" y2="561.2"/>
	<line fill="none" stroke="#000000" stroke-miterlimit="10" x1="173.915" y1="570.851" x2="176.331" y2="608.517"/>
	<rect x="280.725" y="541.276" transform="matrix(-0.9206 0.3904 -0.3904 -0.9206 758.0656 932.5538)" width="7.049" height="4.1"/>
	
		<rect x="282.474" y="547.188" transform="matrix(-0.9831 0.1829 -0.1829 -0.9831 667.6183 1036.9075)" width="7.049" height="4.098"/>
</g>
<g id="Layer_3">
	<g>
		<path fill="#1896D5" d="M352.464,594.602c0,1.458,0,2.916,0,4.375c-1.768,2.631-3.118,5.722-5.38,7.804
			c-6.52,5.995-14.297,9.879-23.009,11.354c-3.634,0.615-6.51,1.96-9.308,4.337c-5.218,4.438-11.351,5.771-17.959,3.806
			c-3.62-1.076-4.948-3.319-4.45-6.982c0.505-3.703,1.209-7.379,1.69-11.084c0.534-4.104,2.222-8.646,1.091-12.259
			c-2.262-7.21-2.908-14.459-3.072-21.819c-0.091-4.099-0.937-12.045-2.8-15.869c-0.766-1.571-1.167-3.766-3.927-3.887
			c-0.073-2.296-1.989-10.208-3.343-12.296c-2.558-3.939-5.949-8.886-10.521-9.834c-6.132-1.273-11.573,2.191-17.72,0.999
			c-7.385-1.437-37.215,6.188-44.66,5.212c-8.768-1.152-6.007-0.17-17.783-3.549c-8.803-2.525-3.888-0.885-12.974-2.871
			c-13.5-5.691-24.592-12.573-27.916-25.458c-1.075-4.169,1.457-6.572-0.508-10.275c-3.577-6.74-5.342-13.91-6.451-21.271
			c-0.833-5.534-0.729-11.204-1.342-16.78c-0.76-6.915-2.739-13.828-2.495-20.681c0.231-6.47-2.162-10.078-7.376-12.72
			c-6.151-3.11-8.046-8.596-7.852-15.043c0.156-5.172,0.636-10.333,0.876-15.5c0.046-0.984-0.217-2.047-0.579-2.978
			c-1.715-4.411-1.805-8.924-0.962-13.502c1.147-6.212,3.105-12.394,3.286-18.63c0.184-6.331,2.116-11.329,6.421-15.602
			c3.383-3.357,6.809-6.678,10.349-9.867c1.112-1.004,2.64-1.549,3.995-2.27c3.083-1.639,6.271-3.1,9.241-4.926
			c2.924-1.799,2.928-3.648,0.182-5.862c-1.601-1.29-3.615-2.106-5.072-3.522c-9.101-8.848-15.249-30.439-7.526-40.478
			c0.286-0.372,0.396-0.954,0.422-1.447c0.323-6.175,3.818-9.629,9.448-11.225c3.847-1.089,7.715-2.107,11.574-3.156
			c2.891,0,5.781,0,8.67,0c0.135,0.148,0.242,0.384,0.405,0.434c7.363,2.244,12.727,6.537,16.133,13.811
			c3.119,6.662,5.466,14.013,11.942,18.625c0.548,0.391,0.564,2.798-0.011,3.313c-2.089,1.871-1.68,3.763-0.841,5.922
			c0.863,2.221,1.763,4.445,2.377,6.741c1.756,6.56,0.669,9.062-5.112,12.337c-0.252,0.143-0.557,0.193-0.837,0.287
			c6.327,4.253,12.489,7.759,18.8,10.968c6.692,3.403,11.347,8.001,11.559,16.165c0.068,2.631,0.724,5.427,1.825,7.811
			c2.389,5.163,5.327,10.064,7.873,15.157c1.982,3.968,3.692,8.073,5.562,12.101c0.945,2.037,1.974,4.035,2.969,6.05
			c1.179,2.388,2.95,4.655,3.442,7.179c2.38,12.229,6.172,12.729,16.378,10.498c9.118-1.995,18.388-3.696,26.668-8.463
			c1.997-1.149,3.707-0.366,5.472,0.709c3.742,2.276,4.913,2.052,7.875-1.243c2.688-2.991,8.697-3.725,12.225-1.953
			c2.021,1.014,4.403,1.462,6.675,1.746c3.151,0.395,6.485-0.114,9.499,0.688c3.982,1.065,8.263,2.197,10.825,6.651
			c-1.923,0.373-3.388,0.658-5.143,0.999c1.646,1.468,3.12,2.779,4.592,4.091c-0.163,0.372-0.324,0.745-0.486,1.117
			c-1.955-0.541-3.907-1.081-6.021-1.666c1.938,1.592,3.734,3.067,5.535,4.542c-0.264,0.444-0.522,0.889-0.783,1.333
			c-2.979-0.906-5.961-1.813-8.941-2.718c-0.074,0.296-0.15,0.591-0.229,0.886c1.639,0.609,3.275,1.22,4.916,1.831
			c-0.071,0.355-0.146,0.713-0.218,1.069c-1.275-0.161-2.554-0.461-3.825-0.455c-2.813,0.014-5.825-0.44-8.392,0.415
			c-5.274,1.762-9.819,5.699-14.916,4.999c-1.011,1.813-1.561,3.924-2.324,4.008c-7.396,0.811-13.402,4.72-19.271,8.71
			c-8.934,6.078-18.619,10.112-29.103,12.395c-4.313,0.939-8.341,0.723-12.104-1.896c-1.623-1.128-3.44-1.971-5.171-2.941
			c-0.193,0.2-0.386,0.401-0.579,0.604c1.549,3.911,3.402,7.73,4.566,11.757c1.369,4.731,4.194,8.21,7.693,11.396
			c2.213,2.019,4.354,4.163,6.218,6.507c3.163,3.971,2.815,7.243-1.029,10.593c-1.461,1.271-3.255,2.159-4.912,3.198
			c-0.915,0.57-1.861,1.097-3.334,1.961c1.42,0.791,2.229,1.422,3.144,1.724c11.521,3.8,22.929,8.038,34.626,11.175
			c10.802,2.898,18.966,8.335,23.199,19c1.225,3.079,2.294,6.228,3.321,9.377c5.202,15.946,11.598,31.657,9.607,49.04
			c-0.015,0.104-0.021,0.215,0.011,0.313c0.772,2.552,1.227,5.271,2.431,7.604c1.108,2.146,0.459,3.137-1.312,3.875
			c-1.758,0.731-3.604,1.234-5.411,1.838c6.392,0.21,12.714-0.167,19.027-0.637C345.585,592.135,349.415,591.365,352.464,594.602z"
			/>
	</g>
</g>
</svg>
