<?xml version="1.0" encoding="utf-8"?>
<!-- Generator: Adobe Illustrator 16.0.3, SVG Export Plug-In . SVG Version: 6.00 Build 0)  -->
<!DOCTYPE svg PUBLIC "-//W3C//DTD SVG 1.1//EN" "http://www.w3.org/Graphics/SVG/1.1/DTD/svg11.dtd">
<svg version="1.1" id="Layer_1" xmlns="http://www.w3.org/2000/svg" xmlns:xlink="http://www.w3.org/1999/xlink" x="0px" y="0px"
	 width="800px" height="800px" viewBox="0 0 800 800" enable-background="new 0 0 800 800" xml:space="preserve">
<g id="Layer_1_1_">
	<g>
		<path fill="#FFFFFF" stroke="#010101" stroke-width="3" stroke-miterlimit="10" d="M137.946,458.273c0-8,0-15.998,0-23.998
			c5.966-0.354,11.929-0.828,17.901-1.045c6.885-0.25,12.854-2.482,16.731-8.326c6.094-9.188,7.375-19.512,3.357-29.526
			c-2.543-6.342-1.399-12.225-1.877-18.988c2.326,0,4.113-0.002,5.9,0c15.153,0.029,30.314,0.311,45.456-0.1
			c3.445-0.094,7.89-1.64,10.054-4.11c9.646-11.016,18.407-22.707,22.475-37.21c1.673-5.967,4.625-10.267,12.061-10.869
			c11.571-0.938,23.021-3.316,34.571-4.621c3.57-0.403,6.046-1.393,8.432-4.167c20.851-24.233,41.891-48.299,62.813-72.467
			c30.723-35.488,55.337-64.011,86.03-99.525c1,0-1,0,0,0c0.595,0.262-0.019,0.205,0.595,0.262
			c15.411,1.433,41.076-3.722,56.486-2.276c15.732,1.477,31.469,2.996,47.188,4.621c1.461,0.151,2.83,1.2,4.242,1.832
			c-0.736,1.234-1.283,2.645-2.24,3.676c-10.758,11.606-21.588,23.147-32.381,34.721c-5.875,6.3-11.717,12.631-17.75,19.138
			c1.852,1.566,3.324,2.87,4.857,4.102c19.625,15.766,41.805,26.59,66.072,32.788c14.623,3.734,29.623,5.963,44.4,9.12
			c13.314,2.845,20.754,11.477,19.451,23.066c-0.465,4.131-2.357,8.315-4.422,12.017c-8.5,15.248-19.732,28.47-32.082,40.656
			c-14.822,14.628-30.281,28.681-48.533,38.97c-8.158,4.598-17.244,7.549-26.369,11.442c2.705,0.26,5.137,0.67,7.57,0.695
			c39.645,0.406,79.293,0.764,118.938,1.133c0,12.332,0,24.663,0,36.995c-0.313,10.969-0.617,21.939-0.941,32.906
			c-0.039,1.322-0.004,3.738-0.332,3.797c-4.889,0.877-3.355,5.213-4.518,8.65c-8.621,0-17.199,0-25.715,0
			c-1.061,3.813-2.057,7.402-3.088,11.111c-1.406,0.189-2.715,0.346-4.02,0.529c-11.088,1.6-20.479,10.545-21.203,20.768
			c-2.133,30.152-4.107,60.316-6.051,90.482c-0.469,7.283-0.295,7.295-7.588,7.967c3.904,2.299,4.107,5.023,0.701,8.102
			c-1.094,0.984-2.754,2.152-2.832,3.324c-0.443,6.74-5.02,5.928-9.357,5.354c-7.199-0.947-9.16-5.771-4.93-11.596
			c1.211-1.666,2.104-3.564,3.811-6.512c-5.139,1.248-5.021-1.436-4.98-4.104c0.104-6.965,0.564-13.953,0.199-20.896
			c-1.219-23.277-3.1-46.527-3.979-69.818c-0.412-10.896-8.049-23.223-20.277-25.861c-2.973-0.643-4.289-1.803-4.291-4.881
			c-0.004-3.289-1.824-3.84-4.641-2.547c-1.947,0.895-3.963,1.803-6.041,2.203c-2.729,0.523-5.555,0.561-8.873,0.854
			c-1.396,5.793-2.725,11.326-4.17,17.352c-10.486,0.469-21.564,0.963-33.137,1.477c1.291,7.58-2.572,9.445-8.902,10.729
			c-11.73,2.385-21.635,8.33-25.863,20.324c-1.93,5.471-2.691,11.475-3.191,17.299c-2.387,27.867-4.541,55.756-6.652,83.646
			c-0.209,2.771,0.584,5.602,0.615,8.408c0.1,7.582,0.033,15.164,0.033,22.596c-4.33,0.615-7.279,1.035-10.229,1.455
			c-0.014,0.166-0.021,0.33-0.029,0.496c1.533,0.279,3.066,0.561,4.664,0.854c0.428,3.893,0.438,6.979-3.133,9.438
			c-1.668,1.146-2.813,3.75-3.23,5.883c-0.914,4.67-3.902,5.906-7.943,5.59c-2.291-0.18-4.615-0.725-6.785-1.5
			c-5.227-1.865-7.182-7.387-4.379-12.105c1.84-3.104,3.828-6.121,6.033-9.633c-6.104,0.16-6.678-3.645-6.582-7.916
			c0.219-9.943,1.104-19.93,0.555-29.832c-1.615-28.924-3.881-57.811-5.711-86.725c-0.439-6.912-4.943-11.334-8.529-17.252
			c-0.711,1.82-1.127,2.723-1.42,3.662c-9.021,29.033-18.213,58.016-26.947,87.137c-3.574,11.916-6.088,24.148-9.252,36.195
			c-0.441,1.686-1.729,4.369-2.816,4.467c-7.053,0.635-14.181,1.15-21.235,0.793c-7.382-0.371-14.717-1.725-22.063-2.748
			c-1.537-0.213-3.056-0.754-4.513-1.32c-1.306-0.51-2.479-1.734-3.771-1.83c-7.547-0.549-15.107-0.85-22.662-1.271
			c-0.179-0.01-0.325-0.496-1.07-1.705c6.589-1.098,12.787-2.129,19.458-3.236c0-2.576,0.265-5.064-0.051-7.479
			c-0.875-6.695,3.205-11.879,9.224-12.049c0-34.621,0-69.23,0-104.027c-8.293-0.854-15.836-1.637-23.536-2.434
			c-0.263-4.053-0.505-7.781-0.745-11.49c-4.235-0.41-7.929-0.514-11.512-1.189c-2.895-0.547-5.603-2.262-8.495-2.604
			c-4.671-0.564-10.292-2.09-13.943-0.193c-5.829,3.027-9.938,8.932-10.368,16.115c-1.979,33.189-3.855,66.387-5.676,99.588
			c-0.406,7.412-0.235,7.416-7.371,8.9c-0.23,0.049-0.381,0.48-0.563,0.742c3.234,1.547,3.76,4.684,1.577,7.174
			c-1.754,2.002-3.464,4.264-4.388,6.713c-1.086,2.879-2.72,5.141-5.649,4.422c-3.649-0.896-7.548-2.311-10.26-4.715
			c-1.032-0.916,0.651-5.309,1.609-7.926c0.789-2.154,2.334-4.033,4.157-7.053c-6.061,0.373-6.092-3.02-6.029-6.326
			c0.146-7.629,0.976-15.287,0.501-22.871c-1.602-25.592-3.78-51.143-5.467-76.727c-0.666-10.086-5.845-16.922-14.58-20.791
			c-5.065-2.244-10.867-2.83-16.341-4.145c-0.951-0.23-2.655-0.166-2.776-0.59c-1.807-6.342-7.196-3.982-11.152-4.498
			c-7.733-1.012-15.534-1.486-22.562-2.117C140.317,466.531,139.131,462.402,137.946,458.273z M363.624,618.396
			c0.525-0.145,1.051-0.289,1.576-0.434c0.213-0.439,0.49-0.855,0.631-1.314c11.148-36.152,22.232-72.324,33.512-108.438
			c0.99-3.178-0.029-4.637-2.459-6.012c-7.639-4.324-15.9-6.119-25.117-6.424c0,2.99,0,5.732,0,8.527
			c-3.23,0.559-5.98,1.033-8.725,1.51c2.834,2.148,6.572,2.826,3.949,7.438c-4.439-0.611-5.953,1.105-5.898,5.785
			c0.367,30.953,0.379,61.91,0.65,92.863C361.763,614.074,362.97,616.232,363.624,618.396z M330.673,607.869
			c1.177-0.973,2.218-1.395,2.382-2.039c1.422-5.6,3.723-11.223,3.815-16.873c0.407-24.125,0.045-48.262,0.221-72.393
			c0.034-4.609-1.547-5.969-6.418-4.83C330.673,543.414,330.673,575.141,330.673,607.869z M354.466,612.637
			c5.143,0.824,5.383-1.666,5.359-4.922c-0.162-27.127-0.207-54.256-0.301-81.387c-0.004-1.188-0.137-2.377-0.211-3.563
			c-0.607,0.004-1.215,0.01-1.822,0.014C352.673,552.498,356.284,582.564,354.466,612.637z M339.813,514.643
			c-0.175-0.021-0.354-0.043-0.525-0.064c0,22.41,0,44.82,0,67.23c0.175-0.002,0.354-0.004,0.525-0.004
			C339.813,559.416,339.813,537.029,339.813,514.643z M339.279,611.846c0.233-0.025,0.466-0.049,0.7-0.074
			c0-6.502,0-13.004,0-19.506c-0.233,0.016-0.466,0.029-0.7,0.045C339.279,598.822,339.279,605.334,339.279,611.846z"/>
	</g>
	
		<line fill="none" stroke="#010101" stroke-width="5" stroke-miterlimit="10" x1="338.955" y1="568.313" x2="338.946" y2="592.313"/>
	<line fill="none" stroke="#010101" stroke-miterlimit="10" x1="144.696" y1="452.063" x2="350.196" y2="465.063"/>
	<line fill="none" stroke="#010101" stroke-miterlimit="10" x1="144.696" y1="433.842" x2="144.696" y2="458.818"/>
	<line fill="none" stroke="#010101" stroke-miterlimit="10" x1="350.196" y1="444.896" x2="350.196" y2="475.424"/>
	<line fill="none" stroke="#010101" stroke-miterlimit="10" x1="361.196" y1="476.313" x2="137.946" y2="458.273"/>
	<line fill="none" stroke="#010101" stroke-miterlimit="10" x1="361.196" y1="444.896" x2="361.196" y2="491.563"/>
	<line fill="none" stroke="#010101" stroke-miterlimit="10" x1="361.196" y1="491.563" x2="141.671" y2="471.248"/>
	<line fill="none" stroke="#010101" stroke-miterlimit="10" x1="360.581" y1="491.506" x2="490.446" y2="484.438"/>
	<line fill="none" stroke="#010101" stroke-miterlimit="10" x1="546.946" y1="462.063" x2="666.603" y2="452.98"/>
	<line fill="none" stroke="#010101" stroke-miterlimit="10" x1="527.698" y1="471.248" x2="361.196" y2="476.313"/>
	<line fill="none" stroke="#010101" stroke-miterlimit="10" x1="361.196" y1="469.188" x2="529.446" y2="465.063"/>
	<line fill="none" stroke="#010101" stroke-miterlimit="10" x1="361.196" y1="445.313" x2="387.28" y2="443.813"/>
	<path fill="none" stroke="#010101" stroke-miterlimit="10" d="M404.616,407.479c0,20.084-7.754,36.334-17.336,36.334"/>
	<path fill="none" stroke="#010101" stroke-miterlimit="10" d="M404.616,408.48c0-7.428-1.643-13.438-3.67-13.438"/>
	<path fill="none" stroke="#010101" stroke-miterlimit="10" d="M394.813,407.479c0,19.662-7.754,35.572-17.336,35.572"/>
	<path fill="none" stroke="#010101" stroke-miterlimit="10" d="M394.813,408.48c0-7.264-1.791-13.141-4.004-13.141"/>
	<line fill="none" stroke="#010101" stroke-miterlimit="10" x1="378.282" y1="443.01" x2="349.862" y2="445.313"/>
	<path fill="none" stroke="#010101" stroke-miterlimit="10" d="M184.439,397.451c0,19.36-8.571,35.03-19.16,35.03"/>
	<path fill="none" stroke="#010101" stroke-miterlimit="10" d="M184.524,399.119c0-5.559-2.16-10.057-4.828-10.057"/>
	<line fill="none" stroke="#010101" stroke-miterlimit="10" x1="390.81" y1="395.339" x2="391.446" y2="395.339"/>
	<line fill="none" stroke="#010101" stroke-miterlimit="10" x1="179.696" y1="376.98" x2="179.696" y2="389.48"/>
	<line fill="none" stroke="#010101" stroke-miterlimit="10" x1="179.696" y1="389.062" x2="390.925" y2="390.646"/>
	<line fill="none" stroke="#010101" stroke-miterlimit="10" x1="390.81" y1="395.339" x2="183.594" y2="393.199"/>
	<line fill="none" stroke="#010101" stroke-miterlimit="10" x1="390.81" y1="375.938" x2="390.81" y2="395.339"/>
	<line fill="none" stroke="#010101" stroke-miterlimit="10" x1="400.946" y1="395.46" x2="400.946" y2="375.938"/>
	<line fill="none" stroke="#010101" stroke-miterlimit="10" x1="401.749" y1="375.938" x2="390.345" y2="375.938"/>
	<line fill="none" stroke="#010101" stroke-miterlimit="10" x1="179.696" y1="379.646" x2="390.81" y2="380.312"/>
	<line fill="none" stroke="#010101" stroke-miterlimit="10" x1="400.946" y1="375.938" x2="538.446" y2="377.937"/>
	<line fill="none" stroke="#010101" stroke-miterlimit="10" x1="547.696" y1="377.937" x2="547.729" y2="462.004"/>
	<line fill="none" stroke="#010101" stroke-miterlimit="10" x1="536.946" y1="377.937" x2="536.946" y2="465.063"/>
	<path fill="none" stroke="#010101" stroke-miterlimit="10" d="M386.804,321.784c-0.17-3.355-35.743-4.281-79.534-2.07"/>
	<path fill="none" stroke="#010101" stroke-miterlimit="10" d="M376.128,340.856c-7.039,17.722-8.684,33.673-3.676,35.663"/>
	<path fill="none" stroke="#010101" stroke-miterlimit="10" d="M376.128,340.856c4.09-9.835,8.262-17.437,9.318-16.996"/>
	<line fill="none" stroke="#010101" stroke-miterlimit="10" x1="371.946" y1="376.519" x2="371.446" y2="379.98"/>
	<path fill="none" stroke="#010101" stroke-miterlimit="10" d="M379.161,341.497c-6.895,17.369-8.43,33.033-3.422,35.022"/>
	<line fill="none" stroke="#010101" stroke-miterlimit="10" x1="375.233" y1="376.519" x2="374.733" y2="379.98"/>
	<path fill="none" stroke="#010101" stroke-miterlimit="10" d="M378.597,343.089c4.09-9.835,8.256-17.438,9.314-16.997"/>
	<g>
		<polygon fill="#010101" points="510.476,377.718 442.278,199.313 511.409,377.357 		"/>
	</g>
	<line fill="none" stroke="#010101" stroke-miterlimit="10" x1="493.612" y1="377.285" x2="484.278" y2="349.313"/>
	<line fill="none" stroke="#010101" stroke-miterlimit="10" x1="484.31" y1="349.62" x2="484.862" y2="342.6"/>
	<g>
		<polygon fill="#010101" points="484.472,343.246 438.278,201.979 485.421,342.932 		"/>
	</g>
	<path fill="none" stroke="#010101" stroke-miterlimit="10" d="M386.601,321.341c0.342,1.01-0.371,2.161-1.592,2.573"/>
	<path fill="none" stroke="#010101" stroke-miterlimit="10" d="M386.755,321.704c1.26,2.015,1.467,4.147,0.473,4.766"/>
	<line fill="none" stroke="#010101" stroke-miterlimit="10" x1="157.209" y1="443.48" x2="157.209" y2="448.73"/>
	<line fill="none" stroke="#010101" stroke-miterlimit="10" x1="157.209" y1="449.055" x2="346.946" y2="461.146"/>
	<line fill="none" stroke="#010101" stroke-miterlimit="10" x1="346.946" y1="461.563" x2="346.946" y2="453.23"/>
	<line fill="none" stroke="#010101" stroke-miterlimit="10" x1="347.446" y1="453.23" x2="157.209" y2="443.986"/>
	<line fill="none" stroke="#010101" stroke-miterlimit="10" x1="222.446" y1="500.146" x2="224.113" y2="608.146"/>
	<line fill="none" stroke="#010101" stroke-miterlimit="10" x1="221.946" y1="608.172" x2="233.593" y2="609.926"/>
	<path fill="none" stroke="#010101" stroke-miterlimit="10" d="M222.446,500.916c0-10.922-14.461-19.76-32.333-19.76"/>
	<line fill="none" stroke="#010101" stroke-miterlimit="10" x1="427.948" y1="517.176" x2="429.892" y2="647.842"/>
	<path fill="none" stroke="#010101" stroke-miterlimit="10" d="M427.948,517.176c0-10.609-17.594-19.195-39.336-19.195"/>
	<line fill="none" stroke="#010101" stroke-miterlimit="10" x1="424.575" y1="647.439" x2="437.636" y2="648.684"/>
	<line fill="none" stroke="#010101" stroke-miterlimit="10" x1="588.612" y1="590.646" x2="588.612" y2="489.146"/>
	<path fill="none" stroke="#010101" stroke-miterlimit="10" d="M588.612,489.146c0-9.213,10.586-16.666,23.668-16.666"/>
	<line fill="none" stroke="#010101" stroke-miterlimit="10" x1="612.28" y1="472.48" x2="633.286" y2="472.746"/>
	<line fill="none" stroke="#010101" stroke-miterlimit="10" x1="583.28" y1="589.813" x2="592.28" y2="591.48"/>
	<line fill="none" stroke="#010101" stroke-miterlimit="10" x1="322.196" y1="509.563" x2="322.196" y2="609.273"/>
	<line fill="none" stroke="#010101" stroke-miterlimit="10" x1="322.196" y1="509.563" x2="333.196" y2="510.563"/>
	<line fill="none" stroke="#010101" stroke-miterlimit="10" x1="370.696" y1="504.063" x2="346.946" y2="506.563"/>
	<line fill="none" stroke="#010101" stroke-miterlimit="10" x1="315.24" y1="502.219" x2="346.946" y2="506.463"/>
	<line fill="none" stroke="#010101" stroke-miterlimit="10" x1="346.946" y1="506.563" x2="345.696" y2="613.535"/>
	<line fill="none" stroke="#010101" stroke-miterlimit="10" x1="314.968" y1="608.17" x2="329.424" y2="610.5"/>
	<line fill="none" stroke="#010101" stroke-miterlimit="10" x1="338.452" y1="612.959" x2="356.071" y2="613.826"/>
	<line fill="none" stroke="#010101" stroke-miterlimit="10" x1="306.071" y1="614.625" x2="346.071" y2="624.125"/>
	<line fill="none" stroke="#010101" stroke-miterlimit="10" x1="366.071" y1="618.625" x2="345.696" y2="624.125"/>
	<line fill="none" stroke="#010101" stroke-miterlimit="10" x1="346.071" y1="624.125" x2="346.071" y2="639.5"/>
	<line fill="none" stroke="#010101" stroke-miterlimit="10" x1="346.946" y1="453.23" x2="349.862" y2="452.98"/>
	<line fill="none" stroke="#010101" stroke-miterlimit="10" x1="346.946" y1="461.146" x2="349.862" y2="460.813"/>
	<line fill="none" stroke="#010101" stroke-miterlimit="10" x1="157.571" y1="443.986" x2="184.439" y2="440.813"/>
	<line fill="none" stroke="#010101" stroke-miterlimit="10" x1="184.439" y1="440.813" x2="349.862" y2="448.23"/>
	<line fill="none" stroke="#010101" stroke-miterlimit="10" x1="184.524" y1="399.119" x2="184.439" y2="440.813"/>
	<line fill="none" stroke="#010101" stroke-miterlimit="10" x1="144.696" y1="452.063" x2="157.209" y2="449.055"/>
	<g>
		<path fill="#010101" d="M260.403,425.41c-0.068,0.135-0.15,0.268-0.246,0.396c-0.096,0.129-0.213,0.234-0.351,0.318
			c-0.142,0.086-0.282,0.146-0.435,0.182c-0.146,0.035-0.292,0.084-0.431,0.145c-0.194,0.074-0.396,0.129-0.601,0.168
			c-0.203,0.037-0.41,0.047-0.617,0.023s-0.41-0.07-0.608-0.145c-0.198-0.072-0.375-0.18-0.531-0.32
			c-0.153-0.141-0.28-0.305-0.382-0.49c-0.099-0.188-0.169-0.381-0.211-0.582c-0.042-0.209-0.06-0.416-0.054-0.621
			c0.006-0.203,0.032-0.404,0.077-0.604c0.046-0.215,0.101-0.412,0.16-0.596c0.019-0.049,0.033-0.096,0.054-0.143
			c0.018-0.049,0.034-0.096,0.052-0.145c0.025-0.047,0.051-0.092,0.076-0.135c0.023-0.045,0.051-0.09,0.076-0.137
			c0.101-0.182,0.213-0.354,0.333-0.512c0.121-0.162,0.251-0.316,0.392-0.465c0.281-0.297,0.592-0.559,0.938-0.789
			c0.343-0.23,0.72-0.385,1.129-0.461c0.021-0.006,0.046,0,0.063,0.021c0.021,0.02,0.029,0.039,0.028,0.055
			c-0.001,0.041-0.026,0.066-0.074,0.082c-0.402,0.076-0.771,0.234-1.112,0.473c-0.339,0.238-0.646,0.506-0.93,0.803
			c-0.14,0.156-0.269,0.314-0.385,0.48c-0.117,0.164-0.222,0.338-0.315,0.52c-0.093,0.182-0.168,0.369-0.226,0.563
			c-0.058,0.195-0.105,0.393-0.146,0.592c-0.027,0.197-0.037,0.4-0.026,0.604c0.011,0.205,0.044,0.4,0.103,0.586
			c0.062,0.193,0.147,0.371,0.27,0.535s0.262,0.297,0.427,0.396c0.172,0.117,0.354,0.195,0.552,0.236
			c0.194,0.043,0.395,0.059,0.592,0.049c0.208-0.012,0.408-0.047,0.602-0.107c0.188-0.064,0.378-0.141,0.563-0.23
			c0.125-0.164,0.273-0.305,0.444-0.42c0.099-0.078,0.205-0.143,0.316-0.195c0.112-0.053,0.217-0.125,0.308-0.219
			c0.032-0.031,0.065-0.033,0.102-0.01C260.41,425.338,260.42,425.371,260.403,425.41z M271.231,411.592
			c-0.809,1.586-1.479,3.109-2.019,4.574c-0.231,0.627-0.446,1.27-0.644,1.928c-0.195,0.658-0.347,1.299-0.457,1.92
			c-0.11,0.621-0.165,1.209-0.165,1.766s0.085,1.045,0.258,1.467c-0.1-0.139-0.297-0.309-0.592-0.51
			c-0.294-0.201-0.656-0.406-1.087-0.619c-0.43-0.213-0.914-0.42-1.452-0.623c-0.539-0.205-1.1-0.379-1.684-0.523
			s-1.18-0.248-1.78-0.309c-0.604-0.063-1.188-0.057-1.753,0.016c-0.566,0.07-1.101,0.219-1.599,0.439
			c-0.498,0.223-0.938,0.545-1.317,0.965c0.311-0.486,0.673-0.879,1.09-1.176c0.417-0.295,0.861-0.52,1.334-0.67
			c0.474-0.148,0.965-0.24,1.479-0.27c0.513-0.029,1.021-0.018,1.521,0.037c0.502,0.055,0.993,0.139,1.469,0.254
			c0.479,0.111,0.914,0.23,1.313,0.355c0.396,0.121,0.748,0.246,1.052,0.371c0.305,0.125,0.536,0.221,0.694,0.289l-0.015-0.012
			c0.031-0.23,0.07-0.49,0.119-0.777c0.047-0.246,0.103-0.537,0.157-0.871c0.058-0.334,0.132-0.705,0.224-1.109
			c-0.263,0.271-0.573,0.492-0.937,0.662c-0.364,0.172-0.781,0.248-1.261,0.234c-0.543-0.016-0.959-0.125-1.245-0.33
			c-0.287-0.203-0.464-0.486-0.534-0.85c-0.07-0.363-0.035-0.795,0.104-1.299c0.141-0.504,0.358-1.068,0.66-1.691
			c0.305-0.623,0.684-1.295,1.141-2.016s0.973-1.475,1.548-2.268l0.883,0.578c-0.944,1.381-1.679,2.613-2.207,3.693
			c-0.222,0.467-0.409,0.922-0.562,1.365s-0.236,0.842-0.25,1.193c-0.018,0.352,0.062,0.637,0.227,0.857s0.457,0.338,0.873,0.35
			c0.367,0.012,0.697-0.107,0.989-0.355c0.291-0.248,0.545-0.557,0.764-0.926c0.128-0.541,0.276-1.109,0.445-1.705
			s0.358-1.191,0.571-1.789c0.216-0.6,0.447-1.184,0.705-1.758c0.258-0.57,0.54-1.109,0.854-1.613L271.231,411.592z
			 M259.915,420.654c0.02,0,0.088-0.02,0.217-0.059c0.133-0.041,0.271-0.09,0.427-0.15l0.604-0.223
			c0.545-0.041,1.155,0.045,1.829,0.256c0.285,0.098,0.604,0.221,0.949,0.375c0.348,0.154,0.721,0.355,1.118,0.604
			c0.396,0.248,0.813,0.545,1.259,0.889c0.442,0.346,0.905,0.758,1.387,1.234c-0.692-0.596-1.374-1.084-2.035-1.463
			c-0.66-0.379-1.278-0.678-1.856-0.895s-1.108-0.367-1.589-0.453c-0.481-0.086-0.896-0.139-1.238-0.156
			c-0.343-0.018-0.61-0.016-0.798,0.008C259.997,420.643,259.907,420.654,259.915,420.654z M266.903,410.986
			c-0.008,0-0.038,0.045-0.088,0.131c-0.05,0.086-0.11,0.195-0.178,0.33s-0.145,0.279-0.226,0.434
			c-0.081,0.152-0.151,0.293-0.222,0.42c-0.068,0.125-0.123,0.229-0.165,0.313c-0.042,0.082-0.063,0.119-0.063,0.111
			s-0.075,0.061-0.231,0.203c-0.156,0.145-0.351,0.348-0.576,0.607c-0.228,0.262-0.473,0.574-0.735,0.939
			c-0.263,0.363-0.502,0.758-0.718,1.18c-0.216,0.422-0.389,0.865-0.519,1.33c-0.129,0.465-0.18,0.934-0.146,1.406
			c-0.067-0.355-0.064-0.73,0.009-1.129c0.075-0.396,0.197-0.805,0.365-1.219c0.168-0.416,0.372-0.828,0.612-1.238
			c0.24-0.408,0.489-0.799,0.748-1.172c0.258-0.373,0.517-0.723,0.771-1.047c0.261-0.324,0.488-0.605,0.69-0.84
			c0.202-0.232,0.366-0.42,0.49-0.557C266.853,411.057,266.911,410.988,266.903,410.986z"/>
		<path fill="#010101" d="M271.533,412.334c0.063-0.111,0.146-0.217,0.262-0.316c0.116-0.102,0.252-0.158,0.413-0.17
			c0.152-0.01,0.294,0.012,0.424,0.066c0.134,0.057,0.258,0.105,0.375,0.148c0.332,0.146,0.615,0.352,0.854,0.619
			c0.237,0.268,0.435,0.555,0.594,0.863c0.075,0.162,0.143,0.322,0.196,0.484c0.056,0.162,0.096,0.336,0.124,0.521
			c0.019,0.168,0.02,0.344,0.003,0.527c-0.02,0.184-0.081,0.354-0.189,0.512c-0.1,0.156-0.246,0.266-0.438,0.322
			c-0.089,0.029-0.178,0.053-0.27,0.064c-0.089,0.014-0.181,0.012-0.273-0.008c-0.199-0.029-0.363-0.104-0.492-0.219
			s-0.247-0.256-0.354-0.42c-0.226-0.277-0.42-0.389-0.584-0.334c-0.165,0.057-0.322,0.248-0.475,0.58
			c-0.147,0.332-0.305,0.787-0.466,1.367s-0.34,1.26-0.539,2.037l1.843-3.139c0.008-0.025,0.021-0.051,0.027-0.078
			c0.008-0.027,0.017-0.059,0.023-0.09l1.082,0.799c-0.066,0.143-0.151,0.332-0.257,0.563c-0.103,0.234-0.202,0.486-0.297,0.762
			c-0.096,0.271-0.182,0.553-0.258,0.838c-0.077,0.287-0.126,0.553-0.149,0.801c-0.021,0.248-0.016,0.459,0.024,0.637
			c0.039,0.178,0.127,0.291,0.266,0.344c0.141,0.053,0.333,0.029,0.584-0.066c0.25-0.098,0.577-0.295,0.979-0.596
			c-0.551,0.527-1.042,0.887-1.471,1.072c-0.433,0.189-0.769,0.189-1.012,0.002c-0.24-0.188-0.373-0.572-0.392-1.156
			c-0.021-0.586,0.113-1.391,0.397-2.414l-1.66,3.109l-0.022-0.074c0,0.018-0.003,0.027-0.007,0.031s-0.006,0.01-0.006,0.018
			l-1.035-0.75c0.327-1.641,0.688-2.941,1.085-3.906c0.164-0.412,0.346-0.771,0.546-1.076c0.201-0.307,0.411-0.5,0.629-0.582
			c0.218-0.082,0.449-0.021,0.691,0.182c0.242,0.203,0.495,0.607,0.757,1.217l-0.013,0.035c0.101,0.1,0.209,0.188,0.319,0.262
			c0.114,0.076,0.235,0.109,0.364,0.105c0.168,0.006,0.325-0.029,0.471-0.105c0.146-0.076,0.253-0.193,0.322-0.352
			c0.068-0.148,0.104-0.313,0.104-0.482c0-0.172-0.02-0.342-0.054-0.514c-0.068-0.328-0.195-0.648-0.381-0.959
			c-0.084-0.152-0.177-0.299-0.282-0.434c-0.104-0.135-0.223-0.26-0.354-0.377c-0.133-0.115-0.273-0.217-0.423-0.305
			c-0.15-0.09-0.311-0.148-0.478-0.178c-0.163,0.066-0.317,0.115-0.473,0.143c-0.088,0.021-0.181,0.041-0.277,0.053
			c-0.097,0.014-0.188,0.051-0.276,0.113c-0.033,0.021-0.063,0.02-0.093-0.01C271.522,412.395,271.517,412.365,271.533,412.334z
			 M269.368,419.594c-0.008,0-0.003-0.102,0.016-0.301c0.02-0.199,0.053-0.461,0.103-0.783s0.116-0.686,0.199-1.086
			c0.083-0.402,0.187-0.809,0.311-1.217s0.271-0.797,0.441-1.162c0.17-0.367,0.372-0.682,0.603-0.939
			c-0.142,0.213-0.27,0.447-0.386,0.705c-0.115,0.256-0.219,0.523-0.311,0.801c-0.095,0.277-0.175,0.561-0.241,0.844
			c-0.068,0.287-0.126,0.563-0.174,0.824c-0.114,0.621-0.196,1.264-0.247,1.926c-0.053,0.078-0.099,0.146-0.14,0.201
			c-0.042,0.047-0.079,0.09-0.109,0.129C269.398,419.574,269.377,419.594,269.368,419.594z M272.075,417.727
			c-0.013,0.168-0.031,0.359-0.053,0.574c-0.145,0.508-0.229,0.967-0.255,1.373c-0.017,0.176-0.016,0.348,0.003,0.518
			c0.015,0.168,0.051,0.32,0.104,0.459c0.059,0.137,0.141,0.254,0.248,0.35c0.109,0.096,0.248,0.152,0.416,0.174
			c-0.313,0.047-0.542-0.02-0.684-0.199c-0.146-0.18-0.232-0.42-0.271-0.723c-0.032-0.301-0.026-0.631,0.021-0.99
			c0.046-0.357,0.104-0.695,0.179-1.008c0.075-0.314,0.146-0.576,0.215-0.787c0.069-0.209,0.108-0.314,0.116-0.314L272.075,417.727z
			"/>
		<path fill="#010101" d="M280.785,415.012c-0.1,0.125-0.213,0.318-0.341,0.584c-0.127,0.264-0.254,0.568-0.38,0.914
			c-0.126,0.344-0.245,0.707-0.356,1.088c-0.108,0.381-0.194,0.75-0.26,1.107c-0.062,0.359-0.093,0.688-0.094,0.982
			s0.049,0.529,0.146,0.699c0.103,0.172,0.255,0.264,0.468,0.277c0.213,0.016,0.49-0.086,0.844-0.301
			c-0.559,0.408-1.022,0.637-1.4,0.682s-0.656-0.082-0.835-0.385c-0.179-0.301-0.252-0.773-0.217-1.424
			c0.034-0.645,0.188-1.459,0.466-2.436l-1.75,3.238l-0.001,0.037l-0.316,0.557l-0.802-0.912c0.007-0.232,0.03-0.482,0.069-0.754
			c0.031-0.232,0.075-0.504,0.132-0.818s0.134-0.65,0.232-1.008l-2.021,3.375l-0.813-0.9c0.043-0.654,0.138-1.313,0.282-1.973
			c0.064-0.277,0.144-0.572,0.23-0.881c0.086-0.311,0.195-0.619,0.321-0.928c0.124-0.309,0.269-0.615,0.434-0.918
			c0.165-0.305,0.354-0.594,0.563-0.865l1.032,0.762c-0.24,0.369-0.475,0.771-0.692,1.205c-0.188,0.377-0.373,0.813-0.563,1.303
			c-0.187,0.492-0.317,1.018-0.397,1.574l2.398-3.773c0.095-0.164,0.188-0.326,0.284-0.488c0.097-0.162,0.204-0.32,0.32-0.479
			l1.046,0.764c-0.242,0.354-0.47,0.738-0.683,1.156c-0.188,0.354-0.367,0.77-0.548,1.244c-0.178,0.477-0.313,0.988-0.407,1.537
			l2.431-4.408c0.026-0.088,0.057-0.166,0.091-0.236L280.785,415.012z M273.642,419.609c-0.008,0.006-0.017-0.072-0.021-0.236
			c-0.003-0.162,0.001-0.385,0.017-0.666c0.012-0.277,0.039-0.602,0.082-0.969c0.042-0.367,0.104-0.75,0.192-1.146
			c0.087-0.398,0.201-0.799,0.341-1.203c0.143-0.404,0.314-0.783,0.524-1.137c-0.232,0.576-0.404,1.143-0.516,1.695
			s-0.19,1.045-0.234,1.477c-0.047,0.51-0.061,0.994-0.042,1.449l-0.154,0.355c-0.043,0.088-0.083,0.172-0.122,0.25
			C273.674,419.557,273.65,419.602,273.642,419.609z M278.634,417.625c0-0.031,0.008,0.006,0.018,0.109
			c0.009,0.104,0.02,0.225,0.032,0.361c0.011,0.16,0.022,0.344,0.044,0.553c-0.138,0.533-0.213,1.002-0.233,1.41
			c-0.005,0.176,0,0.346,0.019,0.51c0.015,0.166,0.053,0.309,0.111,0.43c0.063,0.121,0.146,0.217,0.256,0.283
			c0.11,0.068,0.254,0.092,0.433,0.072c-0.322,0.096-0.564,0.07-0.727-0.074c-0.157-0.145-0.264-0.352-0.313-0.621
			c-0.048-0.27-0.06-0.576-0.027-0.918c0.03-0.344,0.073-0.67,0.13-0.977c0.06-0.307,0.114-0.566,0.172-0.781
			C278.603,417.77,278.634,417.65,278.634,417.625z"/>
		<path fill="#010101" d="M282.245,412.641c0.063-0.111,0.146-0.217,0.262-0.316c0.116-0.1,0.255-0.158,0.413-0.17
			c0.152-0.01,0.294,0.012,0.427,0.066c0.131,0.057,0.255,0.105,0.375,0.148c0.332,0.146,0.612,0.354,0.852,0.619
			c0.237,0.268,0.435,0.555,0.594,0.863c0.075,0.162,0.143,0.324,0.196,0.486c0.056,0.16,0.096,0.334,0.124,0.52
			c0.019,0.168,0.02,0.344,0.003,0.527c-0.018,0.184-0.081,0.354-0.188,0.512c-0.101,0.156-0.245,0.266-0.438,0.324
			c-0.089,0.027-0.178,0.051-0.267,0.063c-0.092,0.014-0.184,0.01-0.276-0.008c-0.199-0.029-0.363-0.104-0.492-0.219
			c-0.129-0.115-0.247-0.254-0.354-0.418c-0.228-0.279-0.419-0.391-0.584-0.336c-0.166,0.057-0.323,0.25-0.476,0.582
			c-0.146,0.332-0.305,0.787-0.466,1.365c-0.161,0.58-0.34,1.26-0.539,2.037l1.843-3.139c0.008-0.025,0.021-0.051,0.027-0.078
			c0.008-0.027,0.017-0.059,0.026-0.09l1.082,0.799c-0.069,0.145-0.154,0.33-0.26,0.564c-0.103,0.232-0.199,0.484-0.297,0.76
			c-0.096,0.271-0.182,0.553-0.258,0.838c-0.076,0.287-0.126,0.553-0.149,0.801c-0.021,0.248-0.016,0.459,0.024,0.637
			c0.038,0.178,0.127,0.293,0.266,0.344c0.141,0.053,0.333,0.029,0.584-0.066c0.25-0.098,0.577-0.295,0.979-0.596
			c-0.551,0.527-1.042,0.887-1.471,1.074c-0.433,0.188-0.769,0.188-1.012,0c-0.239-0.188-0.373-0.572-0.392-1.156
			c-0.021-0.586,0.113-1.391,0.399-2.414l-1.662,3.109l-0.022-0.072c0,0.016-0.003,0.023-0.007,0.029
			c-0.004,0.004-0.006,0.01-0.006,0.018l-1.035-0.75c0.327-1.639,0.688-2.941,1.085-3.906c0.164-0.412,0.346-0.77,0.546-1.076
			c0.201-0.307,0.411-0.502,0.629-0.582c0.218-0.082,0.449-0.021,0.691,0.182c0.242,0.203,0.495,0.607,0.757,1.217l-0.013,0.035
			c0.101,0.1,0.209,0.186,0.319,0.262c0.114,0.076,0.235,0.111,0.364,0.107c0.168,0.004,0.325-0.031,0.471-0.107
			s0.253-0.191,0.322-0.352c0.068-0.15,0.104-0.313,0.104-0.482c0-0.172-0.02-0.344-0.054-0.512c-0.068-0.33-0.195-0.65-0.381-0.959
			c-0.084-0.154-0.177-0.299-0.282-0.436c-0.104-0.135-0.223-0.26-0.354-0.377c-0.133-0.113-0.273-0.217-0.423-0.305
			c-0.15-0.09-0.311-0.148-0.478-0.178c-0.163,0.066-0.317,0.115-0.473,0.143c-0.088,0.023-0.181,0.039-0.277,0.053
			c-0.097,0.014-0.188,0.053-0.276,0.113c-0.033,0.021-0.063,0.02-0.092-0.01C282.234,412.703,282.228,412.672,282.245,412.641z
			 M280.08,419.9c-0.008,0-0.003-0.1,0.018-0.299c0.018-0.199,0.051-0.461,0.101-0.783s0.116-0.686,0.199-1.088
			c0.083-0.4,0.187-0.807,0.311-1.215s0.271-0.797,0.441-1.164c0.171-0.367,0.372-0.68,0.603-0.938
			c-0.142,0.213-0.27,0.445-0.386,0.703c-0.115,0.256-0.219,0.523-0.311,0.803c-0.095,0.275-0.174,0.559-0.241,0.844
			c-0.069,0.287-0.126,0.563-0.174,0.824c-0.114,0.619-0.196,1.264-0.247,1.926c-0.05,0.078-0.099,0.145-0.14,0.201
			c-0.042,0.047-0.076,0.09-0.109,0.129C280.109,419.883,280.088,419.902,280.08,419.9z M282.787,418.033
			c-0.013,0.168-0.031,0.359-0.053,0.576c-0.142,0.508-0.229,0.965-0.255,1.373c-0.017,0.176-0.016,0.348,0.003,0.516
			c0.015,0.168,0.051,0.322,0.104,0.459c0.059,0.139,0.141,0.256,0.248,0.352c0.109,0.094,0.248,0.152,0.416,0.172
			c-0.313,0.049-0.542-0.02-0.684-0.199c-0.146-0.18-0.232-0.42-0.271-0.721c-0.033-0.303-0.027-0.631,0.019-0.99
			c0.046-0.357,0.104-0.695,0.179-1.01c0.075-0.314,0.146-0.576,0.215-0.787c0.069-0.209,0.108-0.313,0.116-0.313L282.787,418.033z"
			/>
	</g>
	<line fill="none" stroke="#010101" stroke-miterlimit="10" x1="318.935" y1="319.189" x2="463.585" y2="150.498"/>
	<line fill="none" stroke="#010101" stroke-miterlimit="10" x1="463.585" y1="150.498" x2="566.196" y2="152.063"/>
	<path fill="#FFFFFF" stroke="#010101" stroke-width="3" stroke-miterlimit="10" d="M119.119,650.188"/>
	<path fill="none" stroke="#010101" stroke-miterlimit="10" d="M125.612,634.48"/>
	<path fill="none" stroke="#010101" stroke-miterlimit="10" d="M99.279,634.48"/>
	<path fill="none" stroke="#010101" stroke-miterlimit="10" d="M97.925,611.938"/>
	<path fill="none" stroke="#010101" stroke-miterlimit="10" d="M32.279,594.814"/>
	<path fill="none" stroke="#010101" stroke-miterlimit="10" d="M34.854,561.932"/>
	<path fill="none" stroke="#010101" stroke-miterlimit="10" d="M183.945,629.48"/>
</g>
</svg>
