<?xml version="1.0" encoding="utf-8"?>
<!-- Generator: Adobe Illustrator 16.0.3, SVG Export Plug-In . SVG Version: 6.00 Build 0)  -->
<!DOCTYPE svg PUBLIC "-//W3C//DTD SVG 1.1//EN" "http://www.w3.org/Graphics/SVG/1.1/DTD/svg11.dtd">
<svg version="1.1" id="Layer_1" xmlns="http://www.w3.org/2000/svg" xmlns:xlink="http://www.w3.org/1999/xlink" x="0px" y="0px"
	 width="1366px" height="450px" viewBox="0 0 1366 450" enable-background="new 0 0 1366 450" xml:space="preserve">
<g>
	<path fill="#FFFFFF" d="M495.689,191.302c-1.64,0-3.292-0.268-4.964-0.805c-1.673-0.536-3.2-1.546-4.589-3.028
		c-1.388-1.483-2.524-3.563-3.415-6.244c-0.891-2.676-1.334-6.119-1.334-10.322v-62.926h3.31v62.926c0,3.708,0.354,6.656,1.065,8.84
		c0.711,2.185,1.603,3.853,2.668,5.006c1.068,1.155,2.241,1.897,3.522,2.226c1.28,0.33,2.523,0.495,3.735,0.495
		c1.138,0,2.348-0.165,3.628-0.495c1.279-0.328,2.453-1.07,3.521-2.226c1.066-1.153,1.956-2.821,2.668-5.006
		c0.709-2.184,1.066-5.132,1.066-8.84v-62.926h3.31v62.926c0,4.203-0.446,7.646-1.334,10.322c-0.892,2.681-2.012,4.761-3.362,6.244
		c-1.353,1.482-2.883,2.492-4.59,3.028C498.891,191.034,497.254,191.302,495.689,191.302z"/>
	<path fill="#FFFFFF" d="M522.155,191.424h-3.415V108.1h2.882l24.759,71.332V108.1h3.414v83.324h-2.772l-24.866-71.332
		L522.155,191.424L522.155,191.424z"/>
	<path fill="#FFFFFF" d="M558.65,191.424V108.1h3.309v83.324H558.65z"/>
	<path fill="#FFFFFF" d="M606.141,111.933h-17.288v79.369h-3.309v-79.369h-17.183v-3.956h37.778L606.141,111.933L606.141,111.933z"
		/>
	<path fill="#FFFFFF" d="M614.995,111.933v35.853h22.519v3.831h-22.519v35.975h22.519v3.833h-25.827V108.1h25.827v3.833H614.995z"/>
	<path fill="#FFFFFF" d="M656.509,191.424h-12.272V108.1h12.272c5.69,0,9.925,1.978,12.699,5.936
		c2.631,3.626,3.949,9.147,3.949,16.566v38.323c0,7.416-1.318,12.939-3.949,16.565C666.434,189.446,662.199,191.424,656.509,191.424
		z M647.544,187.591h8.965c4.624,0,7.985-1.503,10.085-4.511c2.099-3.009,3.147-7.727,3.147-14.155v-38.323
		c0-6.43-1.05-11.147-3.147-14.156c-2.1-3.008-5.461-4.513-10.085-4.513h-8.965V187.591z"/>
</g>
<g>
	<path fill="#FFFFFF" d="M708.914,191.302c-5.125,0-8.967-1.896-11.527-5.688c-2.561-3.541-3.843-8.982-3.843-16.318v-1.854h3.312
		v1.854c0,4.123,0.39,7.376,1.171,9.767c0.784,2.391,1.762,4.203,2.936,5.438c1.174,1.238,2.476,2.041,3.898,2.411
		c1.42,0.372,2.771,0.558,4.055,0.558c3.842,0,6.811-1.546,8.91-4.637c2.098-3.09,3.146-7.396,3.146-12.92
		c0-2.966-0.442-5.459-1.334-7.479c-0.889-2.019-1.955-3.687-3.199-5.007c-1.245-1.317-2.547-2.348-3.897-3.091
		c-1.351-0.742-2.451-1.317-3.308-1.73l-1.813-0.865c-1.066-0.494-2.387-1.215-3.951-2.163c-1.565-0.947-3.076-2.268-4.533-3.957
		c-1.459-1.688-2.723-3.789-3.789-6.305c-1.065-2.513-1.603-5.581-1.603-9.209c0-6.265,1.245-11.415,3.735-15.454
		c2.846-4.45,6.725-6.676,11.635-6.676c5.051,0,8.928,1.938,11.629,5.811c2.564,3.709,3.844,9.147,3.844,16.319v1.978h-3.416v-1.978
		c0-6.265-1.031-10.92-3.096-13.971c-1.92-2.801-4.908-4.203-8.961-4.203c-3.844,0-6.795,1.69-8.859,5.068
		c-2.133,3.381-3.199,7.749-3.199,13.105c0,2.966,0.425,5.48,1.277,7.541c0.855,2.061,1.904,3.791,3.148,5.191
		c1.244,1.402,2.543,2.516,3.896,3.338c1.351,0.825,2.562,1.483,3.627,1.979l1.709,0.865c0.927,0.414,2.168,1.05,3.736,1.915
		c1.563,0.865,3.094,2.103,4.588,3.711c1.494,1.605,2.789,3.646,3.896,6.119c1.102,2.473,1.653,5.522,1.653,9.146
		c0,6.182-1.278,11.21-3.844,15.083C717.771,189.199,713.891,191.302,708.914,191.302z"/>
	<path fill="#FFFFFF" d="M767.924,111.933h-17.285v79.369h-3.307v-79.369h-17.184v-3.956h37.774L767.924,111.933L767.924,111.933z"
		/>
</g>
<g>
	<path fill="#FFFFFF" d="M775.186,191.424h-3.416l5.656-28.928v-0.371l10.887-54.025h2.668l16.437,83.324h-3.414l-4.91-25.468
		h-18.998L775.186,191.424z M789.592,118.608l-8.643,43.517h17.393L789.592,118.608z"/>
	<path fill="#FFFFFF" d="M850.848,111.933h-17.287v79.369h-3.307v-79.369h-17.182v-3.956h37.774L850.848,111.933L850.848,111.933z"
		/>
	<path fill="#FFFFFF" d="M859.705,111.933v35.853h22.516v3.831h-22.516v35.975h22.516v3.833h-25.826V108.1h25.826v3.833H859.705z"/>
	<path fill="#FFFFFF" d="M904.1,191.302c-5.125,0-8.967-1.896-11.526-5.688c-2.562-3.541-3.843-8.982-3.843-16.318v-1.854h3.312
		v1.854c0,4.123,0.389,7.376,1.17,9.767c0.785,2.391,1.762,4.203,2.937,5.438c1.174,1.238,2.475,2.041,3.897,2.411
		c1.42,0.372,2.771,0.558,4.055,0.558c3.843,0,6.812-1.546,8.91-4.637c2.099-3.09,3.146-7.396,3.146-12.92
		c0-2.966-0.443-5.459-1.334-7.479c-0.89-2.019-1.955-3.687-3.199-5.007c-1.246-1.317-2.547-2.348-3.898-3.091
		c-1.35-0.742-2.45-1.317-3.307-1.73l-1.813-0.865c-1.065-0.494-2.387-1.215-3.95-2.163c-1.566-0.947-3.076-2.268-4.533-3.957
		c-1.459-1.688-2.724-3.789-3.789-6.305c-1.066-2.513-1.603-5.581-1.603-9.209c0-6.265,1.244-11.415,3.734-15.454
		c2.846-4.45,6.725-6.676,11.635-6.676c5.052,0,8.929,1.938,11.629,5.811c2.564,3.709,3.845,9.147,3.845,16.319v1.978h-3.416v-1.978
		c0-6.265-1.031-10.92-3.097-13.971c-1.92-2.801-4.907-4.203-8.961-4.203c-3.844,0-6.795,1.69-8.858,5.068
		c-2.134,3.381-3.199,7.749-3.199,13.105c0,2.966,0.424,5.48,1.277,7.541c0.854,2.061,1.903,3.791,3.147,5.191
		c1.244,1.402,2.543,2.516,3.898,3.338c1.348,0.825,2.559,1.483,3.625,1.979l1.711,0.865c0.924,0.414,2.166,1.05,3.734,1.915
		c1.563,0.865,3.094,2.103,4.588,3.711c1.494,1.605,2.789,3.646,3.895,6.119c1.102,2.473,1.654,5.522,1.654,9.146
		c0,6.182-1.279,11.21-3.844,15.083C912.957,189.199,909.076,191.302,904.1,191.302z"/>
</g>
<g>
	<path fill="#FFFFFF" d="M495.901,276.725c-1.708,0-3.469-0.289-5.282-0.859c-1.813-0.58-3.469-1.69-4.963-3.342
		c-1.494-1.648-2.704-3.896-3.629-6.735c-0.927-2.841-1.389-6.576-1.389-11.188V215.41c0-7.087,1.246-12.527,3.736-16.318
		c2.632-3.791,6.474-5.688,11.525-5.688c5.122,0,8.964,1.897,11.525,5.688c2.561,3.708,3.842,9.146,3.842,16.318V254.6
		c0,4.611-0.464,8.348-1.388,11.188c-0.926,2.841-2.135,5.087-3.629,6.735c-1.493,1.65-3.147,2.762-4.962,3.342
		C499.479,276.436,497.68,276.725,495.901,276.725z M495.901,197.235c-4.056,0-7.01,1.442-8.857,4.326
		c-2.065,3.051-3.095,7.666-3.095,13.848v39.19c0,6.262,1.029,10.922,3.095,13.963c1.921,2.891,4.872,4.33,8.857,4.33
		c3.911,0,6.899-1.439,8.964-4.33c1.992-2.881,2.988-7.533,2.988-13.963v-39.19c0-6.347-0.996-10.96-2.988-13.848
		C502.873,198.678,499.886,197.235,495.901,197.235z"/>
	<path fill="#FFFFFF" d="M522.046,276.725h-3.308v-83.322h12.913c5.763,0,9.994,1.814,12.697,5.44
		c2.705,3.628,4.057,9.067,4.057,16.318c0,7.254-1.352,12.692-4.057,16.313c-2.703,3.631-6.936,5.441-12.697,5.441h-9.605V276.725
		L522.046,276.725z M522.046,233.086h9.605c4.693,0,8.11-1.4,10.243-4.201c2.063-2.886,3.097-7.459,3.097-13.724
		c0-6.429-1.032-11.022-3.097-13.785c-2.063-2.761-5.479-4.141-10.243-4.141h-9.605V233.086z"/>
	<path fill="#FFFFFF" d="M558.223,197.235v35.851h22.52v3.831h-22.52v35.978h22.52v3.83h-25.827v-83.322h25.827v3.833
		L558.223,197.235L558.223,197.235z"/>
	<path fill="#FFFFFF" d="M590.559,276.725h-3.414v-83.322h2.882l24.758,71.33v-71.33h3.415v83.322h-2.773l-24.866-71.33
		L590.559,276.725L590.559,276.725z"/>
</g>
<g>
	<path fill="#FFFFFF" d="M647.871,276.725h-3.31v-83.322h2.882l18.463,74.3l18.354-74.3h2.987v83.322h-3.411v-67.497l-16.652,67.497
		h-2.56l-16.755-67.497L647.871,276.725L647.871,276.725z"/>
	<path fill="#FFFFFF" d="M709.344,276.604c-1.639,0-3.293-0.266-4.967-0.805c-1.668-0.531-3.203-1.546-4.586-3.025
		c-1.391-1.489-2.529-3.565-3.418-6.246c-0.891-2.68-1.334-6.117-1.334-10.326v-62.922h3.307v62.922c0,3.71,0.361,6.664,1.07,8.846
		s1.598,3.854,2.668,5.006s2.244,1.893,3.521,2.223c1.278,0.33,2.522,0.498,3.737,0.498c1.134,0,2.343-0.168,3.627-0.498
		c1.279-0.33,2.453-1.07,3.523-2.223c1.063-1.15,1.951-2.824,2.668-5.006c0.707-2.182,1.063-5.136,1.063-8.846v-62.922h3.307v62.922
		c0,4.209-0.445,7.646-1.334,10.326c-0.889,2.681-2.008,4.757-3.355,6.246c-1.354,1.479-2.883,2.494-4.592,3.025
		C712.539,276.339,710.906,276.604,709.344,276.604z"/>
	<path fill="#FFFFFF" d="M747.863,276.604c-5.121,0-8.963-1.898-11.527-5.689c-2.557-3.542-3.842-8.982-3.842-16.314v-1.858h3.314
		v1.858c0,4.121,0.389,7.373,1.166,9.764c0.784,2.391,1.766,4.201,2.938,5.439c1.174,1.24,2.475,2.045,3.897,2.415
		c1.419,0.37,2.771,0.556,4.052,0.556c3.842,0,6.813-1.545,8.914-4.637c2.098-3.09,3.146-7.396,3.146-12.918
		c0-2.97-0.442-5.465-1.334-7.484c-0.889-2.012-1.959-3.687-3.203-5.006c-1.242-1.313-2.543-2.351-3.896-3.092
		c-1.349-0.74-2.453-1.312-3.31-1.729l-1.813-0.86c-1.063-0.499-2.383-1.216-3.947-2.166c-1.57-0.949-3.078-2.27-4.537-3.957
		s-2.723-3.789-3.785-6.305c-1.069-2.513-1.604-5.581-1.604-9.209c0-6.264,1.244-11.415,3.738-15.453
		c2.842-4.451,6.725-6.677,11.631-6.677c5.051,0,8.928,1.938,11.631,5.812c2.563,3.708,3.842,9.146,3.842,16.318v1.978h-3.412
		v-1.978c0-6.264-1.034-10.92-3.098-13.971c-1.918-2.801-4.906-4.203-8.963-4.203c-3.843,0-6.795,1.69-8.859,5.068
		c-2.133,3.381-3.194,7.749-3.194,13.105c0,2.966,0.424,5.48,1.276,7.541c0.854,2.061,1.904,3.791,3.148,5.19
		c1.243,1.402,2.543,2.517,3.896,3.334c1.35,0.83,2.559,1.489,3.627,1.98l1.709,0.869c0.926,0.41,2.168,1.046,3.732,1.915
		c1.563,0.86,3.098,2.101,4.592,3.711c1.494,1.602,2.787,3.646,3.891,6.116c1.105,2.472,1.654,5.521,1.654,9.15
		c0,6.182-1.279,11.204-3.842,15.083C756.721,274.504,752.844,276.604,747.863,276.604z"/>
	<path fill="#FFFFFF" d="M771.02,276.725v-83.322h3.308v83.322H771.02z"/>
	<path fill="#FFFFFF" d="M796.422,276.725c-1.779,0-3.578-0.289-5.393-0.859c-1.813-0.58-3.467-1.69-4.961-3.342
		c-1.494-1.648-2.703-3.896-3.627-6.735c-0.925-2.84-1.39-6.576-1.39-11.188V215.41c0-4.531,0.466-8.242,1.39-11.127
		c0.924-2.884,2.133-5.131,3.627-6.737c1.494-1.607,3.147-2.698,4.961-3.275s3.612-0.867,5.393-0.867
		c1.709,0,3.467,0.29,5.279,0.867c1.813,0.577,3.467,1.668,4.969,3.275c1.492,1.606,2.701,3.854,3.627,6.737
		c0.924,2.885,1.381,6.596,1.381,11.127v1.978h-3.41v-1.978c0-6.347-1-10.96-2.987-13.848c-2.063-2.884-5.017-4.326-8.857-4.326
		c-3.912,0-6.899,1.442-8.963,4.326c-1.994,2.888-2.988,7.501-2.988,13.848V254.6c0,6.342,1.029,11.002,3.093,13.965
		c1.924,2.89,4.871,4.33,8.858,4.33c3.842,0,6.795-1.44,8.857-4.33c1.987-3.043,2.987-7.703,2.987-13.965v-1.979h3.41v1.979
		c0,4.611-0.457,8.348-1.381,11.188c-0.926,2.841-2.135,5.087-3.627,6.735c-1.502,1.65-3.154,2.762-4.969,3.342
		C799.889,276.436,798.131,276.725,796.422,276.725z"/>
</g>
<g>
	<path fill="#FFFFFF" d="M495.795,362.023c-1.778,0-3.574-0.289-5.39-0.86c-1.813-0.58-3.47-1.69-4.963-3.341
		c-1.493-1.649-2.704-3.896-3.628-6.736c-0.927-2.841-1.388-6.576-1.388-11.188V300.71c0-4.53,0.461-8.242,1.388-11.132
		c0.924-2.881,2.135-5.127,3.628-6.736s3.148-2.695,4.963-3.275c1.814-0.57,3.61-0.86,5.39-0.86c1.707,0,3.469,0.29,5.282,0.86
		c1.814,0.58,3.469,1.666,4.962,3.275c1.494,1.609,2.703,3.855,3.629,6.736c0.924,2.89,1.388,6.602,1.388,11.132v1.972h-3.415
		v-1.972c0-6.351-0.997-10.962-2.988-13.853c-2.063-2.881-5.016-4.321-8.856-4.321c-3.913,0-6.902,1.44-8.965,4.321
		c-1.992,2.891-2.987,7.502-2.987,13.853v39.188c0,6.342,1.03,11.002,3.094,13.964c1.922,2.89,4.872,4.33,8.858,4.33
		c3.842,0,6.793-1.44,8.856-4.33c1.991-3.042,2.988-7.702,2.988-13.964v-1.98h3.415v1.98c0,4.61-0.464,8.347-1.388,11.188
		c-0.926,2.841-2.135,5.087-3.629,6.736c-1.493,1.649-3.146,2.761-4.962,3.341C499.264,361.734,497.502,362.023,495.795,362.023z"/>
	<path fill="#FFFFFF" d="M532.611,362.023c-1.707,0-3.467-0.289-5.282-0.86c-1.813-0.58-3.469-1.69-4.962-3.341
		c-1.494-1.649-2.705-3.896-3.629-6.736c-0.926-2.841-1.389-6.576-1.389-11.188V300.71c0-7.091,1.245-12.532,3.736-16.321
		c2.632-3.791,6.475-5.684,11.524-5.684c5.122,0,8.965,1.893,11.525,5.684c2.562,3.709,3.844,9.149,3.844,16.321v39.188
		c0,4.61-0.465,8.347-1.389,11.188c-0.926,2.841-2.135,5.087-3.629,6.736s-3.146,2.761-4.963,3.341
		C536.188,361.734,534.391,362.023,532.611,362.023z M532.611,282.536c-4.055,0-7.01,1.44-8.856,4.321
		c-2.064,3.051-3.096,7.67-3.096,13.853v39.188c0,6.262,1.03,10.922,3.096,13.964c1.921,2.89,4.872,4.33,8.856,4.33
		c3.912,0,6.9-1.44,8.965-4.33c1.992-2.882,2.989-7.533,2.989-13.964V300.71c0-6.351-0.997-10.962-2.989-13.853
		C539.584,283.977,536.596,282.536,532.611,282.536z"/>
	<path fill="#FFFFFF" d="M558.331,362.023h-3.31v-83.318h2.882l18.462,74.296l18.355-74.296h2.987v83.318h-3.414v-67.496
		l-16.649,67.496h-2.561l-16.754-67.496L558.331,362.023L558.331,362.023z"/>
</g>
<g>
	<path fill="#FFFFFF" d="M611.108,362.023H607.8v-83.318h12.913c5.763,0,9.994,1.811,12.698,5.434
		c2.705,3.629,4.057,9.069,4.057,16.321s-1.352,12.693-4.057,16.314c-2.704,3.63-6.937,5.44-12.698,5.44h-9.604V362.023
		L611.108,362.023z M611.108,318.385h9.604c4.694,0,8.111-1.399,10.244-4.202c2.063-2.881,3.096-7.461,3.096-13.723
		c0-6.431-1.031-11.019-3.096-13.787c-2.063-2.761-5.479-4.137-10.244-4.137h-9.604V318.385z"/>
	<path fill="#FFFFFF" d="M647.285,282.536v35.849h22.519v3.831h-22.519v35.978h22.519v3.831h-25.827v-83.318h25.827v3.831
		L647.285,282.536L647.285,282.536z"/>
	<path fill="#FFFFFF" d="M713.555,282.536h-17.287v79.367h-3.307v-79.367h-17.183v-3.96h37.775L713.555,282.536L713.555,282.536z"/>
	<path fill="#FFFFFF" d="M720.496,362.023v-83.318h3.307v83.318H720.496z"/>
	<path fill="#FFFFFF" d="M767.984,282.536h-17.287v79.367h-3.308v-79.367h-17.182v-3.96h37.775L767.984,282.536L767.984,282.536z"/>
</g>
<g>
	<path fill="#FFFFFF" d="M771.135,361.412v-83.327h3.308v83.327H771.135z"/>
	<path fill="#FFFFFF" d="M796.637,361.412c-1.705,0-3.467-0.29-5.281-0.869c-1.815-0.571-3.469-1.69-4.963-3.332
		c-1.494-1.65-2.707-3.896-3.627-6.745c-0.928-2.841-1.391-6.566-1.391-11.188V300.09c0-7.083,1.244-12.523,3.734-16.314
		c2.635-3.791,6.477-5.689,11.526-5.689c5.123,0,8.968,1.898,11.525,5.689c2.561,3.703,3.844,9.145,3.844,16.314v39.188
		c0,4.62-0.467,8.347-1.391,11.188c-0.925,2.851-2.134,5.095-3.627,6.745c-1.494,1.642-3.146,2.761-4.961,3.332
		C800.211,361.122,798.416,361.412,796.637,361.412z M796.637,281.916c-4.055,0-7.008,1.449-8.858,4.33
		c-2.063,3.051-3.093,7.663-3.093,13.844v39.188c0,6.271,1.029,10.922,3.093,13.973c1.922,2.89,4.875,4.33,8.858,4.33
		c3.912,0,6.898-1.44,8.967-4.33c1.99-2.882,2.986-7.542,2.986-13.973V300.09c0-6.342-0.996-10.962-2.986-13.844
		C803.609,283.365,800.621,281.916,796.637,281.916z"/>
	<path fill="#FFFFFF" d="M822.678,361.412h-3.42v-83.327h2.885L846.9,349.42v-71.335h3.416v83.327h-2.777l-24.861-71.335V361.412z"
		/>
</g>
</svg>
